<svg width="1921" height="641" viewBox="0 0 1921 641" fill="none" xmlns="http://www.w3.org/2000/svg">
<rect width="320" height="320" transform="translate(0.25 0.25)" fill="#FAFAFB"/>
<path d="M320.25 0.25H0.25V320.25H320.25V0.25Z" stroke="#D6D8DA" stroke-width="0.5" stroke-miterlimit="10"/>
<rect width="320" height="320" transform="translate(320.25 0.25)" fill="#FAFAFB"/>
<path d="M640.25 0.25H320.25V320.25H640.25V0.25Z" stroke="#D6D8DA" stroke-width="0.5" stroke-miterlimit="10"/>
<rect width="320" height="320" transform="translate(0.25 320.25)" fill="#FAFAFB"/>
<path d="M320.25 320.25H0.25V640.25H320.25V320.25Z" stroke="#D6D8DA" stroke-width="0.5" stroke-miterlimit="10"/>
<rect width="320" height="320" transform="translate(320.25 320.25)" fill="#FAFAFB"/>
<path d="M640.25 320.25H320.25V640.25H640.25V320.25Z" stroke="#D6D8DA" stroke-width="0.5" stroke-miterlimit="10"/>
<rect width="160" height="160" transform="translate(640.25 0.25)" fill="#FAFAFB"/>
<path d="M800.25 0.25H640.25V160.25H800.25V0.25Z" stroke="#D6D8DA" stroke-width="0.5" stroke-miterlimit="10"/>
<rect width="160" height="160" transform="translate(800.25 0.25)" fill="#FAFAFB"/>
<path d="M960.25 0.25H800.25V160.25H960.25V0.25Z" stroke="#D6D8DA" stroke-width="0.5" stroke-miterlimit="10"/>
<rect width="160" height="160" transform="translate(960.25 0.25)" fill="#FAFAFB"/>
<path d="M1120.25 0.25H960.25V160.25H1120.25V0.25Z" stroke="#D6D8DA" stroke-width="0.5" stroke-miterlimit="10"/>
<rect width="160" height="160" transform="translate(1120.25 0.25)" fill="#FAFAFB"/>
<path d="M1280.25 0.25H1120.25V160.25H1280.25V0.25Z" stroke="#D6D8DA" stroke-width="0.5" stroke-miterlimit="10"/>
<rect width="160" height="160" transform="translate(640.25 160.25)" fill="#FAFAFB"/>
<path d="M800.25 160.25H640.25V320.25H800.25V160.25Z" stroke="#D6D8DA" stroke-width="0.5" stroke-miterlimit="10"/>
<rect width="160" height="160" transform="translate(800.25 160.25)" fill="#FAFAFB"/>
<path d="M960.25 160.25H800.25V320.25H960.25V160.25Z" stroke="#D6D8DA" stroke-width="0.5" stroke-miterlimit="10"/>
<rect width="160" height="160" transform="translate(960.25 160.25)" fill="#FAFAFB"/>
<path d="M1120.25 160.25H960.25V320.25H1120.25V160.25Z" stroke="#D6D8DA" stroke-width="0.5" stroke-miterlimit="10"/>
<rect width="160" height="160" transform="translate(1120.25 160.25)" fill="#FAFAFB"/>
<path d="M1280.25 160.25H1120.25V320.25H1280.25V160.25Z" stroke="#D6D8DA" stroke-width="0.5" stroke-miterlimit="10"/>
<rect width="160" height="160" transform="translate(640.25 320.25)" fill="#FAFAFB"/>
<path d="M800.25 320.25H640.25V480.25H800.25V320.25Z" stroke="#D6D8DA" stroke-width="0.5" stroke-miterlimit="10"/>
<rect width="160" height="160" transform="translate(800.25 320.25)" fill="#FAFAFB"/>
<path d="M960.25 320.25H800.25V480.25H960.25V320.25Z" stroke="#D6D8DA" stroke-width="0.5" stroke-miterlimit="10"/>
<rect width="160" height="160" transform="translate(960.25 320.25)" fill="#FAFAFB"/>
<path d="M1120.25 320.25H960.25V480.25H1120.25V320.25Z" stroke="#D6D8DA" stroke-width="0.5" stroke-miterlimit="10"/>
<rect width="160" height="160" transform="translate(1120.25 320.25)" fill="#FAFAFB"/>
<path d="M1280.25 320.25H1120.25V480.25H1280.25V320.25Z" stroke="#D6D8DA" stroke-width="0.5" stroke-miterlimit="10"/>
<rect width="160" height="160" transform="translate(640.25 480.25)" fill="#FAFAFB"/>
<path d="M800.25 480.25H640.25V640.25H800.25V480.25Z" stroke="#D6D8DA" stroke-width="0.5" stroke-miterlimit="10"/>
<rect width="160" height="160" transform="translate(800.25 480.25)" fill="#FAFAFB"/>
<path d="M960.25 480.25H800.25V640.25H960.25V480.25Z" stroke="#D6D8DA" stroke-width="0.5" stroke-miterlimit="10"/>
<rect width="160" height="160" transform="translate(960.25 480.25)" fill="#FAFAFB"/>
<path d="M1120.25 480.25H960.25V640.25H1120.25V480.25Z" stroke="#D6D8DA" stroke-width="0.5" stroke-miterlimit="10"/>
<rect width="160" height="160" transform="translate(1120.25 480.25)" fill="#FAFAFB"/>
<path d="M1280.25 480.25H1120.25V640.25H1280.25V480.25Z" stroke="#D6D8DA" stroke-width="0.5" stroke-miterlimit="10"/>
<rect width="80" height="80" transform="translate(1280.25 0.25)" fill="#FAFAFB"/>
<path d="M1360.25 0.25H1280.25V80.25H1360.25V0.25Z" stroke="#D6D8DA" stroke-width="0.5" stroke-miterlimit="10"/>
<rect width="80" height="80" transform="translate(1360.25 0.25)" fill="#FAFAFB"/>
<path d="M1440.25 0.25H1360.25V80.25H1440.25V0.25Z" stroke="#D6D8DA" stroke-width="0.5" stroke-miterlimit="10"/>
<rect width="80" height="80" transform="translate(1440.25 0.25)" fill="#FAFAFB"/>
<path d="M1520.25 0.25H1440.25V80.25H1520.25V0.25Z" stroke="#D6D8DA" stroke-width="0.5" stroke-miterlimit="10"/>
<rect width="80" height="80" transform="translate(1520.25 0.25)" fill="#FAFAFB"/>
<path d="M1600.25 0.25H1520.25V80.25H1600.25V0.25Z" stroke="#D6D8DA" stroke-width="0.5" stroke-miterlimit="10"/>
<rect width="80" height="80" transform="translate(1600.25 0.25)" fill="#FAFAFB"/>
<path d="M1680.25 0.25H1600.25V80.25H1680.25V0.25Z" stroke="#D6D8DA" stroke-width="0.5" stroke-miterlimit="10"/>
<rect width="80" height="80" transform="translate(1680.25 0.25)" fill="#FAFAFB"/>
<path d="M1760.25 0.25H1680.25V80.25H1760.25V0.25Z" stroke="#D6D8DA" stroke-width="0.5" stroke-miterlimit="10"/>
<rect width="80" height="80" transform="translate(1760.25 0.25)" fill="#FAFAFB"/>
<path d="M1840.25 0.25H1760.25V80.25H1840.25V0.25Z" stroke="#D6D8DA" stroke-width="0.5" stroke-miterlimit="10"/>
<rect width="80" height="80" transform="translate(1840.25 0.25)" fill="#FAFAFB"/>
<path d="M1920.25 0.25H1840.25V80.25H1920.25V0.25Z" stroke="#D6D8DA" stroke-width="0.5" stroke-miterlimit="10"/>
<rect width="80" height="80" transform="translate(1280.25 80.25)" fill="#FAFAFB"/>
<path d="M1360.25 80.25H1280.25V160.25H1360.25V80.25Z" stroke="#D6D8DA" stroke-width="0.5" stroke-miterlimit="10"/>
<rect width="80" height="80" transform="translate(1360.25 80.25)" fill="#FAFAFB"/>
<path d="M1440.25 80.25H1360.25V160.25H1440.25V80.25Z" stroke="#D6D8DA" stroke-width="0.5" stroke-miterlimit="10"/>
<rect width="80" height="80" transform="translate(1440.25 80.25)" fill="#FAFAFB"/>
<path d="M1520.25 80.25H1440.25V160.25H1520.25V80.25Z" stroke="#D6D8DA" stroke-width="0.5" stroke-miterlimit="10"/>
<rect width="80" height="80" transform="translate(1520.25 80.25)" fill="#FAFAFB"/>
<path d="M1600.25 80.25H1520.25V160.25H1600.25V80.25Z" stroke="#D6D8DA" stroke-width="0.5" stroke-miterlimit="10"/>
<rect width="80" height="80" transform="translate(1600.25 80.25)" fill="#FAFAFB"/>
<path d="M1680.25 80.25H1600.25V160.25H1680.25V80.25Z" stroke="#D6D8DA" stroke-width="0.5" stroke-miterlimit="10"/>
<rect width="80" height="80" transform="translate(1680.25 80.25)" fill="#FAFAFB"/>
<path d="M1760.25 80.25H1680.25V160.25H1760.25V80.25Z" stroke="#D6D8DA" stroke-width="0.5" stroke-miterlimit="10"/>
<rect width="80" height="80" transform="translate(1760.25 80.25)" fill="#FAFAFB"/>
<path d="M1840.25 80.25H1760.25V160.25H1840.25V80.25Z" stroke="#D6D8DA" stroke-width="0.5" stroke-miterlimit="10"/>
<rect width="80" height="80" transform="translate(1840.25 80.25)" fill="#FAFAFB"/>
<path d="M1920.25 80.25H1840.25V160.25H1920.25V80.25Z" stroke="#D6D8DA" stroke-width="0.5" stroke-miterlimit="10"/>
<rect width="80" height="80" transform="translate(1280.25 160.25)" fill="#FAFAFB"/>
<path d="M1360.25 160.25H1280.25V240.25H1360.25V160.25Z" stroke="#D6D8DA" stroke-width="0.5" stroke-miterlimit="10"/>
<rect width="80" height="80" transform="translate(1360.25 160.25)" fill="#FAFAFB"/>
<path d="M1440.25 160.25H1360.25V240.25H1440.25V160.25Z" stroke="#D6D8DA" stroke-width="0.5" stroke-miterlimit="10"/>
<rect width="80" height="80" transform="translate(1440.25 160.25)" fill="#FAFAFB"/>
<path d="M1520.25 160.25H1440.25V240.25H1520.25V160.25Z" stroke="#D6D8DA" stroke-width="0.5" stroke-miterlimit="10"/>
<rect width="80" height="80" transform="translate(1520.25 160.25)" fill="#FAFAFB"/>
<path d="M1600.25 160.25H1520.25V240.25H1600.25V160.25Z" stroke="#D6D8DA" stroke-width="0.5" stroke-miterlimit="10"/>
<rect width="80" height="80" transform="translate(1600.25 160.25)" fill="#FAFAFB"/>
<path d="M1680.25 160.25H1600.25V240.25H1680.25V160.25Z" stroke="#D6D8DA" stroke-width="0.5" stroke-miterlimit="10"/>
<rect width="80" height="80" transform="translate(1680.25 160.25)" fill="#FAFAFB"/>
<path d="M1760.25 160.25H1680.25V240.25H1760.25V160.25Z" stroke="#D6D8DA" stroke-width="0.5" stroke-miterlimit="10"/>
<rect width="80" height="80" transform="translate(1760.25 160.25)" fill="#FAFAFB"/>
<path d="M1840.25 160.25H1760.25V240.25H1840.25V160.25Z" stroke="#D6D8DA" stroke-width="0.5" stroke-miterlimit="10"/>
<rect width="80" height="80" transform="translate(1840.25 160.25)" fill="#FAFAFB"/>
<path d="M1920.25 160.25H1840.25V240.25H1920.25V160.25Z" stroke="#D6D8DA" stroke-width="0.5" stroke-miterlimit="10"/>
<rect width="80" height="80" transform="translate(1280.25 240.25)" fill="#FAFAFB"/>
<path d="M1360.25 240.25H1280.25V320.25H1360.25V240.25Z" stroke="#D6D8DA" stroke-width="0.5" stroke-miterlimit="10"/>
<rect width="80" height="80" transform="translate(1360.25 240.25)" fill="#FAFAFB"/>
<path d="M1440.25 240.25H1360.25V320.25H1440.25V240.25Z" stroke="#D6D8DA" stroke-width="0.5" stroke-miterlimit="10"/>
<rect width="80" height="80" transform="translate(1440.25 240.25)" fill="#FAFAFB"/>
<path d="M1520.25 240.25H1440.25V320.25H1520.25V240.25Z" stroke="#D6D8DA" stroke-width="0.5" stroke-miterlimit="10"/>
<rect width="80" height="80" transform="translate(1520.25 240.25)" fill="#FAFAFB"/>
<path d="M1600.25 240.25H1520.25V320.25H1600.25V240.25Z" stroke="#D6D8DA" stroke-width="0.5" stroke-miterlimit="10"/>
<rect width="80" height="80" transform="translate(1600.25 240.25)" fill="#FAFAFB"/>
<path d="M1680.25 240.25H1600.25V320.25H1680.25V240.25Z" stroke="#D6D8DA" stroke-width="0.5" stroke-miterlimit="10"/>
<rect width="80" height="80" transform="translate(1680.25 240.25)" fill="#FAFAFB"/>
<path d="M1760.25 240.25H1680.25V320.25H1760.25V240.25Z" stroke="#D6D8DA" stroke-width="0.5" stroke-miterlimit="10"/>
<rect width="80" height="80" transform="translate(1760.25 240.25)" fill="#FAFAFB"/>
<path d="M1840.25 240.25H1760.25V320.25H1840.25V240.25Z" stroke="#D6D8DA" stroke-width="0.5" stroke-miterlimit="10"/>
<rect width="80" height="80" transform="translate(1840.25 240.25)" fill="#FAFAFB"/>
<path d="M1920.25 240.25H1840.25V320.25H1920.25V240.25Z" stroke="#D6D8DA" stroke-width="0.5" stroke-miterlimit="10"/>
<rect width="80" height="80" transform="translate(1280.25 320.25)" fill="#FAFAFB"/>
<path d="M1360.25 320.25H1280.25V400.25H1360.25V320.25Z" stroke="#D6D8DA" stroke-width="0.5" stroke-miterlimit="10"/>
<rect width="80" height="80" transform="translate(1360.25 320.25)" fill="#FAFAFB"/>
<path d="M1440.25 320.25H1360.25V400.25H1440.25V320.25Z" stroke="#D6D8DA" stroke-width="0.5" stroke-miterlimit="10"/>
<rect width="80" height="80" transform="translate(1440.25 320.25)" fill="#FAFAFB"/>
<path d="M1520.25 320.25H1440.25V400.25H1520.25V320.25Z" stroke="#D6D8DA" stroke-width="0.5" stroke-miterlimit="10"/>
<rect width="80" height="80" transform="translate(1520.25 320.25)" fill="#FAFAFB"/>
<path d="M1600.25 320.25H1520.25V400.25H1600.25V320.25Z" stroke="#D6D8DA" stroke-width="0.5" stroke-miterlimit="10"/>
<rect width="80" height="80" transform="translate(1600.25 320.25)" fill="#FAFAFB"/>
<path d="M1680.25 320.25H1600.25V400.25H1680.25V320.25Z" stroke="#D6D8DA" stroke-width="0.5" stroke-miterlimit="10"/>
<rect width="80" height="80" transform="translate(1680.25 320.25)" fill="#FAFAFB"/>
<path d="M1760.25 320.25H1680.25V400.25H1760.25V320.25Z" stroke="#D6D8DA" stroke-width="0.5" stroke-miterlimit="10"/>
<rect width="80" height="80" transform="translate(1760.25 320.25)" fill="#FAFAFB"/>
<path d="M1840.25 320.25H1760.25V400.25H1840.25V320.25Z" stroke="#D6D8DA" stroke-width="0.5" stroke-miterlimit="10"/>
<rect width="80" height="80" transform="translate(1840.25 320.25)" fill="#FAFAFB"/>
<path d="M1920.25 320.25H1840.25V400.25H1920.25V320.25Z" stroke="#D6D8DA" stroke-width="0.5" stroke-miterlimit="10"/>
<rect width="80" height="80" transform="translate(1280.25 400.25)" fill="#FAFAFB"/>
<path d="M1360.25 400.25H1280.25V480.25H1360.25V400.25Z" stroke="#D6D8DA" stroke-width="0.5" stroke-miterlimit="10"/>
<rect width="80" height="80" transform="translate(1360.25 400.25)" fill="#FAFAFB"/>
<path d="M1440.25 400.25H1360.25V480.25H1440.25V400.25Z" stroke="#D6D8DA" stroke-width="0.5" stroke-miterlimit="10"/>
<rect width="80" height="80" transform="translate(1440.25 400.25)" fill="#FAFAFB"/>
<path d="M1520.25 400.25H1440.25V480.25H1520.25V400.25Z" stroke="#D6D8DA" stroke-width="0.5" stroke-miterlimit="10"/>
<rect width="80" height="80" transform="translate(1520.25 400.25)" fill="#FAFAFB"/>
<path d="M1600.25 400.25H1520.25V480.25H1600.25V400.25Z" stroke="#D6D8DA" stroke-width="0.5" stroke-miterlimit="10"/>
<rect width="80" height="80" transform="translate(1600.25 400.25)" fill="#FAFAFB"/>
<path d="M1680.25 400.25H1600.25V480.25H1680.25V400.25Z" stroke="#D6D8DA" stroke-width="0.5" stroke-miterlimit="10"/>
<rect width="80" height="80" transform="translate(1680.25 400.25)" fill="#FAFAFB"/>
<path d="M1760.25 400.25H1680.25V480.25H1760.25V400.25Z" stroke="#D6D8DA" stroke-width="0.5" stroke-miterlimit="10"/>
<rect width="80" height="80" transform="translate(1760.25 400.25)" fill="#FAFAFB"/>
<path d="M1840.25 400.25H1760.25V480.25H1840.25V400.25Z" stroke="#D6D8DA" stroke-width="0.5" stroke-miterlimit="10"/>
<rect width="80" height="80" transform="translate(1840.25 400.25)" fill="#FAFAFB"/>
<path d="M1920.25 400.25H1840.25V480.25H1920.25V400.25Z" stroke="#D6D8DA" stroke-width="0.5" stroke-miterlimit="10"/>
<rect width="80" height="80" transform="translate(1280.25 480.25)" fill="#FAFAFB"/>
<path d="M1360.25 480.25H1280.25V560.25H1360.25V480.25Z" stroke="#D6D8DA" stroke-width="0.5" stroke-miterlimit="10"/>
<rect width="80" height="80" transform="translate(1360.25 480.25)" fill="#FAFAFB"/>
<path d="M1440.25 480.25H1360.25V560.25H1440.25V480.25Z" stroke="#D6D8DA" stroke-width="0.5" stroke-miterlimit="10"/>
<rect width="80" height="80" transform="translate(1440.25 480.25)" fill="#FAFAFB"/>
<path d="M1520.25 480.25H1440.25V560.25H1520.25V480.25Z" stroke="#D6D8DA" stroke-width="0.5" stroke-miterlimit="10"/>
<rect width="80" height="80" transform="translate(1520.25 480.25)" fill="#FAFAFB"/>
<path d="M1600.25 480.25H1520.25V560.25H1600.25V480.25Z" stroke="#D6D8DA" stroke-width="0.5" stroke-miterlimit="10"/>
<rect width="80" height="80" transform="translate(1600.25 480.25)" fill="#FAFAFB"/>
<path d="M1680.25 480.25H1600.25V560.25H1680.25V480.25Z" stroke="#D6D8DA" stroke-width="0.5" stroke-miterlimit="10"/>
<rect width="80" height="80" transform="translate(1680.25 480.25)" fill="#FAFAFB"/>
<path d="M1760.25 480.25H1680.25V560.25H1760.25V480.25Z" stroke="#D6D8DA" stroke-width="0.5" stroke-miterlimit="10"/>
<rect width="80" height="80" transform="translate(1760.25 480.25)" fill="#FAFAFB"/>
<path d="M1840.25 480.25H1760.25V560.25H1840.25V480.25Z" stroke="#D6D8DA" stroke-width="0.5" stroke-miterlimit="10"/>
<rect width="80" height="80" transform="translate(1840.25 480.25)" fill="#FAFAFB"/>
<path d="M1920.25 480.25H1840.25V560.25H1920.25V480.25Z" stroke="#D6D8DA" stroke-width="0.5" stroke-miterlimit="10"/>
<rect width="80" height="80" transform="translate(1280.25 560.25)" fill="#FAFAFB"/>
<path d="M1360.25 560.25H1280.25V640.25H1360.25V560.25Z" stroke="#D6D8DA" stroke-width="0.5" stroke-miterlimit="10"/>
<rect width="80" height="80" transform="translate(1360.25 560.25)" fill="#FAFAFB"/>
<path d="M1440.25 560.25H1360.25V640.25H1440.25V560.25Z" stroke="#D6D8DA" stroke-width="0.5" stroke-miterlimit="10"/>
<rect width="80" height="80" transform="translate(1440.25 560.25)" fill="#FAFAFB"/>
<path d="M1520.25 560.25H1440.25V640.25H1520.25V560.25Z" stroke="#D6D8DA" stroke-width="0.5" stroke-miterlimit="10"/>
<rect width="80" height="80" transform="translate(1520.25 560.25)" fill="#FAFAFB"/>
<path d="M1600.25 560.25H1520.25V640.25H1600.25V560.25Z" stroke="#D6D8DA" stroke-width="0.5" stroke-miterlimit="10"/>
<rect width="80" height="80" transform="translate(1600.25 560.25)" fill="#FAFAFB"/>
<path d="M1680.25 560.25H1600.25V640.25H1680.25V560.25Z" stroke="#D6D8DA" stroke-width="0.5" stroke-miterlimit="10"/>
<rect width="80" height="80" transform="translate(1680.25 560.25)" fill="#FAFAFB"/>
<path d="M1760.25 560.25H1680.25V640.25H1760.25V560.25Z" stroke="#D6D8DA" stroke-width="0.5" stroke-miterlimit="10"/>
<rect width="80" height="80" transform="translate(1760.25 560.25)" fill="#FAFAFB"/>
<path d="M1840.25 560.25H1760.25V640.25H1840.25V560.25Z" stroke="#D6D8DA" stroke-width="0.5" stroke-miterlimit="10"/>
<rect width="80" height="80" transform="translate(1840.25 560.25)" fill="#FAFAFB"/>
<path d="M1920.25 560.25H1840.25V640.25H1920.25V560.25Z" stroke="#D6D8DA" stroke-width="0.5" stroke-miterlimit="10"/>
<circle cx="1880.25" cy="520.25" r="40" fill="#AE4AC6"/>
<circle cx="1800.25" cy="600.25" r="40" fill="#BDC0C2"/>
<circle cx="1880.25" cy="600.25" r="40" fill="#BDC0C2"/>
<circle cx="1880.25" cy="120.25" r="40" fill="#AE4AC6"/>
<circle cx="1800.25" cy="40.25" r="40" fill="#BDC0C2"/>
<circle cx="1440.25" cy="160.25" r="160" fill="#AE4AC6"/>
<circle cx="880.25" cy="240.25" r="80" fill="#BDC0C2"/>
<circle cx="1200.25" cy="240.25" r="80" fill="#AE4AC6"/>
<circle cx="1040.25" cy="560.25" r="80" fill="#AE4AC6"/>
<circle cx="1680.25" cy="400.25" r="80" fill="#BDC0C2"/>
<circle cx="1360.25" cy="560.25" r="80" fill="#AE4AC6"/>
<circle cx="1520.25" cy="560.25" r="80" fill="#AE4AC6"/>
<circle cx="1040.25" cy="80.25" r="80" fill="#AE4AC6"/>
<circle cx="1200.25" cy="80.25" r="80" fill="#BDC0C2"/>
</svg>
