<svg width="3201" height="641" viewBox="0 0 3201 641" fill="none" xmlns="http://www.w3.org/2000/svg">
<rect width="320" height="320" transform="translate(0.25 0.25)" fill="#151B1E"/>
<path d="M320.25 0.25H0.25V320.25H320.25V0.25Z" stroke="#52595E" stroke-width="0.5" stroke-miterlimit="10"/>
<rect width="320" height="320" transform="translate(320.25 0.25)" fill="#151B1E"/>
<path d="M640.25 0.25H320.25V320.25H640.25V0.25Z" stroke="#52595E" stroke-width="0.5" stroke-miterlimit="10"/>
<rect width="320" height="320" transform="translate(0.25 320.25)" fill="#151B1E"/>
<path d="M320.25 320.25H0.25V640.25H320.25V320.25Z" stroke="#52595E" stroke-width="0.5" stroke-miterlimit="10"/>
<rect width="320" height="320" transform="translate(320.25 320.25)" fill="#151B1E"/>
<path d="M640.25 320.25H320.25V640.25H640.25V320.25Z" stroke="#52595E" stroke-width="0.5" stroke-miterlimit="10"/>
<rect width="320" height="320" transform="translate(640.25 0.25)" fill="#151B1E"/>
<path d="M960.25 0.25H640.25V320.25H960.25V0.25Z" stroke="#52595E" stroke-width="0.5" stroke-miterlimit="10"/>
<rect width="320" height="320" transform="translate(960.25 0.25)" fill="#151B1E"/>
<path d="M1280.25 0.25H960.25V320.25H1280.25V0.25Z" stroke="#52595E" stroke-width="0.5" stroke-miterlimit="10"/>
<rect width="320" height="320" transform="translate(640.25 320.25)" fill="#151B1E"/>
<path d="M960.25 320.25H640.25V640.25H960.25V320.25Z" stroke="#52595E" stroke-width="0.5" stroke-miterlimit="10"/>
<rect width="320" height="320" transform="translate(960.25 320.25)" fill="#151B1E"/>
<path d="M1280.25 320.25H960.25V640.25H1280.25V320.25Z" stroke="#52595E" stroke-width="0.5" stroke-miterlimit="10"/>
<rect width="160" height="160" transform="translate(1280.25 0.25)" fill="#151B1E"/>
<path d="M1440.25 0.25H1280.25V160.25H1440.25V0.25Z" stroke="#52595E" stroke-width="0.5" stroke-miterlimit="10"/>
<rect width="160" height="160" transform="translate(1440.25 0.25)" fill="#151B1E"/>
<path d="M1600.25 0.25H1440.25V160.25H1600.25V0.25Z" stroke="#52595E" stroke-width="0.5" stroke-miterlimit="10"/>
<rect width="160" height="160" transform="translate(1600.25 0.25)" fill="#151B1E"/>
<path d="M1760.25 0.25H1600.25V160.25H1760.25V0.25Z" stroke="#52595E" stroke-width="0.5" stroke-miterlimit="10"/>
<rect width="160" height="160" transform="translate(1760.25 0.25)" fill="#151B1E"/>
<path d="M1920.25 0.25H1760.25V160.25H1920.25V0.25Z" stroke="#52595E" stroke-width="0.5" stroke-miterlimit="10"/>
<rect width="160" height="160" transform="translate(1280.25 160.25)" fill="#151B1E"/>
<path d="M1440.25 160.25H1280.25V320.25H1440.25V160.25Z" stroke="#52595E" stroke-width="0.5" stroke-miterlimit="10"/>
<rect width="160" height="160" transform="translate(1440.25 160.25)" fill="#151B1E"/>
<path d="M1600.25 160.25H1440.25V320.25H1600.25V160.25Z" stroke="#52595E" stroke-width="0.5" stroke-miterlimit="10"/>
<rect width="160" height="160" transform="translate(1600.25 160.25)" fill="#151B1E"/>
<path d="M1760.25 160.25H1600.25V320.25H1760.25V160.25Z" stroke="#52595E" stroke-width="0.5" stroke-miterlimit="10"/>
<rect width="160" height="160" transform="translate(1760.25 160.25)" fill="#151B1E"/>
<path d="M1920.25 160.25H1760.25V320.25H1920.25V160.25Z" stroke="#52595E" stroke-width="0.5" stroke-miterlimit="10"/>
<rect width="160" height="160" transform="translate(1280.25 320.25)" fill="#151B1E"/>
<path d="M1440.25 320.25H1280.25V480.25H1440.25V320.25Z" stroke="#52595E" stroke-width="0.5" stroke-miterlimit="10"/>
<rect width="160" height="160" transform="translate(1440.25 320.25)" fill="#151B1E"/>
<path d="M1600.25 320.25H1440.25V480.25H1600.25V320.25Z" stroke="#52595E" stroke-width="0.5" stroke-miterlimit="10"/>
<rect width="160" height="160" transform="translate(1600.25 320.25)" fill="#151B1E"/>
<path d="M1760.25 320.25H1600.25V480.25H1760.25V320.25Z" stroke="#52595E" stroke-width="0.5" stroke-miterlimit="10"/>
<rect width="160" height="160" transform="translate(1760.25 320.25)" fill="#151B1E"/>
<path d="M1920.25 320.25H1760.25V480.25H1920.25V320.25Z" stroke="#52595E" stroke-width="0.5" stroke-miterlimit="10"/>
<rect width="160" height="160" transform="translate(1280.25 480.25)" fill="#151B1E"/>
<path d="M1440.25 480.25H1280.25V640.25H1440.25V480.25Z" stroke="#52595E" stroke-width="0.5" stroke-miterlimit="10"/>
<rect width="160" height="160" transform="translate(1440.25 480.25)" fill="#151B1E"/>
<path d="M1600.25 480.25H1440.25V640.25H1600.25V480.25Z" stroke="#52595E" stroke-width="0.5" stroke-miterlimit="10"/>
<rect width="160" height="160" transform="translate(1600.25 480.25)" fill="#151B1E"/>
<path d="M1760.25 480.25H1600.25V640.25H1760.25V480.25Z" stroke="#52595E" stroke-width="0.5" stroke-miterlimit="10"/>
<rect width="160" height="160" transform="translate(1760.25 480.25)" fill="#151B1E"/>
<path d="M1920.25 480.25H1760.25V640.25H1920.25V480.25Z" stroke="#52595E" stroke-width="0.5" stroke-miterlimit="10"/>
<rect width="80" height="80" transform="translate(1920.25 0.25)" fill="#151B1E"/>
<path d="M2000.25 0.25H1920.25V80.25H2000.25V0.25Z" stroke="#52595E" stroke-width="0.5" stroke-miterlimit="10"/>
<rect width="80" height="80" transform="translate(2000.25 0.25)" fill="#151B1E"/>
<path d="M2080.25 0.25H2000.25V80.25H2080.25V0.25Z" stroke="#52595E" stroke-width="0.5" stroke-miterlimit="10"/>
<rect width="80" height="80" transform="translate(2080.25 0.25)" fill="#151B1E"/>
<path d="M2160.25 0.25H2080.25V80.25H2160.25V0.25Z" stroke="#52595E" stroke-width="0.5" stroke-miterlimit="10"/>
<rect width="80" height="80" transform="translate(2160.25 0.25)" fill="#151B1E"/>
<path d="M2240.25 0.25H2160.25V80.25H2240.25V0.25Z" stroke="#52595E" stroke-width="0.5" stroke-miterlimit="10"/>
<rect width="80" height="80" transform="translate(2240.25 0.25)" fill="#151B1E"/>
<path d="M2320.25 0.25H2240.25V80.25H2320.25V0.25Z" stroke="#52595E" stroke-width="0.5" stroke-miterlimit="10"/>
<rect width="80" height="80" transform="translate(2320.25 0.25)" fill="#151B1E"/>
<path d="M2400.25 0.25H2320.25V80.25H2400.25V0.25Z" stroke="#52595E" stroke-width="0.5" stroke-miterlimit="10"/>
<rect width="80" height="80" transform="translate(2400.25 0.25)" fill="#151B1E"/>
<path d="M2480.25 0.25H2400.25V80.25H2480.25V0.25Z" stroke="#52595E" stroke-width="0.5" stroke-miterlimit="10"/>
<rect width="80" height="80" transform="translate(2480.25 0.25)" fill="#151B1E"/>
<path d="M2560.25 0.25H2480.25V80.25H2560.25V0.25Z" stroke="#52595E" stroke-width="0.5" stroke-miterlimit="10"/>
<rect width="80" height="80" transform="translate(1920.25 80.25)" fill="#151B1E"/>
<path d="M2000.25 80.25H1920.25V160.25H2000.25V80.25Z" stroke="#52595E" stroke-width="0.5" stroke-miterlimit="10"/>
<rect width="80" height="80" transform="translate(2000.25 80.25)" fill="#151B1E"/>
<path d="M2080.25 80.25H2000.25V160.25H2080.25V80.25Z" stroke="#52595E" stroke-width="0.5" stroke-miterlimit="10"/>
<rect width="80" height="80" transform="translate(2080.25 80.25)" fill="#151B1E"/>
<path d="M2160.25 80.25H2080.25V160.25H2160.25V80.25Z" stroke="#52595E" stroke-width="0.5" stroke-miterlimit="10"/>
<rect width="80" height="80" transform="translate(2160.25 80.25)" fill="#151B1E"/>
<path d="M2240.25 80.25H2160.25V160.25H2240.25V80.25Z" stroke="#52595E" stroke-width="0.5" stroke-miterlimit="10"/>
<rect width="80" height="80" transform="translate(2240.25 80.25)" fill="#151B1E"/>
<path d="M2320.25 80.25H2240.25V160.25H2320.25V80.25Z" stroke="#52595E" stroke-width="0.5" stroke-miterlimit="10"/>
<rect width="80" height="80" transform="translate(2320.25 80.25)" fill="#151B1E"/>
<path d="M2400.25 80.25H2320.25V160.25H2400.25V80.25Z" stroke="#52595E" stroke-width="0.5" stroke-miterlimit="10"/>
<rect width="80" height="80" transform="translate(2400.25 80.25)" fill="#151B1E"/>
<path d="M2480.25 80.25H2400.25V160.25H2480.25V80.25Z" stroke="#52595E" stroke-width="0.5" stroke-miterlimit="10"/>
<rect width="80" height="80" transform="translate(2480.25 80.25)" fill="#151B1E"/>
<path d="M2560.25 80.25H2480.25V160.25H2560.25V80.25Z" stroke="#52595E" stroke-width="0.5" stroke-miterlimit="10"/>
<rect width="80" height="80" transform="translate(1920.25 160.25)" fill="#151B1E"/>
<path d="M2000.25 160.25H1920.25V240.25H2000.25V160.25Z" stroke="#52595E" stroke-width="0.5" stroke-miterlimit="10"/>
<rect width="80" height="80" transform="translate(2000.25 160.25)" fill="#151B1E"/>
<path d="M2080.25 160.25H2000.25V240.25H2080.25V160.25Z" stroke="#52595E" stroke-width="0.5" stroke-miterlimit="10"/>
<rect width="80" height="80" transform="translate(2080.25 160.25)" fill="#151B1E"/>
<path d="M2160.25 160.25H2080.25V240.25H2160.25V160.25Z" stroke="#52595E" stroke-width="0.5" stroke-miterlimit="10"/>
<rect width="80" height="80" transform="translate(2160.25 160.25)" fill="#151B1E"/>
<path d="M2240.25 160.25H2160.25V240.25H2240.25V160.25Z" stroke="#52595E" stroke-width="0.5" stroke-miterlimit="10"/>
<rect width="80" height="80" transform="translate(2240.25 160.25)" fill="#151B1E"/>
<path d="M2320.25 160.25H2240.25V240.25H2320.25V160.25Z" stroke="#52595E" stroke-width="0.5" stroke-miterlimit="10"/>
<rect width="80" height="80" transform="translate(2320.25 160.25)" fill="#151B1E"/>
<path d="M2400.25 160.25H2320.25V240.25H2400.25V160.25Z" stroke="#52595E" stroke-width="0.5" stroke-miterlimit="10"/>
<rect width="80" height="80" transform="translate(2400.25 160.25)" fill="#151B1E"/>
<path d="M2480.25 160.25H2400.25V240.25H2480.25V160.25Z" stroke="#52595E" stroke-width="0.5" stroke-miterlimit="10"/>
<rect width="80" height="80" transform="translate(2480.25 160.25)" fill="#151B1E"/>
<path d="M2560.25 160.25H2480.25V240.25H2560.25V160.25Z" stroke="#52595E" stroke-width="0.5" stroke-miterlimit="10"/>
<rect width="80" height="80" transform="translate(1920.25 240.25)" fill="#151B1E"/>
<path d="M2000.25 240.25H1920.25V320.25H2000.25V240.25Z" stroke="#52595E" stroke-width="0.5" stroke-miterlimit="10"/>
<rect width="80" height="80" transform="translate(2000.25 240.25)" fill="#151B1E"/>
<path d="M2080.25 240.25H2000.25V320.25H2080.25V240.25Z" stroke="#52595E" stroke-width="0.5" stroke-miterlimit="10"/>
<rect width="80" height="80" transform="translate(2080.25 240.25)" fill="#151B1E"/>
<path d="M2160.25 240.25H2080.25V320.25H2160.25V240.25Z" stroke="#52595E" stroke-width="0.5" stroke-miterlimit="10"/>
<rect width="80" height="80" transform="translate(2160.25 240.25)" fill="#151B1E"/>
<path d="M2240.25 240.25H2160.25V320.25H2240.25V240.25Z" stroke="#52595E" stroke-width="0.5" stroke-miterlimit="10"/>
<rect width="80" height="80" transform="translate(2240.25 240.25)" fill="#151B1E"/>
<path d="M2320.25 240.25H2240.25V320.25H2320.25V240.25Z" stroke="#52595E" stroke-width="0.5" stroke-miterlimit="10"/>
<rect width="80" height="80" transform="translate(2320.25 240.25)" fill="#151B1E"/>
<path d="M2400.25 240.25H2320.25V320.25H2400.25V240.25Z" stroke="#52595E" stroke-width="0.5" stroke-miterlimit="10"/>
<rect width="80" height="80" transform="translate(2400.25 240.25)" fill="#151B1E"/>
<path d="M2480.25 240.25H2400.25V320.25H2480.25V240.25Z" stroke="#52595E" stroke-width="0.5" stroke-miterlimit="10"/>
<rect width="80" height="80" transform="translate(2480.25 240.25)" fill="#151B1E"/>
<path d="M2560.25 240.25H2480.25V320.25H2560.25V240.25Z" stroke="#52595E" stroke-width="0.5" stroke-miterlimit="10"/>
<rect width="80" height="80" transform="translate(1920.25 320.25)" fill="#151B1E"/>
<path d="M2000.25 320.25H1920.25V400.25H2000.25V320.25Z" stroke="#52595E" stroke-width="0.5" stroke-miterlimit="10"/>
<rect width="80" height="80" transform="translate(2000.25 320.25)" fill="#151B1E"/>
<path d="M2080.25 320.25H2000.25V400.25H2080.25V320.25Z" stroke="#52595E" stroke-width="0.5" stroke-miterlimit="10"/>
<rect width="80" height="80" transform="translate(2080.25 320.25)" fill="#151B1E"/>
<path d="M2160.25 320.25H2080.25V400.25H2160.25V320.25Z" stroke="#52595E" stroke-width="0.5" stroke-miterlimit="10"/>
<rect width="80" height="80" transform="translate(2160.25 320.25)" fill="#151B1E"/>
<path d="M2240.25 320.25H2160.25V400.25H2240.25V320.25Z" stroke="#52595E" stroke-width="0.5" stroke-miterlimit="10"/>
<rect width="80" height="80" transform="translate(2240.25 320.25)" fill="#151B1E"/>
<path d="M2320.25 320.25H2240.25V400.25H2320.25V320.25Z" stroke="#52595E" stroke-width="0.5" stroke-miterlimit="10"/>
<rect width="80" height="80" transform="translate(2320.25 320.25)" fill="#151B1E"/>
<path d="M2400.25 320.25H2320.25V400.25H2400.25V320.25Z" stroke="#52595E" stroke-width="0.5" stroke-miterlimit="10"/>
<rect width="80" height="80" transform="translate(2400.25 320.25)" fill="#151B1E"/>
<path d="M2480.25 320.25H2400.25V400.25H2480.25V320.25Z" stroke="#52595E" stroke-width="0.5" stroke-miterlimit="10"/>
<rect width="80" height="80" transform="translate(2480.25 320.25)" fill="#151B1E"/>
<path d="M2560.25 320.25H2480.25V400.25H2560.25V320.25Z" stroke="#52595E" stroke-width="0.5" stroke-miterlimit="10"/>
<rect width="80" height="80" transform="translate(1920.25 400.25)" fill="#151B1E"/>
<path d="M2000.25 400.25H1920.25V480.25H2000.25V400.25Z" stroke="#52595E" stroke-width="0.5" stroke-miterlimit="10"/>
<rect width="80" height="80" transform="translate(2000.25 400.25)" fill="#151B1E"/>
<path d="M2080.25 400.25H2000.25V480.25H2080.25V400.25Z" stroke="#52595E" stroke-width="0.5" stroke-miterlimit="10"/>
<rect width="80" height="80" transform="translate(2080.25 400.25)" fill="#151B1E"/>
<path d="M2160.25 400.25H2080.25V480.25H2160.25V400.25Z" stroke="#52595E" stroke-width="0.5" stroke-miterlimit="10"/>
<rect width="80" height="80" transform="translate(2160.25 400.25)" fill="#151B1E"/>
<path d="M2240.25 400.25H2160.25V480.25H2240.25V400.25Z" stroke="#52595E" stroke-width="0.5" stroke-miterlimit="10"/>
<rect width="80" height="80" transform="translate(2240.25 400.25)" fill="#151B1E"/>
<path d="M2320.25 400.25H2240.25V480.25H2320.25V400.25Z" stroke="#52595E" stroke-width="0.5" stroke-miterlimit="10"/>
<rect width="80" height="80" transform="translate(2320.25 400.25)" fill="#151B1E"/>
<path d="M2400.25 400.25H2320.25V480.25H2400.25V400.25Z" stroke="#52595E" stroke-width="0.5" stroke-miterlimit="10"/>
<rect width="80" height="80" transform="translate(2400.25 400.25)" fill="#151B1E"/>
<path d="M2480.25 400.25H2400.25V480.25H2480.25V400.25Z" stroke="#52595E" stroke-width="0.5" stroke-miterlimit="10"/>
<rect width="80" height="80" transform="translate(2480.25 400.25)" fill="#151B1E"/>
<path d="M2560.25 400.25H2480.25V480.25H2560.25V400.25Z" stroke="#52595E" stroke-width="0.5" stroke-miterlimit="10"/>
<rect width="80" height="80" transform="translate(1920.25 480.25)" fill="#151B1E"/>
<path d="M2000.25 480.25H1920.25V560.25H2000.25V480.25Z" stroke="#52595E" stroke-width="0.5" stroke-miterlimit="10"/>
<rect width="80" height="80" transform="translate(2000.25 480.25)" fill="#151B1E"/>
<path d="M2080.25 480.25H2000.25V560.25H2080.25V480.25Z" stroke="#52595E" stroke-width="0.5" stroke-miterlimit="10"/>
<rect width="80" height="80" transform="translate(2080.25 480.25)" fill="#151B1E"/>
<path d="M2160.25 480.25H2080.25V560.25H2160.25V480.25Z" stroke="#52595E" stroke-width="0.5" stroke-miterlimit="10"/>
<rect width="80" height="80" transform="translate(2160.25 480.25)" fill="#151B1E"/>
<path d="M2240.25 480.25H2160.25V560.25H2240.25V480.25Z" stroke="#52595E" stroke-width="0.5" stroke-miterlimit="10"/>
<rect width="80" height="80" transform="translate(2240.25 480.25)" fill="#151B1E"/>
<path d="M2320.25 480.25H2240.25V560.25H2320.25V480.25Z" stroke="#52595E" stroke-width="0.5" stroke-miterlimit="10"/>
<rect width="80" height="80" transform="translate(2320.25 480.25)" fill="#151B1E"/>
<path d="M2400.25 480.25H2320.25V560.25H2400.25V480.25Z" stroke="#52595E" stroke-width="0.5" stroke-miterlimit="10"/>
<rect width="80" height="80" transform="translate(2400.25 480.25)" fill="#151B1E"/>
<path d="M2480.25 480.25H2400.25V560.25H2480.25V480.25Z" stroke="#52595E" stroke-width="0.5" stroke-miterlimit="10"/>
<rect width="80" height="80" transform="translate(2480.25 480.25)" fill="#151B1E"/>
<path d="M2560.25 480.25H2480.25V560.25H2560.25V480.25Z" stroke="#52595E" stroke-width="0.5" stroke-miterlimit="10"/>
<rect width="80" height="80" transform="translate(1920.25 560.25)" fill="#151B1E"/>
<path d="M2000.25 560.25H1920.25V640.25H2000.25V560.25Z" stroke="#52595E" stroke-width="0.5" stroke-miterlimit="10"/>
<rect width="80" height="80" transform="translate(2000.25 560.25)" fill="#151B1E"/>
<path d="M2080.25 560.25H2000.25V640.25H2080.25V560.25Z" stroke="#52595E" stroke-width="0.5" stroke-miterlimit="10"/>
<rect width="80" height="80" transform="translate(2080.25 560.25)" fill="#151B1E"/>
<path d="M2160.25 560.25H2080.25V640.25H2160.25V560.25Z" stroke="#52595E" stroke-width="0.5" stroke-miterlimit="10"/>
<rect width="80" height="80" transform="translate(2160.25 560.25)" fill="#151B1E"/>
<path d="M2240.25 560.25H2160.25V640.25H2240.25V560.25Z" stroke="#52595E" stroke-width="0.5" stroke-miterlimit="10"/>
<rect width="80" height="80" transform="translate(2240.25 560.25)" fill="#151B1E"/>
<path d="M2320.25 560.25H2240.25V640.25H2320.25V560.25Z" stroke="#52595E" stroke-width="0.5" stroke-miterlimit="10"/>
<rect width="80" height="80" transform="translate(2320.25 560.25)" fill="#151B1E"/>
<path d="M2400.25 560.25H2320.25V640.25H2400.25V560.25Z" stroke="#52595E" stroke-width="0.5" stroke-miterlimit="10"/>
<rect width="80" height="80" transform="translate(2400.25 560.25)" fill="#151B1E"/>
<path d="M2480.25 560.25H2400.25V640.25H2480.25V560.25Z" stroke="#52595E" stroke-width="0.5" stroke-miterlimit="10"/>
<rect width="80" height="80" transform="translate(2480.25 560.25)" fill="#151B1E"/>
<path d="M2560.25 560.25H2480.25V640.25H2560.25V560.25Z" stroke="#52595E" stroke-width="0.5" stroke-miterlimit="10"/>
<rect width="160" height="160" transform="translate(2560.25 0.25)" fill="#151B1E"/>
<path d="M2720.25 0.25H2560.25V160.25H2720.25V0.25Z" stroke="#52595E" stroke-width="0.5" stroke-miterlimit="10"/>
<rect width="160" height="160" transform="translate(2720.25 0.25)" fill="#151B1E"/>
<path d="M2880.25 0.25H2720.25V160.25H2880.25V0.25Z" stroke="#52595E" stroke-width="0.5" stroke-miterlimit="10"/>
<rect width="160" height="160" transform="translate(2880.25 0.25)" fill="#151B1E"/>
<path d="M3040.25 0.25H2880.25V160.25H3040.25V0.25Z" stroke="#52595E" stroke-width="0.5" stroke-miterlimit="10"/>
<rect width="160" height="160" transform="translate(3040.25 0.25)" fill="#151B1E"/>
<path d="M3200.25 0.25H3040.25V160.25H3200.25V0.25Z" stroke="#52595E" stroke-width="0.5" stroke-miterlimit="10"/>
<rect width="160" height="160" transform="translate(2560.25 160.25)" fill="#151B1E"/>
<path d="M2720.25 160.25H2560.25V320.25H2720.25V160.25Z" stroke="#52595E" stroke-width="0.5" stroke-miterlimit="10"/>
<rect width="160" height="160" transform="translate(2720.25 160.25)" fill="#151B1E"/>
<path d="M2880.25 160.25H2720.25V320.25H2880.25V160.25Z" stroke="#52595E" stroke-width="0.5" stroke-miterlimit="10"/>
<rect width="160" height="160" transform="translate(2880.25 160.25)" fill="#151B1E"/>
<path d="M3040.25 160.25H2880.25V320.25H3040.25V160.25Z" stroke="#52595E" stroke-width="0.5" stroke-miterlimit="10"/>
<rect width="160" height="160" transform="translate(3040.25 160.25)" fill="#151B1E"/>
<path d="M3200.25 160.25H3040.25V320.25H3200.25V160.25Z" stroke="#52595E" stroke-width="0.5" stroke-miterlimit="10"/>
<rect width="160" height="160" transform="translate(2560.25 320.25)" fill="#151B1E"/>
<path d="M2720.25 320.25H2560.25V480.25H2720.25V320.25Z" stroke="#52595E" stroke-width="0.5" stroke-miterlimit="10"/>
<rect width="160" height="160" transform="translate(2720.25 320.25)" fill="#151B1E"/>
<path d="M2880.25 320.25H2720.25V480.25H2880.25V320.25Z" stroke="#52595E" stroke-width="0.5" stroke-miterlimit="10"/>
<rect width="160" height="160" transform="translate(2880.25 320.25)" fill="#151B1E"/>
<path d="M3040.25 320.25H2880.25V480.25H3040.25V320.25Z" stroke="#52595E" stroke-width="0.5" stroke-miterlimit="10"/>
<rect width="160" height="160" transform="translate(3040.25 320.25)" fill="#151B1E"/>
<path d="M3200.25 320.25H3040.25V480.25H3200.25V320.25Z" stroke="#52595E" stroke-width="0.5" stroke-miterlimit="10"/>
<rect width="160" height="160" transform="translate(2560.25 480.25)" fill="#151B1E"/>
<path d="M2720.25 480.25H2560.25V640.25H2720.25V480.25Z" stroke="#52595E" stroke-width="0.5" stroke-miterlimit="10"/>
<rect width="160" height="160" transform="translate(2720.25 480.25)" fill="#151B1E"/>
<path d="M2880.25 480.25H2720.25V640.25H2880.25V480.25Z" stroke="#52595E" stroke-width="0.5" stroke-miterlimit="10"/>
<rect width="160" height="160" transform="translate(2880.25 480.25)" fill="#151B1E"/>
<path d="M3040.25 480.25H2880.25V640.25H3040.25V480.25Z" stroke="#52595E" stroke-width="0.5" stroke-miterlimit="10"/>
<rect width="160" height="160" transform="translate(3040.25 480.25)" fill="#151B1E"/>
<path d="M3200.25 480.25H3040.25V640.25H3200.25V480.25Z" stroke="#52595E" stroke-width="0.5" stroke-miterlimit="10"/>
<rect x="2480.25" y="480.25" width="80" height="80" fill="#00AEEF"/>
<circle cx="2440.25" cy="600.25" r="40" fill="#3D454B"/>
<rect x="2480.25" y="560.25" width="80" height="80" fill="#3D454B"/>
<circle cx="2520.25" cy="120.25" r="40" fill="#00AEEF"/>
<rect x="2400.25" y="0.25" width="80" height="80" fill="#3D454B"/>
<path fill-rule="evenodd" clip-rule="evenodd" d="M1920.25 320.25L2080.25 320.25C2080.25 231.88 2151.88 160.25 2240.25 160.25L2240.25 0.249986C2063.52 0.249994 1920.25 143.52 1920.25 320.25Z" fill="#00AEEF"/>
<path fill-rule="evenodd" clip-rule="evenodd" d="M1600.25 160.25L1520.25 160.25C1520.25 204.435 1484.43 240.25 1440.25 240.25L1440.25 320.25C1528.61 320.25 1600.25 248.615 1600.25 160.25Z" fill="#3D454B"/>
<circle cx="1840.25" cy="240.25" r="80" fill="#00AEEF"/>
<path fill-rule="evenodd" clip-rule="evenodd" d="M1760.25 640.25L1760.25 560.25C1716.07 560.25 1680.25 524.435 1680.25 480.25L1600.25 480.25C1600.25 568.615 1671.89 640.25 1760.25 640.25Z" fill="#00AEEF"/>
<path fill-rule="evenodd" clip-rule="evenodd" d="M2400.25 320.25L2320.25 320.25C2320.25 364.435 2284.43 400.25 2240.25 400.25L2240.25 480.25C2328.61 480.25 2400.25 408.615 2400.25 320.25Z" fill="#3D454B"/>
<rect x="1920.25" y="480.25" width="160" height="160" fill="#00AEEF"/>
<circle cx="2160.25" cy="560.25" r="80" fill="#00AEEF"/>
<rect x="1600.25" y="0.25" width="160" height="160" fill="#00AEEF"/>
<circle cx="1840.25" cy="80.25" r="80" fill="#3D454B"/>
</svg>
