<svg width="1152" height="666" viewBox="0 0 1152 666" fill="none" xmlns="http://www.w3.org/2000/svg">
<rect y="0.463577" width="464.219" height="464.219" transform="matrix(0.886057 0.463577 -0.886057 0.463577 548.922 234.763)" fill="none" stroke="#0067B4"/>
<rect y="0.463577" width="464.219" height="464.219" transform="matrix(0.886057 0.463577 -0.886057 0.463577 548.922 133.925)" fill="none" stroke="#0067B4"/>
<rect y="0.463577" width="464.219" height="464.219" transform="matrix(0.886057 0.463577 -0.886057 0.463577 548.922 126.925)" fill="none" stroke="#0067B4"/>
<rect y="0.463577" width="464.219" height="464.219" transform="matrix(0.886057 0.463577 -0.886057 0.463577 548.922 118.925)" fill="none" stroke="#0067B4"/>
<rect y="0.463577" width="464.219" height="464.219" transform="matrix(0.886057 0.463577 -0.886057 0.463577 548.922 110.925)" fill="none" stroke="#0067B4"/>
<rect y="0.463577" width="464.219" height="464.219" transform="matrix(0.886057 0.463577 -0.886057 0.463577 548.922 33.0868)" fill="none" stroke="#0067B4"/>
<rect y="0.463577" width="464.219" height="464.219" transform="matrix(0.886057 0.463577 -0.886057 0.463577 548.932 0.248673)" stroke="#0067B4" stroke-dasharray="8 8"/>
<path d="M994.149 446.179H992.916C992.843 445.825 992.715 445.513 992.533 445.245C992.354 444.976 992.135 444.751 991.877 444.569C991.622 444.383 991.338 444.244 991.027 444.151C990.715 444.058 990.39 444.012 990.052 444.012C989.436 444.012 988.877 444.168 988.377 444.479C987.88 444.791 987.484 445.25 987.189 445.856C986.897 446.463 986.751 447.207 986.751 448.089C986.751 448.97 986.897 449.714 987.189 450.321C987.484 450.927 987.88 451.386 988.377 451.698C988.877 452.009 989.436 452.165 990.052 452.165C990.39 452.165 990.715 452.119 991.027 452.026C991.338 451.933 991.622 451.796 991.877 451.613C992.135 451.428 992.354 451.201 992.533 450.932C992.715 450.661 992.843 450.349 992.916 449.998H994.149C994.056 450.518 993.887 450.984 993.642 451.395C993.396 451.806 993.092 452.155 992.727 452.444C992.362 452.729 991.953 452.946 991.499 453.095C991.048 453.244 990.566 453.319 990.052 453.319C989.184 453.319 988.412 453.107 987.735 452.682C987.059 452.258 986.527 451.655 986.14 450.873C985.752 450.09 985.558 449.162 985.558 448.089C985.558 447.015 985.752 446.087 986.14 445.304C986.527 444.522 987.059 443.919 987.735 443.495C988.412 443.071 989.184 442.858 990.052 442.858C990.566 442.858 991.048 442.933 991.499 443.082C991.953 443.231 992.362 443.45 992.727 443.738C993.092 444.023 993.396 444.371 993.642 444.782C993.887 445.19 994.056 445.656 994.149 446.179ZM998.229 453.358C997.745 453.358 997.306 453.267 996.912 453.085C996.517 452.899 996.204 452.633 995.972 452.285C995.74 451.933 995.624 451.509 995.624 451.012C995.624 450.574 995.71 450.22 995.883 449.948C996.055 449.673 996.285 449.457 996.574 449.302C996.862 449.146 997.18 449.03 997.528 448.954C997.88 448.874 998.233 448.811 998.587 448.765C999.051 448.705 999.427 448.66 999.716 448.63C1000.01 448.597 1000.22 448.543 1000.35 448.466C1000.49 448.39 1000.56 448.258 1000.56 448.069V448.029C1000.56 447.538 1000.42 447.157 1000.15 446.885C999.888 446.614 999.485 446.478 998.945 446.478C998.385 446.478 997.946 446.6 997.628 446.846C997.309 447.091 997.086 447.353 996.956 447.631L995.843 447.233C996.042 446.769 996.307 446.408 996.638 446.15C996.973 445.888 997.338 445.705 997.732 445.603C998.13 445.497 998.521 445.444 998.905 445.444C999.151 445.444 999.432 445.473 999.751 445.533C1000.07 445.589 1000.38 445.707 1000.68 445.886C1000.98 446.065 1001.23 446.335 1001.43 446.696C1001.63 447.058 1001.73 447.542 1001.73 448.148V453.179H1000.56V452.145H1000.5C1000.42 452.311 1000.28 452.488 1000.1 452.677C999.913 452.866 999.666 453.027 999.358 453.16C999.05 453.292 998.673 453.358 998.229 453.358ZM998.408 452.304C998.872 452.304 999.263 452.213 999.581 452.031C999.903 451.849 1000.14 451.613 1000.31 451.325C1000.47 451.037 1000.56 450.733 1000.56 450.415V449.341C1000.51 449.401 1000.4 449.456 1000.23 449.505C1000.06 449.552 999.87 449.593 999.651 449.63C999.436 449.663 999.225 449.693 999.02 449.719C998.818 449.742 998.653 449.762 998.528 449.779C998.223 449.819 997.938 449.883 997.672 449.973C997.411 450.059 997.198 450.19 997.036 450.366C996.877 450.538 996.797 450.773 996.797 451.071C996.797 451.479 996.948 451.787 997.25 451.996C997.555 452.202 997.941 452.304 998.408 452.304ZM1005.04 448.586V453.179H1003.87V445.543H1005V446.736H1005.1C1005.28 446.348 1005.55 446.037 1005.92 445.802C1006.28 445.563 1006.75 445.444 1007.33 445.444C1007.85 445.444 1008.3 445.55 1008.69 445.762C1009.08 445.971 1009.38 446.289 1009.59 446.716C1009.81 447.141 1009.92 447.678 1009.92 448.327V453.179H1008.74V448.407C1008.74 447.807 1008.59 447.339 1008.28 447.005C1007.96 446.667 1007.54 446.498 1006.99 446.498C1006.62 446.498 1006.28 446.579 1005.99 446.741C1005.7 446.904 1005.47 447.141 1005.3 447.452C1005.13 447.764 1005.04 448.142 1005.04 448.586ZM1018.03 445.543L1015.21 453.179H1014.01L1011.19 445.543H1012.46L1014.57 451.628H1014.65L1016.76 445.543H1018.03ZM1021.59 453.358C1021.11 453.358 1020.67 453.267 1020.28 453.085C1019.88 452.899 1019.57 452.633 1019.34 452.285C1019.11 451.933 1018.99 451.509 1018.99 451.012C1018.99 450.574 1019.08 450.22 1019.25 449.948C1019.42 449.673 1019.65 449.457 1019.94 449.302C1020.23 449.146 1020.55 449.03 1020.89 448.954C1021.24 448.874 1021.6 448.811 1021.95 448.765C1022.42 448.705 1022.79 448.66 1023.08 448.63C1023.37 448.597 1023.58 448.543 1023.72 448.466C1023.85 448.39 1023.92 448.258 1023.92 448.069V448.029C1023.92 447.538 1023.79 447.157 1023.52 446.885C1023.25 446.614 1022.85 446.478 1022.31 446.478C1021.75 446.478 1021.31 446.6 1020.99 446.846C1020.67 447.091 1020.45 447.353 1020.32 447.631L1019.21 447.233C1019.41 446.769 1019.67 446.408 1020 446.15C1020.34 445.888 1020.7 445.705 1021.1 445.603C1021.5 445.497 1021.89 445.444 1022.27 445.444C1022.52 445.444 1022.8 445.473 1023.12 445.533C1023.44 445.589 1023.75 445.707 1024.05 445.886C1024.35 446.065 1024.6 446.335 1024.8 446.696C1025 447.058 1025.09 447.542 1025.09 448.148V453.179H1023.92V452.145H1023.86C1023.78 452.311 1023.65 452.488 1023.46 452.677C1023.28 452.866 1023.03 453.027 1022.72 453.16C1022.41 453.292 1022.04 453.358 1021.59 453.358ZM1021.77 452.304C1022.24 452.304 1022.63 452.213 1022.95 452.031C1023.27 451.849 1023.51 451.613 1023.67 451.325C1023.84 451.037 1023.92 450.733 1023.92 450.415V449.341C1023.87 449.401 1023.76 449.456 1023.59 449.505C1023.43 449.552 1023.24 449.593 1023.02 449.63C1022.8 449.663 1022.59 449.693 1022.38 449.719C1022.18 449.742 1022.02 449.762 1021.89 449.779C1021.59 449.819 1021.3 449.883 1021.04 449.973C1020.78 450.059 1020.56 450.19 1020.4 450.366C1020.24 450.538 1020.16 450.773 1020.16 451.071C1020.16 451.479 1020.31 451.787 1020.62 451.996C1020.92 452.202 1021.31 452.304 1021.77 452.304ZM1032.65 447.253L1031.59 447.552C1031.52 447.376 1031.43 447.205 1031.3 447.04C1031.17 446.87 1031 446.731 1030.78 446.622C1030.56 446.513 1030.28 446.458 1029.94 446.458C1029.47 446.458 1029.08 446.566 1028.77 446.781C1028.46 446.993 1028.31 447.263 1028.31 447.591C1028.31 447.883 1028.42 448.113 1028.63 448.282C1028.84 448.451 1029.17 448.592 1029.62 448.705L1030.76 448.983C1031.44 449.149 1031.95 449.403 1032.28 449.744C1032.62 450.082 1032.78 450.518 1032.78 451.052C1032.78 451.489 1032.66 451.88 1032.41 452.225C1032.16 452.57 1031.81 452.841 1031.36 453.04C1030.91 453.239 1030.39 453.339 1029.8 453.339C1029.02 453.339 1028.38 453.17 1027.87 452.831C1027.36 452.493 1027.03 452 1026.9 451.35L1028.01 451.071C1028.12 451.482 1028.32 451.791 1028.61 451.996C1028.91 452.202 1029.3 452.304 1029.78 452.304C1030.33 452.304 1030.76 452.188 1031.08 451.956C1031.41 451.721 1031.57 451.439 1031.57 451.111C1031.57 450.846 1031.48 450.624 1031.29 450.445C1031.11 450.263 1030.82 450.127 1030.44 450.037L1029.16 449.739C1028.47 449.573 1027.95 449.317 1027.62 448.969C1027.3 448.617 1027.14 448.178 1027.14 447.651C1027.14 447.22 1027.26 446.839 1027.5 446.508C1027.74 446.176 1028.08 445.916 1028.5 445.727C1028.92 445.538 1029.4 445.444 1029.94 445.444C1030.7 445.444 1031.29 445.609 1031.72 445.941C1032.15 446.272 1032.46 446.71 1032.65 447.253Z" fill="#0067B4"/>
<path d="M994.159 335.341H992.926C992.853 334.987 992.725 334.675 992.543 334.407C992.364 334.138 992.145 333.913 991.887 333.731C991.631 333.545 991.348 333.406 991.036 333.313C990.725 333.22 990.4 333.174 990.062 333.174C989.445 333.174 988.887 333.329 988.387 333.641C987.889 333.953 987.493 334.412 987.198 335.018C986.907 335.625 986.761 336.369 986.761 337.25C986.761 338.132 986.907 338.876 987.198 339.483C987.493 340.089 987.889 340.548 988.387 340.86C988.887 341.171 989.445 341.327 990.062 341.327C990.4 341.327 990.725 341.281 991.036 341.188C991.348 341.095 991.631 340.958 991.887 340.775C992.145 340.59 992.364 340.363 992.543 340.094C992.725 339.822 992.853 339.511 992.926 339.159H994.159C994.066 339.68 993.897 340.146 993.651 340.557C993.406 340.967 993.101 341.317 992.737 341.606C992.372 341.891 991.963 342.108 991.509 342.257C991.058 342.406 990.576 342.481 990.062 342.481C989.194 342.481 988.421 342.268 987.745 341.844C987.069 341.42 986.537 340.817 986.149 340.034C985.762 339.252 985.568 338.324 985.568 337.25C985.568 336.177 985.762 335.249 986.149 334.466C986.537 333.684 987.069 333.081 987.745 332.657C988.421 332.232 989.194 332.02 990.062 332.02C990.576 332.02 991.058 332.095 991.509 332.244C991.963 332.393 992.372 332.612 992.737 332.9C993.101 333.185 993.406 333.533 993.651 333.944C993.897 334.352 994.066 334.818 994.159 335.341ZM999.094 342.5C998.405 342.5 997.8 342.336 997.279 342.008C996.762 341.68 996.358 341.221 996.066 340.631C995.778 340.041 995.634 339.352 995.634 338.563C995.634 337.767 995.778 337.073 996.066 336.48C996.358 335.887 996.762 335.426 997.279 335.098C997.8 334.77 998.405 334.606 999.094 334.606C999.783 334.606 1000.39 334.77 1000.9 335.098C1001.42 335.426 1001.83 335.887 1002.12 336.48C1002.41 337.073 1002.55 337.767 1002.55 338.563C1002.55 339.352 1002.41 340.041 1002.12 340.631C1001.83 341.221 1001.42 341.68 1000.9 342.008C1000.39 342.336 999.783 342.5 999.094 342.5ZM999.094 341.446C999.618 341.446 1000.05 341.312 1000.39 341.044C1000.72 340.775 1000.98 340.422 1001.14 339.985C1001.3 339.547 1001.38 339.073 1001.38 338.563C1001.38 338.052 1001.3 337.577 1001.14 337.136C1000.98 336.695 1000.72 336.339 1000.39 336.067C1000.05 335.795 999.618 335.659 999.094 335.659C998.57 335.659 998.14 335.795 997.801 336.067C997.463 336.339 997.213 336.695 997.051 337.136C996.888 337.577 996.807 338.052 996.807 338.563C996.807 339.073 996.888 339.547 997.051 339.985C997.213 340.422 997.463 340.775 997.801 341.044C998.14 341.312 998.57 341.446 999.094 341.446ZM1005.52 337.748V342.341H1004.35V334.705H1005.48V335.898H1005.58C1005.76 335.51 1006.03 335.199 1006.39 334.963C1006.76 334.725 1007.23 334.606 1007.81 334.606C1008.32 334.606 1008.78 334.712 1009.16 334.924C1009.55 335.133 1009.85 335.451 1010.07 335.878C1010.28 336.302 1010.39 336.839 1010.39 337.489V342.341H1009.22V337.569C1009.22 336.969 1009.06 336.501 1008.75 336.167C1008.44 335.829 1008.01 335.659 1007.47 335.659C1007.09 335.659 1006.76 335.741 1006.46 335.903C1006.17 336.066 1005.94 336.302 1005.77 336.614C1005.6 336.926 1005.52 337.303 1005.52 337.748ZM1015.86 334.705V335.699H1011.9V334.705H1015.86ZM1013.05 332.875H1014.23V340.154C1014.23 340.485 1014.27 340.734 1014.37 340.9C1014.47 341.062 1014.59 341.171 1014.75 341.228C1014.9 341.281 1015.07 341.307 1015.24 341.307C1015.37 341.307 1015.47 341.301 1015.56 341.287C1015.64 341.271 1015.71 341.258 1015.76 341.248L1016 342.302C1015.92 342.331 1015.8 342.361 1015.66 342.391C1015.52 342.424 1015.34 342.441 1015.12 342.441C1014.79 342.441 1014.46 342.369 1014.15 342.227C1013.83 342.084 1013.57 341.867 1013.36 341.576C1013.15 341.284 1013.05 340.916 1013.05 340.472V332.875ZM1019.87 342.52C1019.38 342.52 1018.94 342.429 1018.55 342.247C1018.16 342.061 1017.84 341.794 1017.61 341.446C1017.38 341.095 1017.26 340.671 1017.26 340.174C1017.26 339.736 1017.35 339.382 1017.52 339.11C1017.69 338.835 1017.92 338.619 1018.21 338.463C1018.5 338.308 1018.82 338.192 1019.17 338.115C1019.52 338.036 1019.87 337.973 1020.23 337.927C1020.69 337.867 1021.07 337.822 1021.35 337.792C1021.65 337.759 1021.86 337.704 1021.99 337.628C1022.13 337.552 1022.19 337.419 1022.19 337.231V337.191C1022.19 336.7 1022.06 336.319 1021.79 336.047C1021.53 335.775 1021.12 335.64 1020.58 335.64C1020.02 335.64 1019.58 335.762 1019.27 336.008C1018.95 336.253 1018.72 336.515 1018.6 336.793L1017.48 336.395C1017.68 335.931 1017.95 335.57 1018.28 335.311C1018.61 335.05 1018.98 334.867 1019.37 334.765C1019.77 334.659 1020.16 334.606 1020.54 334.606C1020.79 334.606 1021.07 334.635 1021.39 334.695C1021.71 334.751 1022.02 334.869 1022.32 335.048C1022.62 335.227 1022.87 335.497 1023.07 335.858C1023.27 336.22 1023.37 336.704 1023.37 337.31V342.341H1022.19V341.307H1022.13C1022.06 341.473 1021.92 341.65 1021.74 341.839C1021.55 342.028 1021.3 342.189 1021 342.321C1020.69 342.454 1020.31 342.52 1019.87 342.52ZM1020.05 341.466C1020.51 341.466 1020.9 341.375 1021.22 341.193C1021.54 341.011 1021.78 340.775 1021.95 340.487C1022.11 340.199 1022.19 339.895 1022.19 339.577V338.503C1022.14 338.563 1022.04 338.618 1021.87 338.667C1021.7 338.714 1021.51 338.755 1021.29 338.792C1021.07 338.825 1020.86 338.855 1020.66 338.881C1020.46 338.904 1020.29 338.924 1020.17 338.941C1019.86 338.981 1019.58 339.045 1019.31 339.135C1019.05 339.221 1018.84 339.352 1018.67 339.527C1018.52 339.7 1018.44 339.935 1018.44 340.233C1018.44 340.641 1018.59 340.949 1018.89 341.158C1019.19 341.364 1019.58 341.466 1020.05 341.466ZM1025.51 342.341V334.705H1026.68V342.341H1025.51ZM1026.11 333.432C1025.88 333.432 1025.68 333.354 1025.51 333.199C1025.35 333.043 1025.27 332.856 1025.27 332.637C1025.27 332.418 1025.35 332.231 1025.51 332.075C1025.68 331.919 1025.88 331.841 1026.11 331.841C1026.33 331.841 1026.53 331.919 1026.69 332.075C1026.86 332.231 1026.94 332.418 1026.94 332.637C1026.94 332.856 1026.86 333.043 1026.69 333.199C1026.53 333.354 1026.33 333.432 1026.11 333.432ZM1030 337.748V342.341H1028.83V334.705H1029.97V335.898H1030.06C1030.24 335.51 1030.52 335.199 1030.88 334.963C1031.24 334.725 1031.72 334.606 1032.29 334.606C1032.81 334.606 1033.26 334.712 1033.65 334.924C1034.04 335.133 1034.34 335.451 1034.55 335.878C1034.77 336.302 1034.88 336.839 1034.88 337.489V342.341H1033.7V337.569C1033.7 336.969 1033.55 336.501 1033.24 336.167C1032.92 335.829 1032.5 335.659 1031.95 335.659C1031.58 335.659 1031.24 335.741 1030.95 335.903C1030.66 336.066 1030.43 336.302 1030.26 336.614C1030.09 336.926 1030 337.303 1030 337.748ZM1040.22 342.5C1039.49 342.5 1038.85 342.338 1038.32 342.013C1037.79 341.685 1037.38 341.228 1037.09 340.641C1036.81 340.051 1036.66 339.365 1036.66 338.583C1036.66 337.801 1036.81 337.111 1037.09 336.515C1037.38 335.915 1037.78 335.447 1038.29 335.113C1038.81 334.775 1039.41 334.606 1040.1 334.606C1040.5 334.606 1040.89 334.672 1041.28 334.804C1041.67 334.937 1042.02 335.152 1042.34 335.451C1042.66 335.746 1042.91 336.137 1043.1 336.624C1043.29 337.111 1043.38 337.711 1043.38 338.424V338.921H1037.5V337.907H1042.19C1042.19 337.476 1042.11 337.091 1041.93 336.753C1041.76 336.415 1041.52 336.148 1041.21 335.953C1040.9 335.757 1040.53 335.659 1040.1 335.659C1039.64 335.659 1039.23 335.775 1038.89 336.008C1038.55 336.236 1038.29 336.534 1038.11 336.902C1037.93 337.27 1037.84 337.665 1037.84 338.086V338.762C1037.84 339.338 1037.94 339.827 1038.13 340.228C1038.34 340.626 1038.62 340.929 1038.97 341.138C1039.33 341.344 1039.75 341.446 1040.22 341.446C1040.53 341.446 1040.81 341.403 1041.06 341.317C1041.31 341.228 1041.53 341.095 1041.71 340.919C1041.89 340.74 1042.03 340.518 1042.13 340.253L1043.27 340.571C1043.15 340.956 1042.95 341.294 1042.66 341.586C1042.38 341.874 1042.03 342.099 1041.62 342.262C1041.21 342.421 1040.74 342.5 1040.22 342.5ZM1045.17 342.341V334.705H1046.3V335.858H1046.38C1046.52 335.481 1046.77 335.174 1047.14 334.939C1047.5 334.703 1047.91 334.586 1048.37 334.586C1048.46 334.586 1048.57 334.587 1048.69 334.591C1048.82 334.594 1048.92 334.599 1048.99 334.606V335.799C1048.95 335.789 1048.86 335.774 1048.71 335.754C1048.58 335.731 1048.43 335.719 1048.27 335.719C1047.9 335.719 1047.57 335.797 1047.28 335.953C1046.99 336.105 1046.76 336.317 1046.59 336.589C1046.43 336.858 1046.34 337.164 1046.34 337.509V342.341H1045.17Z" fill="#0067B4"/>
<path d="M991.524 241.867C991.464 241.363 991.222 240.972 990.798 240.693C990.374 240.415 989.853 240.276 989.237 240.276C988.786 240.276 988.392 240.349 988.054 240.494C987.719 240.64 987.457 240.841 987.268 241.096C987.083 241.351 986.99 241.641 986.99 241.966C986.99 242.238 987.054 242.471 987.184 242.667C987.316 242.859 987.485 243.02 987.691 243.149C987.896 243.275 988.112 243.38 988.337 243.462C988.562 243.542 988.77 243.607 988.958 243.656L989.993 243.935C990.258 244.004 990.553 244.1 990.877 244.223C991.206 244.346 991.519 244.513 991.817 244.725C992.119 244.934 992.367 245.203 992.563 245.531C992.758 245.859 992.856 246.261 992.856 246.739C992.856 247.289 992.712 247.786 992.424 248.23C992.139 248.674 991.721 249.027 991.171 249.289C990.624 249.551 989.959 249.682 989.177 249.682C988.448 249.682 987.817 249.564 987.283 249.329C986.753 249.094 986.335 248.765 986.03 248.345C985.729 247.924 985.558 247.435 985.518 246.878H986.791C986.824 247.262 986.953 247.581 987.179 247.832C987.407 248.081 987.696 248.267 988.044 248.389C988.395 248.509 988.773 248.568 989.177 248.568C989.648 248.568 990.07 248.492 990.445 248.34C990.819 248.184 991.116 247.968 991.335 247.693C991.554 247.415 991.663 247.09 991.663 246.719C991.663 246.381 991.569 246.106 991.38 245.894C991.191 245.681 990.942 245.509 990.634 245.377C990.326 245.244 989.993 245.128 989.635 245.028L988.382 244.671C987.586 244.442 986.957 244.115 986.493 243.691C986.029 243.267 985.797 242.712 985.797 242.026C985.797 241.456 985.951 240.958 986.259 240.534C986.57 240.107 986.988 239.775 987.512 239.54C988.039 239.301 988.627 239.182 989.277 239.182C989.933 239.182 990.516 239.3 991.027 239.535C991.537 239.767 991.941 240.085 992.24 240.489C992.541 240.894 992.7 241.353 992.717 241.867H991.524ZM999.537 246.381V241.867H1000.71V249.503H999.537V248.21H999.457C999.278 248.598 999 248.928 998.622 249.2C998.244 249.468 997.767 249.602 997.19 249.602C996.713 249.602 996.289 249.498 995.917 249.289C995.546 249.077 995.255 248.759 995.042 248.335C994.83 247.907 994.724 247.368 994.724 246.719V241.867H995.898V246.639C995.898 247.196 996.053 247.64 996.365 247.972C996.68 248.303 997.081 248.469 997.568 248.469C997.86 248.469 998.156 248.394 998.458 248.245C998.763 248.096 999.018 247.867 999.224 247.559C999.432 247.251 999.537 246.858 999.537 246.381ZM1002.86 249.503V241.867H1003.99V243.02H1004.07C1004.21 242.642 1004.46 242.336 1004.83 242.1C1005.19 241.865 1005.6 241.747 1006.06 241.747C1006.15 241.747 1006.25 241.749 1006.38 241.752C1006.51 241.756 1006.61 241.761 1006.68 241.767V242.96C1006.64 242.95 1006.55 242.935 1006.4 242.916C1006.26 242.892 1006.12 242.881 1005.96 242.881C1005.59 242.881 1005.26 242.959 1004.97 243.114C1004.68 243.267 1004.45 243.479 1004.28 243.751C1004.12 244.019 1004.03 244.326 1004.03 244.671V249.503H1002.86ZM1011.95 241.867V242.861H1007.83V241.867H1011.95ZM1009.06 249.503V240.813C1009.06 240.375 1009.17 240.011 1009.37 239.719C1009.58 239.427 1009.84 239.208 1010.17 239.063C1010.5 238.917 1010.85 238.844 1011.21 238.844C1011.5 238.844 1011.73 238.867 1011.92 238.913C1012.1 238.96 1012.24 239.003 1012.32 239.043L1011.99 240.057C1011.93 240.037 1011.84 240.012 1011.74 239.982C1011.64 239.953 1011.5 239.938 1011.33 239.938C1010.94 239.938 1010.66 240.035 1010.49 240.231C1010.32 240.426 1010.24 240.713 1010.24 241.091V249.503H1009.06ZM1015.62 249.682C1015.14 249.682 1014.7 249.591 1014.3 249.408C1013.91 249.223 1013.59 248.956 1013.36 248.608C1013.13 248.257 1013.01 247.832 1013.01 247.335C1013.01 246.898 1013.1 246.543 1013.27 246.271C1013.45 245.996 1013.68 245.781 1013.96 245.625C1014.25 245.469 1014.57 245.353 1014.92 245.277C1015.27 245.198 1015.62 245.135 1015.98 245.088C1016.44 245.028 1016.82 244.984 1017.11 244.954C1017.4 244.921 1017.61 244.866 1017.74 244.79C1017.88 244.714 1017.95 244.581 1017.95 244.392V244.352C1017.95 243.862 1017.81 243.481 1017.54 243.209C1017.28 242.937 1016.88 242.801 1016.34 242.801C1015.78 242.801 1015.34 242.924 1015.02 243.169C1014.7 243.414 1014.48 243.676 1014.35 243.955L1013.23 243.557C1013.43 243.093 1013.7 242.732 1014.03 242.473C1014.36 242.211 1014.73 242.029 1015.12 241.926C1015.52 241.82 1015.91 241.767 1016.3 241.767C1016.54 241.767 1016.82 241.797 1017.14 241.857C1017.46 241.913 1017.77 242.031 1018.07 242.21C1018.37 242.389 1018.62 242.659 1018.82 243.02C1019.02 243.381 1019.12 243.865 1019.12 244.472V249.503H1017.95V248.469H1017.89C1017.81 248.635 1017.67 248.812 1017.49 249.001C1017.3 249.19 1017.06 249.35 1016.75 249.483C1016.44 249.616 1016.06 249.682 1015.62 249.682ZM1015.8 248.628C1016.26 248.628 1016.65 248.537 1016.97 248.354C1017.29 248.172 1017.54 247.937 1017.7 247.649C1017.86 247.36 1017.95 247.057 1017.95 246.739V245.665C1017.9 245.725 1017.79 245.779 1017.62 245.829C1017.45 245.875 1017.26 245.917 1017.04 245.953C1016.83 245.986 1016.62 246.016 1016.41 246.043C1016.21 246.066 1016.04 246.086 1015.92 246.102C1015.61 246.142 1015.33 246.207 1015.06 246.296C1014.8 246.382 1014.59 246.513 1014.43 246.689C1014.27 246.861 1014.19 247.097 1014.19 247.395C1014.19 247.803 1014.34 248.111 1014.64 248.32C1014.95 248.525 1015.33 248.628 1015.8 248.628ZM1024.36 249.662C1023.65 249.662 1023.03 249.493 1022.51 249.155C1022 248.817 1021.6 248.351 1021.32 247.758C1021.04 247.165 1020.9 246.487 1020.9 245.725C1020.9 244.949 1021.05 244.265 1021.33 243.671C1021.62 243.075 1022.02 242.609 1022.53 242.274C1023.05 241.936 1023.65 241.767 1024.34 241.767C1024.88 241.767 1025.36 241.867 1025.8 242.065C1026.23 242.264 1026.58 242.543 1026.85 242.901C1027.13 243.259 1027.3 243.676 1027.37 244.153H1026.19C1026.1 243.805 1025.9 243.497 1025.6 243.229C1025.29 242.957 1024.88 242.821 1024.36 242.821C1023.91 242.821 1023.51 242.94 1023.16 243.179C1022.82 243.414 1022.55 243.747 1022.36 244.178C1022.17 244.606 1022.08 245.108 1022.08 245.685C1022.08 246.275 1022.17 246.788 1022.36 247.226C1022.54 247.663 1022.81 248.003 1023.15 248.245C1023.5 248.487 1023.9 248.608 1024.36 248.608C1024.67 248.608 1024.95 248.555 1025.19 248.449C1025.44 248.343 1025.65 248.19 1025.83 247.992C1026 247.793 1026.12 247.554 1026.19 247.276H1027.37C1027.3 247.726 1027.14 248.132 1026.87 248.494C1026.62 248.852 1026.27 249.137 1025.85 249.349C1025.42 249.558 1024.93 249.662 1024.36 249.662ZM1032.28 249.662C1031.55 249.662 1030.91 249.5 1030.38 249.175C1029.85 248.847 1029.44 248.389 1029.15 247.803C1028.87 247.213 1028.72 246.527 1028.72 245.744C1028.72 244.962 1028.87 244.273 1029.15 243.676C1029.44 243.076 1029.84 242.609 1030.35 242.274C1030.87 241.936 1031.47 241.767 1032.16 241.767C1032.56 241.767 1032.95 241.833 1033.34 241.966C1033.73 242.099 1034.08 242.314 1034.4 242.612C1034.72 242.907 1034.97 243.298 1035.16 243.786C1035.35 244.273 1035.45 244.873 1035.45 245.585V246.082H1029.56V245.068H1034.25C1034.25 244.637 1034.17 244.253 1033.99 243.915C1033.82 243.577 1033.58 243.31 1033.27 243.114C1032.96 242.919 1032.59 242.821 1032.16 242.821C1031.7 242.821 1031.29 242.937 1030.95 243.169C1030.61 243.398 1030.35 243.696 1030.17 244.064C1029.99 244.432 1029.9 244.826 1029.9 245.247V245.923C1029.9 246.5 1030 246.989 1030.2 247.39C1030.4 247.788 1030.68 248.091 1031.04 248.3C1031.39 248.505 1031.81 248.608 1032.28 248.608C1032.59 248.608 1032.87 248.565 1033.12 248.479C1033.37 248.389 1033.59 248.257 1033.77 248.081C1033.95 247.902 1034.09 247.68 1034.19 247.415L1035.33 247.733C1035.21 248.118 1035.01 248.456 1034.72 248.747C1034.44 249.036 1034.09 249.261 1033.68 249.423C1033.27 249.582 1032.8 249.662 1032.28 249.662Z" fill="#0067B4"/>
<path d="M987.189 209.983V220.165H985.956V209.983H987.189ZM990.675 215.571V220.165H989.502V212.528H990.635V213.722H990.735C990.914 213.334 991.185 213.022 991.55 212.787C991.914 212.548 992.385 212.429 992.962 212.429C993.479 212.429 993.931 212.535 994.319 212.747C994.707 212.956 995.008 213.274 995.224 213.702C995.439 214.126 995.547 214.663 995.547 215.313V220.165H994.374V215.392C994.374 214.792 994.218 214.325 993.906 213.99C993.595 213.652 993.167 213.483 992.624 213.483C992.249 213.483 991.914 213.564 991.619 213.727C991.328 213.889 991.097 214.126 990.928 214.438C990.759 214.749 990.675 215.127 990.675 215.571ZM1001.01 212.528V213.523H997.055V212.528H1001.01ZM998.208 210.699H999.381V217.977C999.381 218.309 999.429 218.557 999.526 218.723C999.625 218.885 999.751 218.995 999.903 219.051C1000.06 219.104 1000.22 219.131 1000.4 219.131C1000.52 219.131 1000.63 219.124 1000.71 219.111C1000.8 219.094 1000.86 219.081 1000.91 219.071L1001.15 220.125C1001.07 220.155 1000.96 220.185 1000.82 220.215C1000.68 220.248 1000.5 220.264 1000.28 220.264C999.945 220.264 999.62 220.193 999.302 220.05C998.987 219.908 998.725 219.691 998.516 219.399C998.311 219.108 998.208 218.74 998.208 218.295V210.699ZM1005.9 220.324C1005.16 220.324 1004.53 220.161 1003.99 219.837C1003.46 219.509 1003.05 219.051 1002.76 218.465C1002.48 217.875 1002.34 217.188 1002.34 216.406C1002.34 215.624 1002.48 214.935 1002.76 214.338C1003.05 213.738 1003.45 213.271 1003.97 212.936C1004.48 212.598 1005.09 212.429 1005.78 212.429C1006.18 212.429 1006.57 212.495 1006.96 212.628C1007.34 212.76 1007.7 212.976 1008.01 213.274C1008.33 213.569 1008.59 213.96 1008.78 214.447C1008.96 214.935 1009.06 215.535 1009.06 216.247V216.744H1003.17V215.73H1007.87C1007.87 215.299 1007.78 214.915 1007.61 214.577C1007.44 214.239 1007.2 213.972 1006.88 213.776C1006.57 213.581 1006.2 213.483 1005.78 213.483C1005.31 213.483 1004.91 213.599 1004.56 213.831C1004.23 214.06 1003.97 214.358 1003.78 214.726C1003.6 215.094 1003.51 215.488 1003.51 215.909V216.585C1003.51 217.162 1003.61 217.651 1003.81 218.052C1004.01 218.45 1004.29 218.753 1004.65 218.962C1005.01 219.167 1005.42 219.27 1005.9 219.27C1006.2 219.27 1006.48 219.227 1006.73 219.141C1006.98 219.051 1007.2 218.919 1007.38 218.743C1007.57 218.564 1007.71 218.342 1007.81 218.077L1008.94 218.395C1008.82 218.779 1008.62 219.117 1008.34 219.409C1008.06 219.697 1007.71 219.923 1007.29 220.085C1006.88 220.244 1006.41 220.324 1005.9 220.324ZM1010.84 220.165V212.528H1011.98V213.682H1012.06C1012.2 213.304 1012.45 212.997 1012.81 212.762C1013.18 212.527 1013.59 212.409 1014.05 212.409C1014.13 212.409 1014.24 212.411 1014.37 212.414C1014.5 212.417 1014.6 212.422 1014.66 212.429V213.622C1014.62 213.612 1014.53 213.597 1014.39 213.577C1014.25 213.554 1014.1 213.543 1013.95 213.543C1013.57 213.543 1013.24 213.621 1012.95 213.776C1012.66 213.929 1012.43 214.141 1012.27 214.413C1012.1 214.681 1012.02 214.988 1012.02 215.332V220.165H1010.84ZM1018.3 220.344C1017.82 220.344 1017.38 220.253 1016.98 220.07C1016.59 219.885 1016.27 219.618 1016.04 219.27C1015.81 218.919 1015.69 218.494 1015.69 217.997C1015.69 217.56 1015.78 217.205 1015.95 216.933C1016.13 216.658 1016.36 216.443 1016.64 216.287C1016.93 216.131 1017.25 216.015 1017.6 215.939C1017.95 215.859 1018.3 215.796 1018.66 215.75C1019.12 215.69 1019.5 215.646 1019.79 215.616C1020.08 215.583 1020.29 215.528 1020.42 215.452C1020.56 215.375 1020.63 215.243 1020.63 215.054V215.014C1020.63 214.524 1020.49 214.143 1020.22 213.871C1019.96 213.599 1019.56 213.463 1019.02 213.463C1018.46 213.463 1018.02 213.586 1017.7 213.831C1017.38 214.076 1017.16 214.338 1017.03 214.616L1015.91 214.219C1016.11 213.755 1016.38 213.393 1016.71 213.135C1017.04 212.873 1017.41 212.691 1017.8 212.588C1018.2 212.482 1018.59 212.429 1018.98 212.429C1019.22 212.429 1019.5 212.459 1019.82 212.518C1020.14 212.575 1020.45 212.692 1020.75 212.871C1021.05 213.05 1021.3 213.321 1021.5 213.682C1021.7 214.043 1021.8 214.527 1021.8 215.134V220.165H1020.63V219.131H1020.57C1020.49 219.296 1020.35 219.474 1020.17 219.663C1019.98 219.852 1019.74 220.012 1019.43 220.145C1019.12 220.277 1018.74 220.344 1018.3 220.344ZM1018.48 219.29C1018.94 219.29 1019.33 219.199 1019.65 219.016C1019.97 218.834 1020.22 218.599 1020.38 218.31C1020.54 218.022 1020.63 217.719 1020.63 217.401V216.327C1020.58 216.386 1020.47 216.441 1020.3 216.491C1020.13 216.537 1019.94 216.579 1019.72 216.615C1019.51 216.648 1019.3 216.678 1019.09 216.705C1018.89 216.728 1018.72 216.748 1018.6 216.764C1018.29 216.804 1018.01 216.869 1017.74 216.958C1017.48 217.044 1017.27 217.175 1017.11 217.351C1016.95 217.523 1016.87 217.759 1016.87 218.057C1016.87 218.465 1017.02 218.773 1017.32 218.982C1017.63 219.187 1018.01 219.29 1018.48 219.29ZM1027.04 220.324C1026.33 220.324 1025.71 220.155 1025.19 219.817C1024.68 219.479 1024.28 219.013 1024 218.42C1023.72 217.826 1023.58 217.149 1023.58 216.386C1023.58 215.611 1023.73 214.926 1024.01 214.333C1024.3 213.737 1024.7 213.271 1025.21 212.936C1025.73 212.598 1026.33 212.429 1027.02 212.429C1027.56 212.429 1028.04 212.528 1028.48 212.727C1028.91 212.926 1029.26 213.205 1029.53 213.563C1029.81 213.92 1029.98 214.338 1030.05 214.815H1028.87C1028.78 214.467 1028.58 214.159 1028.28 213.891C1027.97 213.619 1027.56 213.483 1027.04 213.483C1026.59 213.483 1026.18 213.602 1025.84 213.841C1025.5 214.076 1025.23 214.409 1025.04 214.84C1024.85 215.268 1024.76 215.77 1024.76 216.347C1024.76 216.937 1024.85 217.45 1025.03 217.888C1025.22 218.325 1025.49 218.665 1025.83 218.907C1026.17 219.149 1026.58 219.27 1027.04 219.27C1027.35 219.27 1027.62 219.217 1027.87 219.111C1028.12 219.005 1028.33 218.852 1028.5 218.653C1028.68 218.455 1028.8 218.216 1028.87 217.938H1030.05C1029.98 218.388 1029.82 218.794 1029.55 219.156C1029.3 219.514 1028.95 219.799 1028.52 220.011C1028.1 220.219 1027.61 220.324 1027.04 220.324ZM1035.08 212.528V213.523H1031.12V212.528H1035.08ZM1032.28 210.699H1033.45V217.977C1033.45 218.309 1033.5 218.557 1033.6 218.723C1033.7 218.885 1033.82 218.995 1033.97 219.051C1034.13 219.104 1034.29 219.131 1034.47 219.131C1034.6 219.131 1034.7 219.124 1034.78 219.111C1034.87 219.094 1034.93 219.081 1034.98 219.071L1035.22 220.125C1035.14 220.155 1035.03 220.185 1034.89 220.215C1034.75 220.248 1034.57 220.264 1034.35 220.264C1034.02 220.264 1033.69 220.193 1033.37 220.05C1033.06 219.908 1032.8 219.691 1032.59 219.399C1032.38 219.108 1032.28 218.74 1032.28 218.295V210.699ZM1036.85 220.165V212.528H1038.02V220.165H1036.85ZM1037.44 211.256C1037.22 211.256 1037.02 211.178 1036.85 211.022C1036.69 210.866 1036.61 210.679 1036.61 210.46C1036.61 210.241 1036.69 210.054 1036.85 209.898C1037.02 209.743 1037.22 209.665 1037.44 209.665C1037.67 209.665 1037.87 209.743 1038.03 209.898C1038.2 210.054 1038.28 210.241 1038.28 210.46C1038.28 210.679 1038.2 210.866 1038.03 211.022C1037.87 211.178 1037.67 211.256 1037.44 211.256ZM1046.41 212.528L1043.59 220.165H1042.4L1039.57 212.528H1040.85L1042.95 218.614H1043.03L1045.14 212.528H1046.41ZM1050.89 220.324C1050.16 220.324 1049.52 220.161 1048.99 219.837C1048.46 219.509 1048.05 219.051 1047.76 218.465C1047.47 217.875 1047.33 217.188 1047.33 216.406C1047.33 215.624 1047.47 214.935 1047.76 214.338C1048.05 213.738 1048.45 213.271 1048.96 212.936C1049.48 212.598 1050.08 212.429 1050.77 212.429C1051.17 212.429 1051.56 212.495 1051.95 212.628C1052.34 212.76 1052.69 212.976 1053.01 213.274C1053.33 213.569 1053.58 213.96 1053.77 214.447C1053.96 214.935 1054.05 215.535 1054.05 216.247V216.744H1048.17V215.73H1052.86C1052.86 215.299 1052.77 214.915 1052.6 214.577C1052.43 214.239 1052.19 213.972 1051.88 213.776C1051.56 213.581 1051.2 213.483 1050.77 213.483C1050.3 213.483 1049.9 213.599 1049.56 213.831C1049.22 214.06 1048.96 214.358 1048.78 214.726C1048.6 215.094 1048.5 215.488 1048.5 215.909V216.585C1048.5 217.162 1048.6 217.651 1048.8 218.052C1049 218.45 1049.28 218.753 1049.64 218.962C1050 219.167 1050.42 219.27 1050.89 219.27C1051.2 219.27 1051.48 219.227 1051.73 219.141C1051.98 219.051 1052.2 218.919 1052.38 218.743C1052.56 218.564 1052.7 218.342 1052.8 218.077L1053.93 218.395C1053.81 218.779 1053.61 219.117 1053.33 219.409C1053.05 219.697 1052.7 219.923 1052.29 220.085C1051.87 220.244 1051.41 220.324 1050.89 220.324Z" fill="#0067B4"/>
<path d="M985.291 164.228V162.2H994.848V164.228H991.285V173.836H988.853V164.228H985.291ZM999.054 174.006C998.171 174.006 997.408 173.819 996.764 173.444C996.124 173.065 995.629 172.539 995.281 171.864C994.932 171.186 994.758 170.4 994.758 169.506C994.758 168.605 994.932 167.817 995.281 167.143C995.629 166.465 996.124 165.938 996.764 165.563C997.408 165.184 998.171 164.995 999.054 164.995C999.936 164.995 1000.7 165.184 1001.34 165.563C1001.98 165.938 1002.48 166.465 1002.83 167.143C1003.17 167.817 1003.35 168.605 1003.35 169.506C1003.35 170.4 1003.17 171.186 1002.83 171.864C1002.48 172.539 1001.98 173.065 1001.34 173.444C1000.7 173.819 999.936 174.006 999.054 174.006ZM999.065 172.131C999.467 172.131 999.802 172.018 1000.07 171.79C1000.34 171.559 1000.54 171.245 1000.68 170.847C1000.82 170.45 1000.89 169.997 1000.89 169.489C1000.89 168.982 1000.82 168.529 1000.68 168.131C1000.54 167.734 1000.34 167.419 1000.07 167.188C999.802 166.957 999.467 166.842 999.065 166.842C998.66 166.842 998.319 166.957 998.042 167.188C997.77 167.419 997.563 167.734 997.423 168.131C997.287 168.529 997.218 168.982 997.218 169.489C997.218 169.997 997.287 170.45 997.423 170.847C997.563 171.245 997.77 171.559 998.042 171.79C998.319 172.018 998.66 172.131 999.065 172.131ZM1007.12 171.325L1007.12 168.421H1007.47L1010.27 165.109H1013.05L1009.29 169.495H1008.72L1007.12 171.325ZM1004.92 173.836V162.2H1007.34V173.836H1004.92ZM1010.38 173.836L1007.81 170.035L1009.42 168.325L1013.21 173.836H1010.38ZM1017.85 174.006C1016.96 174.006 1016.18 173.825 1015.54 173.461C1014.89 173.094 1014.4 172.575 1014.05 171.904C1013.7 171.23 1013.52 170.433 1013.52 169.512C1013.52 168.614 1013.7 167.826 1014.05 167.148C1014.4 166.47 1014.89 165.942 1015.52 165.563C1016.15 165.184 1016.9 164.995 1017.76 164.995C1018.33 164.995 1018.87 165.088 1019.36 165.273C1019.86 165.455 1020.3 165.73 1020.67 166.097C1021.05 166.465 1021.34 166.927 1021.55 167.484C1021.75 168.037 1021.86 168.684 1021.86 169.427V170.092H1014.49V168.592H1019.58C1019.58 168.243 1019.5 167.934 1019.35 167.665C1019.2 167.397 1018.99 167.186 1018.72 167.035C1018.46 166.879 1018.15 166.802 1017.8 166.802C1017.43 166.802 1017.1 166.887 1016.82 167.058C1016.54 167.224 1016.32 167.45 1016.16 167.734C1016 168.014 1015.92 168.326 1015.92 168.671V170.097C1015.92 170.529 1016 170.902 1016.15 171.217C1016.32 171.531 1016.55 171.773 1016.84 171.944C1017.14 172.114 1017.49 172.2 1017.89 172.2C1018.16 172.2 1018.41 172.162 1018.63 172.086C1018.86 172.01 1019.05 171.897 1019.21 171.745C1019.36 171.594 1019.49 171.408 1019.57 171.188L1021.81 171.336C1021.69 171.874 1021.46 172.344 1021.11 172.745C1020.76 173.143 1020.31 173.453 1019.76 173.677C1019.21 173.897 1018.57 174.006 1017.85 174.006ZM1025.86 168.79V173.836H1023.44V165.109H1025.75V166.648H1025.85C1026.04 166.141 1026.36 165.739 1026.82 165.444C1027.27 165.145 1027.82 164.995 1028.47 164.995C1029.08 164.995 1029.61 165.128 1030.06 165.393C1030.51 165.658 1030.86 166.037 1031.11 166.529C1031.36 167.018 1031.48 167.601 1031.48 168.279V173.836H1029.06V168.711C1029.07 168.177 1028.93 167.76 1028.65 167.461C1028.38 167.158 1028 167.006 1027.51 167.006C1027.19 167.006 1026.9 167.076 1026.65 167.217C1026.4 167.357 1026.21 167.561 1026.07 167.83C1025.93 168.095 1025.86 168.415 1025.86 168.79Z" fill="#0067B4"/>
<path d="M24.4469 396.342C24.4469 397.416 24.253 398.344 23.8652 399.127C23.4775 399.909 22.9455 400.512 22.2694 400.936C21.5932 401.36 20.821 401.573 19.9526 401.573C19.0842 401.573 18.312 401.36 17.6358 400.936C16.9597 400.512 16.4277 399.909 16.04 399.127C15.6522 398.344 15.4583 397.416 15.4583 396.342C15.4583 395.269 15.6522 394.341 16.04 393.558C16.4277 392.776 16.9597 392.173 17.6358 391.749C18.312 391.324 19.0842 391.112 19.9526 391.112C20.821 391.112 21.5932 391.324 22.2694 391.749C22.9455 392.173 23.4775 392.776 23.8652 393.558C24.253 394.341 24.4469 395.269 24.4469 396.342ZM23.2537 396.342C23.2537 395.461 23.1062 394.717 22.8113 394.11C22.5196 393.504 22.1235 393.045 21.623 392.733C21.1259 392.422 20.5691 392.266 19.9526 392.266C19.3361 392.266 18.7776 392.422 18.2772 392.733C17.78 393.045 17.3839 393.504 17.089 394.11C16.7973 394.717 16.6515 395.461 16.6515 396.342C16.6515 397.224 16.7973 397.968 17.089 398.575C17.3839 399.181 17.78 399.64 18.2772 399.952C18.7776 400.263 19.3361 400.419 19.9526 400.419C20.5691 400.419 21.1259 400.263 21.623 399.952C22.1235 399.64 22.5196 399.181 22.8113 398.575C23.1062 397.968 23.2537 397.224 23.2537 396.342ZM26.361 401.433V393.797H27.4945V394.95H27.574C27.7132 394.573 27.9651 394.266 28.3297 394.031C28.6943 393.795 29.1053 393.678 29.5627 393.678C29.6489 393.678 29.7566 393.679 29.8858 393.683C30.0151 393.686 30.1129 393.691 30.1792 393.698V394.891C30.1394 394.881 30.0482 394.866 29.9057 394.846C29.7665 394.823 29.619 394.811 29.4632 394.811C29.092 394.811 28.7606 394.889 28.4689 395.045C28.1806 395.197 27.9519 395.409 27.7828 395.681C27.6171 395.95 27.5343 396.256 27.5343 396.601V401.433H26.361ZM34.4199 404.456C33.8532 404.456 33.3659 404.383 32.9583 404.237C32.5506 404.095 32.2109 403.906 31.9391 403.671C31.6706 403.439 31.4569 403.19 31.2978 402.925L32.2324 402.269C32.3385 402.408 32.4727 402.567 32.6351 402.746C32.7975 402.928 33.0196 403.086 33.3013 403.218C33.5864 403.354 33.9592 403.422 34.4199 403.422C35.0364 403.422 35.5452 403.273 35.9462 402.975C36.3472 402.676 36.5478 402.209 36.5478 401.573V400.021H36.4483C36.3622 400.161 36.2395 400.333 36.0804 400.538C35.9247 400.741 35.6993 400.921 35.4043 401.08C35.1126 401.236 34.7182 401.314 34.2211 401.314C33.6046 401.314 33.0511 401.168 32.5605 400.877C32.0733 400.585 31.6872 400.161 31.4022 399.604C31.1204 399.047 30.9796 398.371 30.9796 397.575C30.9796 396.793 31.1171 396.112 31.3922 395.532C31.6673 394.949 32.0501 394.498 32.5407 394.18C33.0312 393.858 33.598 393.698 34.2409 393.698C34.7381 393.698 35.1325 393.78 35.4242 393.946C35.7192 394.109 35.9445 394.294 36.1003 394.503C36.2594 394.708 36.382 394.877 36.4682 395.01H36.5875V393.797H37.7211V401.652C37.7211 402.308 37.5719 402.842 37.2736 403.253C36.9786 403.667 36.5809 403.971 36.0804 404.163C35.5833 404.358 35.0298 404.456 34.4199 404.456ZM34.3801 400.26C34.8508 400.26 35.2485 400.152 35.5733 399.937C35.8981 399.721 36.1451 399.412 36.3141 399.007C36.4831 398.603 36.5676 398.119 36.5676 397.556C36.5676 397.005 36.4848 396.52 36.3191 396.099C36.1534 395.678 35.9081 395.348 35.5833 395.109C35.2585 394.871 34.8574 394.752 34.3801 394.752C33.883 394.752 33.4687 394.877 33.1373 395.129C32.8091 395.381 32.5622 395.719 32.3965 396.144C32.2341 396.568 32.1529 397.038 32.1529 397.556C32.1529 398.086 32.2357 398.555 32.4015 398.962C32.5705 399.367 32.8191 399.685 33.1472 399.917C33.4786 400.146 33.8896 400.26 34.3801 400.26ZM42.1159 401.612C41.632 401.612 41.1929 401.521 40.7985 401.339C40.4041 401.153 40.0908 400.886 39.8588 400.538C39.6268 400.187 39.5108 399.763 39.5108 399.266C39.5108 398.828 39.597 398.474 39.7694 398.202C39.9417 397.927 40.1721 397.711 40.4604 397.556C40.7488 397.4 41.0669 397.284 41.415 397.207C41.7663 397.128 42.1193 397.065 42.4739 397.019C42.9379 396.959 43.3141 396.914 43.6025 396.884C43.8941 396.851 44.1062 396.797 44.2388 396.72C44.3747 396.644 44.4426 396.511 44.4426 396.323V396.283C44.4426 395.792 44.3084 395.411 44.04 395.139C43.7748 394.868 43.3721 394.732 42.8319 394.732C42.2717 394.732 41.8326 394.854 41.5144 395.1C41.1962 395.345 40.9725 395.607 40.8432 395.885L39.7296 395.487C39.9284 395.023 40.1936 394.662 40.525 394.404C40.8598 394.142 41.2244 393.959 41.6188 393.857C42.0165 393.751 42.4076 393.698 42.7921 393.698C43.0373 393.698 43.3191 393.727 43.6373 393.787C43.9587 393.843 44.2686 393.961 44.5669 394.14C44.8685 394.319 45.1188 394.589 45.3176 394.95C45.5165 395.312 45.6159 395.796 45.6159 396.402V401.433H44.4426V400.399H44.383C44.3034 400.565 44.1709 400.742 43.9853 400.931C43.7997 401.12 43.5527 401.281 43.2445 401.413C42.9363 401.546 42.5601 401.612 42.1159 401.612ZM42.2949 400.558C42.7589 400.558 43.15 400.467 43.4682 400.285C43.7897 400.103 44.0317 399.867 44.1941 399.579C44.3598 399.291 44.4426 398.987 44.4426 398.669V397.595C44.3929 397.655 44.2836 397.71 44.1145 397.759C43.9488 397.806 43.7566 397.847 43.5378 397.884C43.3224 397.917 43.1119 397.947 42.9064 397.973C42.7042 397.996 42.5402 398.016 42.4142 398.033C42.1093 398.073 41.8243 398.137 41.5591 398.227C41.2973 398.313 41.0852 398.444 40.9228 398.619C40.7637 398.792 40.6841 399.027 40.6841 399.325C40.6841 399.733 40.8349 400.041 41.1365 400.25C41.4415 400.456 41.8276 400.558 42.2949 400.558ZM48.9308 396.84V401.433H47.7575V393.797H48.891V394.99H48.9904C49.1694 394.602 49.4412 394.291 49.8058 394.056C50.1703 393.817 50.641 393.698 51.2177 393.698C51.7347 393.698 52.1871 393.804 52.5749 394.016C52.9627 394.225 53.2643 394.543 53.4798 394.97C53.6952 395.395 53.8029 395.931 53.8029 396.581V401.433H52.6296V396.661C52.6296 396.061 52.4738 395.593 52.1623 395.259C51.8507 394.921 51.4232 394.752 50.8796 394.752C50.5051 394.752 50.1703 394.833 49.8754 394.995C49.5837 395.158 49.3533 395.395 49.1843 395.706C49.0153 396.018 48.9308 396.395 48.9308 396.84ZM55.9469 401.433V393.797H57.1202V401.433H55.9469ZM56.5435 392.524C56.3148 392.524 56.1176 392.446 55.9519 392.291C55.7895 392.135 55.7083 391.948 55.7083 391.729C55.7083 391.51 55.7895 391.323 55.9519 391.167C56.1176 391.011 56.3148 390.933 56.5435 390.933C56.7722 390.933 56.9677 391.011 57.1301 391.167C57.2959 391.323 57.3787 391.51 57.3787 391.729C57.3787 391.948 57.2959 392.135 57.1301 392.291C56.9677 392.446 56.7722 392.524 56.5435 392.524ZM64.6783 395.507L63.6243 395.806C63.558 395.63 63.4602 395.459 63.331 395.293C63.205 395.124 63.0327 394.985 62.8139 394.876C62.5952 394.766 62.3151 394.712 61.9737 394.712C61.5064 394.712 61.117 394.819 60.8054 395.035C60.4972 395.247 60.343 395.517 60.343 395.845C60.343 396.137 60.4491 396.367 60.6612 396.536C60.8733 396.705 61.2048 396.846 61.6555 396.959L62.7891 397.237C63.4718 397.403 63.9806 397.657 64.3153 397.998C64.6501 398.336 64.8175 398.772 64.8175 399.306C64.8175 399.743 64.6915 400.134 64.4396 400.479C64.1911 400.824 63.843 401.095 63.3956 401.294C62.9482 401.493 62.4278 401.592 61.8345 401.592C61.0556 401.592 60.411 401.423 59.9006 401.085C59.3902 400.747 59.067 400.253 58.9311 399.604L60.0447 399.325C60.1508 399.736 60.3513 400.045 60.6463 400.25C60.9446 400.456 61.334 400.558 61.8146 400.558C62.3615 400.558 62.7957 400.442 63.1172 400.21C63.442 399.975 63.6044 399.693 63.6044 399.365C63.6044 399.1 63.5116 398.878 63.326 398.699C63.1404 398.517 62.8554 398.381 62.4709 398.291L61.1982 397.993C60.4988 397.827 59.9851 397.57 59.657 397.222C59.3321 396.871 59.1697 396.432 59.1697 395.905C59.1697 395.474 59.2907 395.093 59.5327 394.761C59.7779 394.43 60.111 394.17 60.532 393.981C60.9562 393.792 61.4368 393.698 61.9737 393.698C62.7294 393.698 63.3227 393.863 63.7536 394.195C64.1877 394.526 64.496 394.964 64.6783 395.507ZM68.8308 401.612C68.3469 401.612 67.9077 401.521 67.5133 401.339C67.1189 401.153 66.8057 400.886 66.5737 400.538C66.3417 400.187 66.2257 399.763 66.2257 399.266C66.2257 398.828 66.3118 398.474 66.4842 398.202C66.6565 397.927 66.8869 397.711 67.1752 397.556C67.4636 397.4 67.7818 397.284 68.1298 397.207C68.4811 397.128 68.8341 397.065 69.1887 397.019C69.6528 396.959 70.0289 396.914 70.3173 396.884C70.609 396.851 70.8211 396.797 70.9537 396.72C71.0895 396.644 71.1575 396.511 71.1575 396.323V396.283C71.1575 395.792 71.0233 395.411 70.7548 395.139C70.4896 394.868 70.0869 394.732 69.5467 394.732C68.9866 394.732 68.5474 394.854 68.2292 395.1C67.911 395.345 67.6873 395.607 67.5581 395.885L66.4444 395.487C66.6433 395.023 66.9084 394.662 67.2399 394.404C67.5746 394.142 67.9392 393.959 68.3336 393.857C68.7314 393.751 69.1225 393.698 69.5069 393.698C69.7522 393.698 70.0339 393.727 70.3521 393.787C70.6736 393.843 70.9835 393.961 71.2818 394.14C71.5834 394.319 71.8336 394.589 72.0325 394.95C72.2314 395.312 72.3308 395.796 72.3308 396.402V401.433H71.1575V400.399H71.0978C71.0183 400.565 70.8857 400.742 70.7001 400.931C70.5145 401.12 70.2676 401.281 69.9593 401.413C69.6511 401.546 69.2749 401.612 68.8308 401.612ZM69.0098 400.558C69.4738 400.558 69.8649 400.467 70.1831 400.285C70.5046 400.103 70.7465 399.867 70.9089 399.579C71.0746 399.291 71.1575 398.987 71.1575 398.669V397.595C71.1078 397.655 70.9984 397.71 70.8294 397.759C70.6636 397.806 70.4714 397.847 70.2527 397.884C70.0372 397.917 69.8268 397.947 69.6213 397.973C69.4191 397.996 69.255 398.016 69.1291 398.033C68.8242 398.073 68.5391 398.137 68.274 398.227C68.0121 398.313 67.8 398.444 67.6376 398.619C67.4785 398.792 67.399 399.027 67.399 399.325C67.399 399.733 67.5498 400.041 67.8514 400.25C68.1563 400.456 68.5424 400.558 69.0098 400.558ZM77.7933 393.797V394.791H73.8359V393.797H77.7933ZM74.9893 391.967H76.1626V399.246C76.1626 399.577 76.2107 399.826 76.3068 399.992C76.4063 400.154 76.5322 400.263 76.6847 400.32C76.8404 400.373 77.0045 400.399 77.1768 400.399C77.3061 400.399 77.4122 400.393 77.495 400.379C77.5779 400.363 77.6442 400.35 77.6939 400.34L77.9325 401.394C77.853 401.423 77.742 401.453 77.5994 401.483C77.4569 401.516 77.2763 401.533 77.0575 401.533C76.7261 401.533 76.4013 401.462 76.0831 401.319C75.7682 401.176 75.5064 400.959 75.2976 400.668C75.0921 400.376 74.9893 400.008 74.9893 399.564V391.967ZM79.5582 401.433V393.797H80.7315V401.433H79.5582ZM80.1548 392.524C79.9261 392.524 79.7289 392.446 79.5632 392.291C79.4008 392.135 79.3196 391.948 79.3196 391.729C79.3196 391.51 79.4008 391.323 79.5632 391.167C79.7289 391.011 79.9261 390.933 80.1548 390.933C80.3835 390.933 80.5791 391.011 80.7415 391.167C80.9072 391.323 80.9901 391.51 80.9901 391.729C80.9901 391.948 80.9072 392.135 80.7415 392.291C80.5791 392.446 80.3835 392.524 80.1548 392.524ZM85.9828 401.592C85.2934 401.592 84.6885 401.428 84.1681 401.1C83.6511 400.772 83.2467 400.313 82.9551 399.723C82.6667 399.133 82.5225 398.444 82.5225 397.655C82.5225 396.859 82.6667 396.165 82.9551 395.572C83.2467 394.979 83.6511 394.518 84.1681 394.19C84.6885 393.862 85.2934 393.698 85.9828 393.698C86.6722 393.698 87.2754 393.862 87.7924 394.19C88.3128 394.518 88.7172 394.979 89.0055 395.572C89.2972 396.165 89.443 396.859 89.443 397.655C89.443 398.444 89.2972 399.133 89.0055 399.723C88.7172 400.313 88.3128 400.772 87.7924 401.1C87.2754 401.428 86.6722 401.592 85.9828 401.592ZM85.9828 400.538C86.5065 400.538 86.9373 400.404 87.2754 400.136C87.6135 399.867 87.8637 399.514 88.0261 399.077C88.1885 398.639 88.2697 398.165 88.2697 397.655C88.2697 397.145 88.1885 396.669 88.0261 396.228C87.8637 395.787 87.6135 395.431 87.2754 395.159C86.9373 394.887 86.5065 394.752 85.9828 394.752C85.4591 394.752 85.0282 394.887 84.6902 395.159C84.3521 395.431 84.1019 395.787 83.9395 396.228C83.777 396.669 83.6958 397.145 83.6958 397.655C83.6958 398.165 83.777 398.639 83.9395 399.077C84.1019 399.514 84.3521 399.867 84.6902 400.136C85.0282 400.404 85.4591 400.538 85.9828 400.538ZM92.4073 396.84V401.433H91.234V393.797H92.3675V394.99H92.467C92.646 394.602 92.9177 394.291 93.2823 394.056C93.6469 393.817 94.1175 393.698 94.6942 393.698C95.2113 393.698 95.6637 393.804 96.0515 394.016C96.4393 394.225 96.7409 394.543 96.9563 394.97C97.1718 395.395 97.2795 395.931 97.2795 396.581V401.433H96.1062V396.661C96.1062 396.061 95.9504 395.593 95.6388 395.259C95.3273 394.921 94.8997 394.752 94.3562 394.752C93.9817 394.752 93.6469 394.833 93.3519 394.995C93.0603 395.158 92.8299 395.395 92.6609 395.706C92.4918 396.018 92.4073 396.395 92.4073 396.84ZM101.671 401.612C101.187 401.612 100.748 401.521 100.353 401.339C99.9587 401.153 99.6455 400.886 99.4135 400.538C99.1815 400.187 99.0655 399.763 99.0655 399.266C99.0655 398.828 99.1517 398.474 99.324 398.202C99.4964 397.927 99.7267 397.711 100.015 397.556C100.303 397.4 100.622 397.284 100.97 397.207C101.321 397.128 101.674 397.065 102.029 397.019C102.493 396.959 102.869 396.914 103.157 396.884C103.449 396.851 103.661 396.797 103.794 396.72C103.929 396.644 103.997 396.511 103.997 396.323V396.283C103.997 395.792 103.863 395.411 103.595 395.139C103.329 394.868 102.927 394.732 102.387 394.732C101.826 394.732 101.387 394.854 101.069 395.1C100.751 395.345 100.527 395.607 100.398 395.885L99.2843 395.487C99.4831 395.023 99.7483 394.662 100.08 394.404C100.414 394.142 100.779 393.959 101.173 393.857C101.571 393.751 101.962 393.698 102.347 393.698C102.592 393.698 102.874 393.727 103.192 393.787C103.513 393.843 103.823 393.961 104.122 394.14C104.423 394.319 104.673 394.589 104.872 394.95C105.071 395.312 105.171 395.796 105.171 396.402V401.433H103.997V400.399H103.938C103.858 400.565 103.726 400.742 103.54 400.931C103.354 401.12 103.107 401.281 102.799 401.413C102.491 401.546 102.115 401.612 101.671 401.612ZM101.85 400.558C102.314 400.558 102.705 400.467 103.023 400.285C103.344 400.103 103.586 399.867 103.749 399.579C103.914 399.291 103.997 398.987 103.997 398.669V397.595C103.948 397.655 103.838 397.71 103.669 397.759C103.503 397.806 103.311 397.847 103.093 397.884C102.877 397.917 102.667 397.947 102.461 397.973C102.259 397.996 102.095 398.016 101.969 398.033C101.664 398.073 101.379 398.137 101.114 398.227C100.852 398.313 100.64 398.444 100.477 398.619C100.318 398.792 100.239 399.027 100.239 399.325C100.239 399.733 100.39 400.041 100.691 400.25C100.996 400.456 101.382 400.558 101.85 400.558ZM108.485 391.252V401.433H107.312V391.252H108.485Z" fill="#0067B4"/>
<path d="M25.6202 248.983V259.165H24.3873V248.983H25.6202ZM29.1065 254.571V259.165H27.9332V251.528H29.0668V252.722H29.1662C29.3452 252.334 29.617 252.022 29.9815 251.787C30.3461 251.548 30.8168 251.429 31.3935 251.429C31.9105 251.429 32.3629 251.535 32.7507 251.747C33.1385 251.956 33.4401 252.274 33.6555 252.702C33.871 253.126 33.9787 253.663 33.9787 254.313V259.165H32.8054V254.392C32.8054 253.792 32.6496 253.325 32.3381 252.99C32.0265 252.652 31.599 252.483 31.0554 252.483C30.6809 252.483 30.3461 252.564 30.0511 252.727C29.7595 252.889 29.5291 253.126 29.3601 253.438C29.1911 253.749 29.1065 254.127 29.1065 254.571ZM39.5233 251.528V252.523H35.4068V251.528H39.5233ZM36.6397 259.165V250.474C36.6397 250.037 36.7425 249.672 36.948 249.381C37.1535 249.089 37.4203 248.87 37.7484 248.724C38.0765 248.579 38.4229 248.506 38.7875 248.506C39.0758 248.506 39.3111 248.529 39.4934 248.575C39.6757 248.622 39.8116 248.665 39.9011 248.705L39.563 249.719C39.5034 249.699 39.4205 249.674 39.3145 249.644C39.2117 249.614 39.0758 249.599 38.9068 249.599C38.519 249.599 38.2389 249.697 38.0666 249.893C37.8975 250.088 37.813 250.375 37.813 250.753V259.165H36.6397ZM43.9554 259.324C43.266 259.324 42.6612 259.16 42.1408 258.832C41.6238 258.504 41.2194 258.045 40.9277 257.455C40.6394 256.865 40.4952 256.175 40.4952 255.386C40.4952 254.591 40.6394 253.897 40.9277 253.303C41.2194 252.71 41.6238 252.249 42.1408 251.921C42.6612 251.593 43.266 251.429 43.9554 251.429C44.6448 251.429 45.248 251.593 45.7651 251.921C46.2855 252.249 46.6898 252.71 46.9782 253.303C47.2698 253.897 47.4157 254.591 47.4157 255.386C47.4157 256.175 47.2698 256.865 46.9782 257.455C46.6898 258.045 46.2855 258.504 45.7651 258.832C45.248 259.16 44.6448 259.324 43.9554 259.324ZM43.9554 258.27C44.4791 258.27 44.91 258.136 45.248 257.867C45.5861 257.599 45.8364 257.246 45.9988 256.808C46.1612 256.371 46.2424 255.897 46.2424 255.386C46.2424 254.876 46.1612 254.4 45.9988 253.96C45.8364 253.519 45.5861 253.162 45.248 252.891C44.91 252.619 44.4791 252.483 43.9554 252.483C43.4318 252.483 43.0009 252.619 42.6628 252.891C42.3248 253.162 42.0745 253.519 41.9121 253.96C41.7497 254.4 41.6685 254.876 41.6685 255.386C41.6685 255.897 41.7497 256.371 41.9121 256.808C42.0745 257.246 42.3248 257.599 42.6628 257.867C43.0009 258.136 43.4318 258.27 43.9554 258.27ZM49.2067 259.165V251.528H50.3402V252.682H50.4197C50.5589 252.304 50.8108 251.997 51.1754 251.762C51.54 251.527 51.951 251.409 52.4084 251.409C52.4946 251.409 52.6023 251.411 52.7315 251.414C52.8608 251.417 52.9586 251.422 53.0249 251.429V252.622C52.9851 252.612 52.8939 252.597 52.7514 252.577C52.6122 252.554 52.4647 252.543 52.3089 252.543C51.9377 252.543 51.6063 252.621 51.3146 252.776C51.0263 252.929 50.7976 253.141 50.6286 253.413C50.4628 253.681 50.38 253.988 50.38 254.332V259.165H49.2067ZM54.4157 259.165V251.528H55.5492V252.722H55.6486C55.8077 252.314 56.0646 251.997 56.4192 251.772C56.7739 251.543 57.1998 251.429 57.6969 251.429C58.2007 251.429 58.62 251.543 58.9547 251.772C59.2928 251.997 59.5563 252.314 59.7452 252.722H59.8248C60.0203 252.327 60.3136 252.014 60.7047 251.782C61.0958 251.547 61.5648 251.429 62.1117 251.429C62.7944 251.429 63.3529 251.643 63.7871 252.07C64.2213 252.495 64.4384 253.156 64.4384 254.054V259.165H63.2651V254.054C63.2651 253.491 63.111 253.088 62.8027 252.846C62.4945 252.604 62.1316 252.483 61.714 252.483C61.177 252.483 60.7611 252.645 60.4661 252.97C60.1711 253.292 60.0236 253.699 60.0236 254.193V259.165H58.8304V253.935C58.8304 253.5 58.6896 253.151 58.4078 252.886C58.1261 252.617 57.7632 252.483 57.3191 252.483C57.0141 252.483 56.7291 252.564 56.464 252.727C56.2021 252.889 55.99 253.114 55.8276 253.403C55.6685 253.688 55.589 254.018 55.589 254.392V259.165H54.4157ZM68.8308 259.344C68.3469 259.344 67.9077 259.253 67.5133 259.07C67.1189 258.885 66.8057 258.618 66.5737 258.27C66.3417 257.919 66.2257 257.494 66.2257 256.997C66.2257 256.56 66.3118 256.205 66.4842 255.933C66.6565 255.658 66.8869 255.443 67.1752 255.287C67.4636 255.131 67.7818 255.015 68.1298 254.939C68.4811 254.859 68.8341 254.796 69.1887 254.75C69.6528 254.69 70.0289 254.646 70.3173 254.616C70.609 254.583 70.8211 254.528 70.9537 254.452C71.0895 254.375 71.1575 254.243 71.1575 254.054V254.014C71.1575 253.524 71.0233 253.143 70.7548 252.871C70.4896 252.599 70.0869 252.463 69.5467 252.463C68.9866 252.463 68.5474 252.586 68.2292 252.831C67.911 253.076 67.6873 253.338 67.5581 253.616L66.4444 253.219C66.6433 252.755 66.9084 252.393 67.2399 252.135C67.5746 251.873 67.9392 251.691 68.3336 251.588C68.7314 251.482 69.1225 251.429 69.5069 251.429C69.7522 251.429 70.0339 251.459 70.3521 251.518C70.6736 251.575 70.9835 251.692 71.2818 251.871C71.5834 252.05 71.8336 252.321 72.0325 252.682C72.2314 253.043 72.3308 253.527 72.3308 254.134V259.165H71.1575V258.131H71.0978C71.0183 258.296 70.8857 258.474 70.7001 258.663C70.5145 258.852 70.2676 259.012 69.9593 259.145C69.6511 259.277 69.2749 259.344 68.8308 259.344ZM69.0098 258.29C69.4738 258.29 69.8649 258.199 70.1831 258.016C70.5046 257.834 70.7465 257.599 70.9089 257.31C71.0746 257.022 71.1575 256.719 71.1575 256.401V255.327C71.1078 255.386 70.9984 255.441 70.8294 255.491C70.6636 255.537 70.4714 255.579 70.2527 255.615C70.0372 255.648 69.8268 255.678 69.6213 255.705C69.4191 255.728 69.255 255.748 69.1291 255.764C68.8242 255.804 68.5391 255.869 68.274 255.958C68.0121 256.044 67.8 256.175 67.6376 256.351C67.4785 256.523 67.399 256.759 67.399 257.057C67.399 257.465 67.5498 257.773 67.8514 257.982C68.1563 258.187 68.5424 258.29 69.0098 258.29ZM77.7933 251.528V252.523H73.8359V251.528H77.7933ZM74.9893 249.699H76.1626V256.977C76.1626 257.309 76.2107 257.557 76.3068 257.723C76.4063 257.885 76.5322 257.995 76.6847 258.051C76.8404 258.104 77.0045 258.131 77.1768 258.131C77.3061 258.131 77.4122 258.124 77.495 258.111C77.5779 258.094 77.6442 258.081 77.6939 258.071L77.9325 259.125C77.853 259.155 77.742 259.185 77.5994 259.215C77.4569 259.248 77.2763 259.264 77.0575 259.264C76.7261 259.264 76.4013 259.193 76.0831 259.05C75.7682 258.908 75.5064 258.691 75.2976 258.399C75.0921 258.108 74.9893 257.74 74.9893 257.295V249.699ZM79.5582 259.165V251.528H80.7315V259.165H79.5582ZM80.1548 250.256C79.9261 250.256 79.7289 250.178 79.5632 250.022C79.4008 249.866 79.3196 249.679 79.3196 249.46C79.3196 249.241 79.4008 249.054 79.5632 248.898C79.7289 248.743 79.9261 248.665 80.1548 248.665C80.3835 248.665 80.5791 248.743 80.7415 248.898C80.9072 249.054 80.9901 249.241 80.9901 249.46C80.9901 249.679 80.9072 249.866 80.7415 250.022C80.5791 250.178 80.3835 250.256 80.1548 250.256ZM85.9828 259.324C85.2934 259.324 84.6885 259.16 84.1681 258.832C83.6511 258.504 83.2467 258.045 82.9551 257.455C82.6667 256.865 82.5225 256.175 82.5225 255.386C82.5225 254.591 82.6667 253.897 82.9551 253.303C83.2467 252.71 83.6511 252.249 84.1681 251.921C84.6885 251.593 85.2934 251.429 85.9828 251.429C86.6722 251.429 87.2754 251.593 87.7924 251.921C88.3128 252.249 88.7172 252.71 89.0055 253.303C89.2972 253.897 89.443 254.591 89.443 255.386C89.443 256.175 89.2972 256.865 89.0055 257.455C88.7172 258.045 88.3128 258.504 87.7924 258.832C87.2754 259.16 86.6722 259.324 85.9828 259.324ZM85.9828 258.27C86.5065 258.27 86.9373 258.136 87.2754 257.867C87.6135 257.599 87.8637 257.246 88.0261 256.808C88.1885 256.371 88.2697 255.897 88.2697 255.386C88.2697 254.876 88.1885 254.4 88.0261 253.96C87.8637 253.519 87.6135 253.162 87.2754 252.891C86.9373 252.619 86.5065 252.483 85.9828 252.483C85.4591 252.483 85.0282 252.619 84.6902 252.891C84.3521 253.162 84.1019 253.519 83.9395 253.96C83.777 254.4 83.6958 254.876 83.6958 255.386C83.6958 255.897 83.777 256.371 83.9395 256.808C84.1019 257.246 84.3521 257.599 84.6902 257.867C85.0282 258.136 85.4591 258.27 85.9828 258.27ZM92.4073 254.571V259.165H91.234V251.528H92.3675V252.722H92.467C92.646 252.334 92.9177 252.022 93.2823 251.787C93.6469 251.548 94.1175 251.429 94.6942 251.429C95.2113 251.429 95.6637 251.535 96.0515 251.747C96.4393 251.956 96.7409 252.274 96.9563 252.702C97.1718 253.126 97.2795 253.663 97.2795 254.313V259.165H96.1062V254.392C96.1062 253.792 95.9504 253.325 95.6388 252.99C95.3273 252.652 94.8997 252.483 94.3562 252.483C93.9817 252.483 93.6469 252.564 93.3519 252.727C93.0603 252.889 92.8299 253.126 92.6609 253.438C92.4918 253.749 92.4073 254.127 92.4073 254.571ZM101.671 259.344C101.187 259.344 100.748 259.253 100.353 259.07C99.9587 258.885 99.6455 258.618 99.4135 258.27C99.1815 257.919 99.0655 257.494 99.0655 256.997C99.0655 256.56 99.1517 256.205 99.324 255.933C99.4964 255.658 99.7267 255.443 100.015 255.287C100.303 255.131 100.622 255.015 100.97 254.939C101.321 254.859 101.674 254.796 102.029 254.75C102.493 254.69 102.869 254.646 103.157 254.616C103.449 254.583 103.661 254.528 103.794 254.452C103.929 254.375 103.997 254.243 103.997 254.054V254.014C103.997 253.524 103.863 253.143 103.595 252.871C103.329 252.599 102.927 252.463 102.387 252.463C101.826 252.463 101.387 252.586 101.069 252.831C100.751 253.076 100.527 253.338 100.398 253.616L99.2843 253.219C99.4831 252.755 99.7483 252.393 100.08 252.135C100.414 251.873 100.779 251.691 101.173 251.588C101.571 251.482 101.962 251.429 102.347 251.429C102.592 251.429 102.874 251.459 103.192 251.518C103.513 251.575 103.823 251.692 104.122 251.871C104.423 252.05 104.673 252.321 104.872 252.682C105.071 253.043 105.171 253.527 105.171 254.134V259.165H103.997V258.131H103.938C103.858 258.296 103.726 258.474 103.54 258.663C103.354 258.852 103.107 259.012 102.799 259.145C102.491 259.277 102.115 259.344 101.671 259.344ZM101.85 258.29C102.314 258.29 102.705 258.199 103.023 258.016C103.344 257.834 103.586 257.599 103.749 257.31C103.914 257.022 103.997 256.719 103.997 256.401V255.327C103.948 255.386 103.838 255.441 103.669 255.491C103.503 255.537 103.311 255.579 103.093 255.615C102.877 255.648 102.667 255.678 102.461 255.705C102.259 255.728 102.095 255.748 101.969 255.764C101.664 255.804 101.379 255.869 101.114 255.958C100.852 256.044 100.64 256.175 100.477 256.351C100.318 256.523 100.239 256.759 100.239 257.057C100.239 257.465 100.39 257.773 100.691 257.982C100.996 258.187 101.382 258.29 101.85 258.29ZM108.485 248.983V259.165H107.312V248.983H108.485Z" fill="#0067B4"/>
<path d="M67.3219 173.836V162.2H69.7821V171.808H74.7708V173.836H67.3219ZM78.8432 174.001C78.2864 174.001 77.7902 173.904 77.3546 173.711C76.919 173.514 76.5743 173.224 76.3205 172.842C76.0705 172.455 75.9455 171.974 75.9455 171.398C75.9455 170.914 76.0345 170.506 76.2125 170.177C76.3906 169.847 76.633 169.582 76.9398 169.381C77.2466 169.181 77.5951 169.029 77.9853 168.927C78.3792 168.825 78.7921 168.753 79.2239 168.711C79.7315 168.658 80.1406 168.609 80.4512 168.563C80.7618 168.514 80.9872 168.442 81.1273 168.347C81.2675 168.253 81.3375 168.112 81.3375 167.927V167.893C81.3375 167.533 81.2239 167.254 80.9966 167.058C80.7731 166.861 80.455 166.762 80.0421 166.762C79.6065 166.762 79.2599 166.859 79.0023 167.052C78.7447 167.241 78.5743 167.48 78.4909 167.768L76.2523 167.586C76.3659 167.056 76.5894 166.597 76.9228 166.211C77.2561 165.821 77.686 165.522 78.2125 165.313C78.7428 165.101 79.3565 164.995 80.0534 164.995C80.5383 164.995 81.0023 165.052 81.4455 165.165C81.8925 165.279 82.2883 165.455 82.633 165.694C82.9815 165.933 83.2561 166.239 83.4569 166.614C83.6576 166.986 83.758 167.431 83.758 167.95V173.836H81.4625V172.626H81.3944C81.2542 172.898 81.0667 173.139 80.8319 173.347C80.597 173.552 80.3148 173.713 79.9853 173.83C79.6557 173.944 79.275 174.001 78.8432 174.001ZM79.5364 172.33C79.8925 172.33 80.2069 172.26 80.4796 172.12C80.7523 171.976 80.9663 171.783 81.1216 171.54C81.2769 171.298 81.3546 171.023 81.3546 170.717V169.79C81.2788 169.84 81.1747 169.885 81.0421 169.927C80.9133 169.965 80.7675 170.001 80.6046 170.035C80.4417 170.065 80.2788 170.094 80.1159 170.12C79.9531 170.143 79.8053 170.164 79.6728 170.183C79.3887 170.224 79.1406 170.29 78.9284 170.381C78.7163 170.472 78.5516 170.595 78.4341 170.751C78.3167 170.902 78.258 171.092 78.258 171.319C78.258 171.648 78.3773 171.9 78.6159 172.075C78.8584 172.245 79.1652 172.33 79.5364 172.33ZM86.8176 177.109C86.5108 177.109 86.223 177.084 85.954 177.035C85.6889 176.989 85.4692 176.931 85.2949 176.859L85.8404 175.052C86.1245 175.139 86.3801 175.186 86.6074 175.194C86.8385 175.201 87.0373 175.148 87.204 175.035C87.3745 174.921 87.5127 174.728 87.6188 174.455L87.7608 174.086L84.6301 165.109H87.1756L88.9824 171.518H89.0733L90.8972 165.109H93.4597L90.0676 174.779C89.9048 175.249 89.6832 175.658 89.4029 176.006C89.1264 176.359 88.776 176.629 88.3517 176.819C87.9275 177.012 87.4161 177.109 86.8176 177.109ZM98.3944 174.006C97.4966 174.006 96.7239 173.825 96.0762 173.461C95.4322 173.094 94.936 172.575 94.5875 171.904C94.2391 171.23 94.0648 170.433 94.0648 169.512C94.0648 168.614 94.2391 167.826 94.5875 167.148C94.936 166.47 95.4266 165.942 96.0591 165.563C96.6955 165.184 97.4417 164.995 98.2978 164.995C98.8735 164.995 99.4095 165.088 99.9057 165.273C100.406 165.455 100.841 165.73 101.213 166.097C101.588 166.465 101.879 166.927 102.088 167.484C102.296 168.037 102.4 168.684 102.4 169.427V170.092H95.0307V168.592H100.122C100.122 168.243 100.046 167.934 99.8944 167.665C99.7428 167.397 99.5326 167.186 99.2637 167.035C98.9985 166.879 98.6898 166.802 98.3375 166.802C97.9701 166.802 97.6444 166.887 97.3603 167.058C97.08 167.224 96.8603 167.45 96.7012 167.734C96.5421 168.014 96.4606 168.326 96.4569 168.671V170.097C96.4569 170.529 96.5364 170.902 96.6955 171.217C96.8584 171.531 97.0875 171.773 97.383 171.944C97.6784 172.114 98.0288 172.2 98.4341 172.2C98.7031 172.2 98.9493 172.162 99.1728 172.086C99.3962 172.01 99.5875 171.897 99.7466 171.745C99.9057 171.594 100.027 171.408 100.11 171.188L102.349 171.336C102.235 171.874 102.002 172.344 101.65 172.745C101.302 173.143 100.851 173.453 100.298 173.677C99.7485 173.897 99.1141 174.006 98.3944 174.006ZM103.98 173.836V165.109H106.326V166.631H106.417C106.576 166.09 106.843 165.681 107.218 165.404C107.593 165.124 108.025 164.984 108.514 164.984C108.635 164.984 108.766 164.991 108.906 165.006C109.046 165.022 109.169 165.042 109.275 165.069V167.217C109.161 167.183 109.004 167.152 108.803 167.126C108.603 167.099 108.419 167.086 108.252 167.086C107.896 167.086 107.578 167.164 107.298 167.319C107.021 167.47 106.802 167.683 106.639 167.955C106.48 168.228 106.4 168.542 106.4 168.898V173.836H103.98Z" fill="#0067B4"/>
<mask id="path-16-outside-1_4157_54971" maskUnits="userSpaceOnUse" x="764.112" y="192.336" width="122.11" height="70.5" fill="black">
<rect fill="white" x="764.112" y="192.336" width="122.11" height="70.5"/>
<path d="M792.283 196.776L797.553 193.734L822.382 208.069L817.112 211.112L807.857 205.768L782.894 220.18L776.576 216.532L801.539 202.12L792.283 196.776ZM802.723 232.139C800.391 230.793 798.856 229.361 798.117 227.844C797.399 226.327 797.458 224.804 798.295 223.276C799.141 221.741 800.76 220.284 803.151 218.903C805.484 217.557 807.983 216.636 810.65 216.142C813.317 215.648 815.965 215.591 818.592 215.972C821.23 216.358 823.66 217.193 825.884 218.477C827.38 219.341 828.532 220.284 829.339 221.307C830.165 222.33 830.584 223.395 830.593 224.503C830.613 225.616 830.17 226.747 829.265 227.895C828.369 229.037 826.957 230.165 825.028 231.278L823.301 232.276L804.155 221.222L808.052 218.972L821.279 226.608C822.184 226.085 822.789 225.509 823.094 224.878C823.4 224.247 823.4 223.616 823.094 222.986C822.809 222.355 822.209 221.776 821.294 221.247C820.339 220.696 819.271 220.335 818.09 220.165C816.929 219.994 815.773 220.003 814.621 220.19C813.48 220.372 812.456 220.719 811.551 221.23L807.846 223.369C806.724 224.017 805.961 224.696 805.557 225.406C805.164 226.122 805.129 226.83 805.454 227.528C805.779 228.227 806.468 228.881 807.521 229.489C808.219 229.892 808.958 230.205 809.735 230.426C810.512 230.648 811.305 230.764 812.112 230.776C812.919 230.787 813.716 230.69 814.503 230.486L819.935 234.065C818.243 234.702 816.417 235.057 814.459 235.131C812.52 235.205 810.542 234.994 808.525 234.5C806.527 234.006 804.593 233.219 802.723 232.139ZM845.2 229.97L841.436 236.95L853.629 234.837L860.08 238.561L842.174 241.314L837.583 251.754L831.162 248.047L834.527 240.939L822.29 242.925L815.795 239.175L833.863 236.516L838.705 226.22L845.2 229.97ZM875.875 247.68L871.151 250.408L857.497 242.524L862.221 239.797L875.875 247.68ZM870.753 238.45L877.041 242.081L855.903 254.286C855.322 254.621 854.958 254.933 854.81 255.223C854.672 255.507 854.697 255.777 854.884 256.033C855.081 256.294 855.391 256.547 855.814 256.791C856.109 256.962 856.429 257.118 856.773 257.26C857.128 257.396 857.398 257.501 857.585 257.575L853.895 260.848C853.482 260.723 852.926 260.533 852.227 260.277C851.518 260.027 850.741 259.675 849.894 259.22C848.32 258.379 847.193 257.496 846.514 256.57C845.845 255.649 845.682 254.726 846.027 253.8C846.371 252.874 847.292 251.984 848.787 251.132L870.753 238.45Z"/>
</mask>
<path d="M792.283 196.776L791.417 196.276L790.551 196.776L791.417 197.276L792.283 196.776ZM797.553 193.734L798.419 193.234L797.553 192.734L796.687 193.234L797.553 193.734ZM822.382 208.069L823.248 208.569L824.114 208.069L823.248 207.569L822.382 208.069ZM817.112 211.112L816.246 211.612L817.112 212.112L817.978 211.612L817.112 211.112ZM807.857 205.768L808.723 205.268L807.857 204.768L806.991 205.268L807.857 205.768ZM782.894 220.18L782.028 220.68L782.894 221.18L783.76 220.68L782.894 220.18ZM776.576 216.532L775.71 216.032L774.844 216.532L775.71 217.032L776.576 216.532ZM801.539 202.12L802.405 202.62L803.271 202.12L802.405 201.62L801.539 202.12ZM792.283 196.776L793.149 197.276L798.419 194.234L797.553 193.734L796.687 193.234L791.417 196.276L792.283 196.776ZM797.553 193.734L796.687 194.234L821.516 208.569L822.382 208.069L823.248 207.569L798.419 193.234L797.553 193.734ZM822.382 208.069L821.516 207.569L816.246 210.612L817.112 211.112L817.978 211.612L823.248 208.569L822.382 208.069ZM817.112 211.112L817.978 210.612L808.723 205.268L807.857 205.768L806.991 206.268L816.246 211.612L817.112 211.112ZM807.857 205.768L806.991 205.268L782.028 219.68L782.894 220.18L783.76 220.68L808.723 206.268L807.857 205.768ZM782.894 220.18L783.76 219.68L777.442 216.032L776.576 216.532L775.71 217.032L782.028 220.68L782.894 220.18ZM776.576 216.532L777.442 217.032L802.405 202.62L801.539 202.12L800.673 201.62L775.71 216.032L776.576 216.532ZM801.539 202.12L802.405 201.62L793.149 196.276L792.283 196.776L791.417 197.276L800.673 202.62L801.539 202.12ZM798.117 227.844L796.936 228.03L796.938 228.035L798.117 227.844ZM798.295 223.276L797.128 223.061L797.127 223.063L798.295 223.276ZM810.65 216.142L810.276 215.469V215.469L810.65 216.142ZM818.592 215.972L818.893 215.286L818.89 215.286L818.592 215.972ZM829.339 221.307L828.224 221.6L828.229 221.606L829.339 221.307ZM830.593 224.503L829.369 224.506L829.369 224.51L830.593 224.503ZM829.265 227.895L828.15 227.602L828.149 227.603L829.265 227.895ZM823.301 232.276L822.435 232.776L823.301 233.276L824.167 232.776L823.301 232.276ZM804.155 221.222L803.289 220.722L802.423 221.222L803.289 221.722L804.155 221.222ZM808.052 218.972L808.918 218.472L808.052 217.972L807.186 218.472L808.052 218.972ZM821.279 226.608L820.413 227.108L821.279 227.608L822.145 227.108L821.279 226.608ZM823.094 224.878L821.915 224.688L821.915 224.688L823.094 224.878ZM823.094 222.986L821.909 223.165L821.912 223.17L821.915 223.176L823.094 222.986ZM818.09 220.165L817.788 220.85L817.793 220.851L818.09 220.165ZM814.621 220.19L814.947 220.872L814.954 220.871L814.621 220.19ZM811.551 221.23L810.694 220.725L810.685 220.73L811.551 221.23ZM805.557 225.406L804.394 225.186L804.39 225.192L805.557 225.406ZM809.735 230.426L810.277 229.792V229.792L809.735 230.426ZM812.112 230.776L812.142 230.069V230.069L812.112 230.776ZM814.503 230.486L815.424 230.02L814.827 229.626L814 229.841L814.503 230.486ZM819.935 234.065L820.604 234.658L821.788 234.213L820.857 233.599L819.935 234.065ZM814.459 235.131L814.379 234.425L814.378 234.425L814.459 235.131ZM808.525 234.5L808.042 235.15L808.046 235.151L808.525 234.5ZM802.723 232.139L803.589 231.639C801.374 230.361 799.967 229.031 799.297 227.653L798.117 227.844L796.938 228.035C797.744 229.691 799.407 231.225 801.857 232.639L802.723 232.139ZM798.117 227.844L799.299 227.657C798.644 226.274 798.695 224.89 799.462 223.489L798.295 223.276L797.127 223.063C796.221 224.718 796.154 226.379 796.936 228.03L798.117 227.844ZM798.295 223.276L799.462 223.49C800.237 222.084 801.735 220.721 804.017 219.403L803.151 218.903L802.285 218.403C799.785 219.847 798.045 221.399 797.128 223.061L798.295 223.276ZM803.151 218.903L804.017 219.403C806.236 218.122 808.573 217.27 811.025 216.815L810.65 216.142L810.276 215.469C807.393 216.003 804.731 216.991 802.285 218.403L803.151 218.903ZM810.65 216.142L811.025 216.815C813.482 216.36 815.896 216.31 818.294 216.657L818.592 215.972L818.89 215.286C816.033 214.872 813.153 214.936 810.276 215.469L810.65 216.142ZM818.592 215.972L818.291 216.657C820.683 217.007 822.926 217.769 825.018 218.977L825.884 218.477L826.75 217.977C824.395 216.617 821.776 215.708 818.893 215.286L818.592 215.972ZM825.884 218.477L825.018 218.977C826.42 219.786 827.483 220.661 828.224 221.6L829.339 221.307L830.453 221.014C829.58 219.908 828.341 218.896 826.75 217.977L825.884 218.477ZM829.339 221.307L828.229 221.606C828.982 222.538 829.36 223.503 829.369 224.506L830.593 224.503L831.818 224.499C831.807 223.287 831.349 222.121 830.449 221.008L829.339 221.307ZM830.593 224.503L829.369 224.51C829.386 225.507 828.991 226.536 828.15 227.602L829.265 227.895L830.379 228.188C831.349 226.959 831.84 225.726 831.818 224.496L830.593 224.503ZM829.265 227.895L828.149 227.603C827.328 228.651 826.012 229.71 824.162 230.778L825.028 231.278L825.894 231.778C827.902 230.619 829.411 229.423 830.381 228.187L829.265 227.895ZM825.028 231.278L824.162 230.778L822.435 231.776L823.301 232.276L824.167 232.776L825.894 231.778L825.028 231.278ZM823.301 232.276L824.167 231.776L805.021 220.722L804.155 221.222L803.289 221.722L822.435 232.776L823.301 232.276ZM804.155 221.222L805.021 221.722L808.918 219.472L808.052 218.972L807.186 218.472L803.289 220.722L804.155 221.222ZM808.052 218.972L807.186 219.472L820.413 227.108L821.279 226.608L822.145 226.108L808.918 218.472L808.052 218.972ZM821.279 226.608L822.145 227.108C823.18 226.511 823.905 225.83 824.274 225.068L823.094 224.878L821.915 224.688C821.673 225.187 821.189 225.66 820.413 226.108L821.279 226.608ZM823.094 224.878L824.274 225.068C824.639 224.313 824.639 223.551 824.274 222.796L823.094 222.986L821.915 223.176C822.16 223.682 822.16 224.181 821.915 224.688L823.094 224.878ZM823.094 222.986L824.279 222.807C823.931 222.038 823.206 221.351 822.16 220.747L821.294 221.247L820.427 221.747C821.212 222.2 821.687 222.672 821.909 223.165L823.094 222.986ZM821.294 221.247L822.16 220.747C821.066 220.116 819.806 219.684 818.387 219.479L818.09 220.165L817.793 220.851C818.736 220.987 819.612 221.276 820.427 221.747L821.294 221.247ZM818.09 220.165L818.392 219.479C817.023 219.278 815.647 219.289 814.289 219.51L814.621 220.19L814.954 220.871C815.898 220.717 816.835 220.71 817.788 220.85L818.09 220.165ZM814.621 220.19L814.295 219.509C812.94 219.725 811.737 220.136 810.694 220.725L811.551 221.23L812.407 221.736C813.175 221.302 814.019 221.02 814.947 220.872L814.621 220.19ZM811.551 221.23L810.685 220.73L806.979 222.869L807.846 223.369L808.712 223.869L812.417 221.73L811.551 221.23ZM807.846 223.369L806.979 222.869C805.752 223.578 804.869 224.349 804.394 225.186L805.557 225.406L806.721 225.627C807.053 225.043 807.695 224.456 808.712 223.869L807.846 223.369ZM805.557 225.406L804.39 225.192C803.928 226.032 803.883 226.877 804.271 227.712L805.454 227.528L806.637 227.345C806.375 226.782 806.399 226.212 806.725 225.62L805.557 225.406ZM805.454 227.528L804.271 227.712C804.661 228.551 805.479 229.31 806.655 229.989L807.521 229.489L808.387 228.989C807.457 228.452 806.896 227.903 806.637 227.345L805.454 227.528ZM807.521 229.489L806.655 229.989C807.435 230.439 808.28 230.8 809.193 231.06L809.735 230.426L810.277 229.792C809.635 229.609 809.004 229.345 808.387 228.989L807.521 229.489ZM809.735 230.426L809.193 231.06C810.118 231.324 811.084 231.468 812.082 231.482L812.112 230.776L812.142 230.069C811.525 230.06 810.907 229.972 810.277 229.792L809.735 230.426ZM812.112 230.776L812.082 231.482C813.085 231.497 814.063 231.376 815.006 231.131L814.503 230.486L814 229.841C813.369 230.005 812.753 230.077 812.142 230.069L812.112 230.776ZM814.503 230.486L813.582 230.952L819.014 234.531L819.935 234.065L820.857 233.599L815.424 230.02L814.503 230.486ZM819.935 234.065L819.267 233.473C817.745 234.045 816.121 234.359 814.379 234.425L814.459 235.131L814.539 235.836C816.713 235.754 818.74 235.358 820.604 234.658L819.935 234.065ZM814.459 235.131L814.378 234.425C812.654 234.491 810.867 234.306 809.003 233.849L808.525 234.5L808.046 235.151C810.217 235.683 812.386 235.918 814.539 235.836L814.459 235.131ZM808.525 234.5L809.007 233.85C807.18 233.398 805.372 232.669 803.589 231.639L802.723 232.139L801.857 232.639C803.814 233.769 805.874 234.613 808.042 235.15L808.525 234.5ZM845.2 229.97L846.37 230.18L846.59 229.772L846.066 229.47L845.2 229.97ZM841.436 236.95L840.267 236.74L839.582 238.01L841.788 237.628L841.436 236.95ZM853.629 234.837L854.495 234.337L853.978 234.038L853.277 234.159L853.629 234.837ZM860.08 238.561L860.395 239.244L862.449 238.929L860.946 238.061L860.08 238.561ZM842.174 241.314L841.859 240.631L841.164 240.737L840.987 241.14L842.174 241.314ZM837.583 251.754L836.717 252.254L838.24 253.134L838.77 251.928L837.583 251.754ZM831.162 248.047L829.98 247.86L829.793 248.257L830.296 248.547L831.162 248.047ZM834.527 240.939L835.709 241.125L836.28 239.92L834.196 240.258L834.527 240.939ZM822.29 242.925L821.424 243.425L821.931 243.717L822.621 243.605L822.29 242.925ZM815.795 239.175L815.492 238.49L813.407 238.796L814.929 239.675L815.795 239.175ZM833.863 236.516L834.166 237.201L834.858 237.099L835.045 236.701L833.863 236.516ZM838.705 226.22L839.571 225.72L838.077 224.857L837.523 226.035L838.705 226.22ZM845.2 229.97L844.031 229.76L840.267 236.74L841.436 236.95L842.605 237.16L846.37 230.18L845.2 229.97ZM841.436 236.95L841.788 237.628L853.981 235.514L853.629 234.837L853.277 234.159L841.084 236.273L841.436 236.95ZM853.629 234.837L852.763 235.337L859.214 239.061L860.08 238.561L860.946 238.061L854.495 234.337L853.629 234.837ZM860.08 238.561L859.765 237.878L841.859 240.631L842.174 241.314L842.489 241.997L860.395 239.244L860.08 238.561ZM842.174 241.314L840.987 241.14L836.396 251.58L837.583 251.754L838.77 251.928L843.361 241.488L842.174 241.314ZM837.583 251.754L838.449 251.254L832.028 247.547L831.162 248.047L830.296 248.547L836.717 252.254L837.583 251.754ZM831.162 248.047L832.343 248.233L835.709 241.125L834.527 240.939L833.346 240.752L829.98 247.86L831.162 248.047ZM834.527 240.939L834.196 240.258L821.959 242.244L822.29 242.925L822.621 243.605L834.859 241.62L834.527 240.939ZM822.29 242.925L823.156 242.425L816.661 238.675L815.795 239.175L814.929 239.675L821.424 243.425L822.29 242.925ZM815.795 239.175L816.097 239.86L834.166 237.201L833.863 236.516L833.561 235.83L815.492 238.49L815.795 239.175ZM833.863 236.516L835.045 236.701L839.887 226.405L838.705 226.22L837.523 226.035L832.681 236.33L833.863 236.516ZM838.705 226.22L837.839 226.72L844.334 230.47L845.2 229.97L846.066 229.47L839.571 225.72L838.705 226.22ZM875.875 247.68L876.741 248.18L877.607 247.68L876.741 247.18L875.875 247.68ZM871.151 250.408L870.285 250.908L871.151 251.408L872.018 250.908L871.151 250.408ZM857.497 242.524L856.631 242.024L855.765 242.524L856.631 243.024L857.497 242.524ZM862.221 239.797L863.087 239.297L862.221 238.797L861.355 239.297L862.221 239.797ZM870.753 238.45L871.619 237.95L870.753 237.45L869.887 237.95L870.753 238.45ZM877.041 242.081L877.907 242.581L878.773 242.081L877.907 241.581L877.041 242.081ZM854.81 255.223L853.635 255.023L853.631 255.032L854.81 255.223ZM854.884 256.033L853.756 256.308L853.761 256.315L854.884 256.033ZM856.773 257.26L856.062 257.835L856.078 257.842L856.094 257.848L856.773 257.26ZM857.585 257.575L858.612 257.961L859.265 257.382L858.277 256.992L857.585 257.575ZM853.895 260.848L853.327 261.474L854.314 261.773L854.921 261.234L853.895 260.848ZM852.227 260.277L852.883 259.68L852.874 259.677L852.866 259.674L852.227 260.277ZM849.894 259.22L850.729 258.702L850.726 258.701L849.894 259.22ZM846.514 256.57L845.385 256.843L845.386 256.845L846.514 256.57ZM846.027 253.8L847.224 253.948V253.948L846.027 253.8ZM848.787 251.132L849.648 251.635L849.653 251.632L848.787 251.132ZM875.875 247.68L875.009 247.18L870.285 249.908L871.151 250.408L872.018 250.908L876.741 248.18L875.875 247.68ZM871.151 250.408L872.018 249.908L858.363 242.024L857.497 242.524L856.631 243.024L870.285 250.908L871.151 250.408ZM857.497 242.524L858.363 243.024L863.087 240.297L862.221 239.797L861.355 239.297L856.631 242.024L857.497 242.524ZM862.221 239.797L861.355 240.297L875.009 248.18L875.875 247.68L876.741 247.18L863.087 239.297L862.221 239.797ZM870.753 238.45L869.887 238.95L876.175 242.581L877.041 242.081L877.907 241.581L871.619 237.95L870.753 238.45ZM877.041 242.081L876.175 241.581L855.037 253.786L855.903 254.286L856.769 254.786L877.907 242.581L877.041 242.081ZM855.903 254.286L855.037 253.786C854.386 254.161 853.865 254.573 853.635 255.023L854.81 255.223L855.985 255.423C856.051 255.293 856.258 255.08 856.769 254.786L855.903 254.286ZM854.81 255.223L853.631 255.032C853.423 255.46 853.454 255.895 853.756 256.308L854.884 256.033L856.012 255.758C855.94 255.659 855.921 255.554 855.99 255.414L854.81 255.223ZM854.884 256.033L853.761 256.315C854.03 256.673 854.439 256.997 854.948 257.291L855.814 256.791L856.68 256.291C856.343 256.097 856.131 255.915 856.007 255.751L854.884 256.033ZM855.814 256.791L854.948 257.291C855.292 257.49 855.663 257.671 856.062 257.835L856.773 257.26L857.485 256.685C857.195 256.565 856.927 256.434 856.68 256.291L855.814 256.791ZM856.773 257.26L856.094 257.848C856.447 257.984 856.713 258.087 856.894 258.159L857.585 257.575L858.277 256.992C858.084 256.915 857.808 256.808 857.453 256.672L856.773 257.26ZM857.585 257.575L856.559 257.189L852.869 260.462L853.895 260.848L854.921 261.234L858.612 257.961L857.585 257.575ZM853.895 260.848L854.463 260.222C854.094 260.11 853.571 259.932 852.883 259.68L852.227 260.277L851.571 260.874C852.28 261.134 852.869 261.336 853.327 261.474L853.895 260.848ZM852.227 260.277L852.866 259.674C852.248 259.456 851.536 259.136 850.729 258.702L849.894 259.22L849.06 259.738C849.945 260.213 850.788 260.598 851.588 260.88L852.227 260.277ZM849.894 259.22L850.726 258.701C849.25 257.913 848.239 257.109 847.642 256.294L846.514 256.57L845.386 256.845C846.147 257.883 847.39 258.846 849.063 259.739L849.894 259.22ZM846.514 256.57L847.643 256.296C847.066 255.501 846.935 254.725 847.224 253.948L846.027 253.8L844.829 253.651C844.429 254.727 844.624 255.797 845.385 256.843L846.514 256.57ZM846.027 253.8L847.224 253.948C847.506 253.19 848.274 252.418 849.648 251.635L848.787 251.132L847.927 250.629C846.309 251.551 845.236 252.557 844.829 253.651L846.027 253.8ZM848.787 251.132L849.653 251.632L871.619 238.95L870.753 238.45L869.887 237.95L847.921 250.632L848.787 251.132Z" fill="#0067B4" mask="url(#path-16-outside-1_4157_54971)"/>
<g clip-path="url(#clip0_4157_54971)">
<rect width="91" height="40" transform="matrix(0.866025 0.5 -0.866025 0.5 551.352 20.4221)" fill="#0067B4"/>
<path d="M547.262 44.0613L557.339 38.2431L561.03 40.3738C561.745 40.7867 562.219 41.1967 562.452 41.6039C562.688 42.0092 562.723 42.3947 562.555 42.7602C562.391 43.1238 562.06 43.4496 561.561 43.7375C561.141 43.9799 560.71 44.1399 560.267 44.2176C559.828 44.2933 559.391 44.3066 558.958 44.2573C558.532 44.2081 558.125 44.1172 557.738 43.9846L557.64 44.0414C557.958 44.2441 558.176 44.495 558.294 44.7943C558.419 45.0935 558.404 45.4089 558.25 45.7403C558.096 46.0717 557.758 46.388 557.236 46.6892C556.721 46.9865 556.137 47.1835 555.484 47.2801C554.838 47.3767 554.144 47.3492 553.403 47.1977C552.665 47.0443 551.905 46.7422 551.125 46.2914L547.262 44.0613ZM550.086 44.1863L552.281 45.4534C553.009 45.8738 553.672 46.0935 554.269 46.1125C554.866 46.1314 555.376 46.0187 555.799 45.7744C556.118 45.5907 556.329 45.3757 556.434 45.1295C556.539 44.8833 556.521 44.6286 556.38 44.3653C556.242 44.1039 555.97 43.8558 555.563 43.621L553.314 42.3227L550.086 44.1863ZM554.5 41.638L556.537 42.8142C556.879 43.0111 557.251 43.1503 557.654 43.2318C558.061 43.3151 558.463 43.335 558.86 43.2914C559.263 43.2479 559.628 43.1323 559.952 42.9448C560.369 42.7043 560.572 42.4183 560.562 42.0869C560.553 41.7555 560.246 41.4155 559.642 41.067L557.566 39.8681L554.5 41.638ZM564.132 50.1821L568.556 47.6281L570.032 48.4804L562.474 52.844L561.027 52.0088L562.336 51.2531L562.258 51.2076C561.68 51.3402 561.065 51.3734 560.412 51.3071C559.766 51.2408 559.159 51.0438 558.592 50.7162C558.106 50.4359 557.783 50.1262 557.622 49.7872C557.468 49.4482 557.496 49.0949 557.706 48.7275C557.919 48.362 558.338 47.9993 558.961 47.6394L563.768 44.8639L565.239 45.7133L560.609 48.3866C560.094 48.684 559.827 49.0031 559.807 49.344C559.787 49.6849 560.006 49.987 560.462 50.2502C560.737 50.4093 561.08 50.5277 561.49 50.6054C561.903 50.6849 562.34 50.6963 562.799 50.6394C563.261 50.5845 563.706 50.4321 564.132 50.1821ZM575.537 51.6586L574.356 52.3404L570.228 49.9569L571.409 49.2751L575.537 51.6586ZM574.327 48.8689L575.798 49.7183L568.648 53.8461C568.363 54.0109 568.191 54.1596 568.132 54.2921C568.076 54.4228 568.089 54.5421 568.171 54.6501C568.26 54.7581 568.384 54.8584 568.545 54.9512C568.663 55.0194 568.775 55.0743 568.879 55.116C568.984 55.1577 569.066 55.1899 569.126 55.2126L568.176 56.0677C568.058 56.0374 567.904 55.9863 567.713 55.9143C567.52 55.8442 567.303 55.742 567.064 55.6075C566.67 55.3878 566.378 55.1397 566.188 54.8632C565.998 54.5867 565.95 54.3016 566.045 54.0081C566.14 53.7145 566.416 53.4361 566.872 53.1728L574.327 48.8689ZM580.693 54.6352L579.512 55.317L575.383 52.9335L576.564 52.2517L580.693 54.6352ZM579.482 51.8454L580.953 52.6948L573.804 56.8227C573.518 56.9875 573.346 57.1361 573.287 57.2687C573.231 57.3994 573.244 57.5187 573.326 57.6267C573.415 57.7346 573.54 57.835 573.7 57.9278C573.819 57.996 573.93 58.0509 574.035 58.0926C574.14 58.1342 574.222 58.1664 574.281 58.1892L573.331 59.0443C573.213 59.014 573.059 58.9628 572.869 58.8909C572.675 58.8208 572.459 58.7185 572.219 58.5841C571.826 58.3644 571.534 58.1162 571.343 57.8397C571.153 57.5632 571.106 57.2782 571.201 56.9846C571.296 56.6911 571.571 56.4127 572.027 56.1494L579.482 51.8454ZM577.712 61.8177C577.003 61.4086 576.547 60.9579 576.344 60.4654C576.141 59.973 576.185 59.474 576.477 58.9683C576.769 58.4626 577.305 57.9844 578.086 57.5336C578.87 57.081 579.702 56.7694 580.581 56.599C581.46 56.4285 582.326 56.402 583.179 56.5194C584.032 56.6368 584.812 56.9001 585.521 57.3092C586.23 57.7183 586.686 58.169 586.889 58.6615C587.092 59.1539 587.046 59.6539 586.751 60.1615C586.456 60.669 585.916 61.1492 585.132 61.6018C584.351 62.0526 583.523 62.3622 582.647 62.5308C581.771 62.6993 580.907 62.7249 580.054 62.6075C579.201 62.4901 578.421 62.2268 577.712 61.8177ZM578.952 61.1075C579.411 61.3726 579.913 61.5223 580.458 61.5564C581.002 61.5904 581.548 61.5327 582.096 61.3831C582.647 61.2353 583.166 61.0213 583.651 60.741C584.133 60.4626 584.502 60.1643 584.758 59.8461C585.021 59.5279 585.124 59.2107 585.068 58.8944C585.013 58.5781 584.755 58.2874 584.296 58.0223C583.833 57.7552 583.326 57.6046 582.775 57.5706C582.227 57.5384 581.676 57.5971 581.122 57.7467C580.574 57.8963 580.059 58.1103 579.577 58.3887C579.091 58.669 578.719 58.9673 578.46 59.2836C578.204 59.6018 578.106 59.9181 578.165 60.2325C578.227 60.5488 578.489 60.8404 578.952 61.1075ZM588.989 62.9704L584.501 65.5613L583.03 64.7119L590.588 60.3483L592 61.1636L590.77 61.8738L590.864 61.9278C591.438 61.7971 592.031 61.7687 592.645 61.8426C593.261 61.9183 593.854 62.12 594.421 62.4477C594.936 62.745 595.279 63.068 595.449 63.4164C595.623 63.763 595.605 64.12 595.395 64.4875C595.185 64.8549 594.769 65.2185 594.146 65.5784L589.338 68.3539L587.867 67.5045L592.497 64.8312C593.045 64.5149 593.33 64.1854 593.353 63.8426C593.38 63.4979 593.143 63.1816 592.645 62.8937C592.304 62.6967 591.926 62.5642 591.513 62.496C591.103 62.4297 590.678 62.4344 590.239 62.5102C589.806 62.5859 589.389 62.7394 588.989 62.9704Z" fill="white"/>
</g>
<defs>
<clipPath id="clip0_4157_54971">
<rect width="91" height="40" fill="transparent" transform="matrix(0.866025 0.5 -0.866025 0.5 551.352 20.4221)"/>
</clipPath>
</defs>
</svg>
