<svg width="243" height="21" viewBox="0 0 243 21" fill="none" xmlns="http://www.w3.org/2000/svg">
<path d="M16.8827 12.9648C16.8044 13.9351 16.5655 14.8862 16.1757 15.7782C15.8061 16.6219 15.2713 17.3834 14.6034 18.0175C13.897 18.6726 13.0641 19.1755 12.1556 19.496C11.0714 19.8705 9.92951 20.0511 8.78259 20.0292C7.47965 20.0559 6.18516 19.811 4.9823 19.3095C3.9229 18.8551 2.98344 18.1613 2.23669 17.2831C1.46685 16.3571 0.897158 15.2813 0.564327 14.1239C0.177487 12.7948 -0.012189 11.4163 0.00133892 10.0321C-0.018849 8.62167 0.18938 7.21703 0.61755 5.87297C0.987233 4.71715 1.58555 3.64805 2.37732 2.72844C3.13799 1.86007 4.0862 1.17614 5.15026 0.728436C6.31702 0.250785 7.5689 0.0149671 8.82946 0.0360534C9.89996 0.015235 10.9669 0.168025 11.9886 0.488202C12.8295 0.757517 13.6029 1.20346 14.2567 1.7968C14.8797 2.37822 15.3828 3.0767 15.7377 3.85148C16.1274 4.70835 16.4038 5.61174 16.5604 6.53996L12.6156 7.0468C12.4909 6.07851 12.0983 5.16458 11.4823 4.40715C11.1359 4.0647 10.7196 3.80141 10.2616 3.63566C9.80355 3.46992 9.3148 3.40571 8.82946 3.44719C8.15076 3.41081 7.47397 3.54942 6.86462 3.85051C6.25527 4.15159 5.7339 4.60474 5.35046 5.16594C4.47649 6.63246 4.06326 8.32795 4.16442 10.0321C4.05594 11.7515 4.49961 13.4605 5.43054 14.9101C5.81206 15.4534 6.32207 15.8934 6.9154 16.1913C7.50873 16.4892 8.16679 16.6357 8.83044 16.6171C9.32268 16.659 9.81819 16.5965 10.2845 16.4335C10.7509 16.2705 11.1776 16.0103 11.5365 15.6708C12.1712 14.9043 12.5491 13.9577 12.6166 12.9648H16.8827Z" fill="#1B2021"/>
<path d="M19.4028 0.515625H23.3755V19.5488H19.4028V0.515625Z" fill="#1B2021"/>
<path d="M31.6274 3.95703H25.8965V0.516602H41.3584V3.95703H35.6274V19.5498H31.6274V3.95703Z" fill="#1B2021"/>
<path d="M49.2588 11.791L42.6738 0.516602H47.0986L51.1987 8.22168L55.4365 0.516602H59.6484L53.2266 11.791V19.5498H49.2534L49.2588 11.791Z" fill="#1B2021"/>
<path d="M67.5366 0.515625H69.1626V19.5488H67.5366V0.515625Z" fill="#1B2021"/>
<path d="M73.4634 0.515625H75.2495L85.9126 16.9912V0.515625H87.4844V19.5488H85.7275L75.0376 3.02148V19.5488H73.4634V0.515625Z" fill="#1B2021"/>
<path d="M96.8857 2.00781H90.2744V0.516602H105.098V2.00781H98.5127V19.5498H96.8867L96.8857 2.00781Z" fill="#1B2021"/>
<path d="M108.204 0.515625H120.175V1.98145H109.832V8.96387H119.642V10.4854H109.832V18.0576H120.632L120.259 19.5488H108.205L108.204 0.515625Z" fill="#1B2021"/>
<path d="M124.109 0.515625H125.736V18.0312H136.075L135.728 19.5498H124.105L124.109 0.515625Z" fill="#1B2021"/>
<path d="M138.785 0.515625H140.41V18.0312H150.752L150.406 19.5498H138.785V0.515625Z" fill="#1B2021"/>
<path d="M154.261 0.515625H155.887V19.5488H154.261V0.515625Z" fill="#1B2021"/>
<path d="M168.142 10.1385H175.126V17.492C174.659 17.9422 174.135 18.3299 173.567 18.6444C172.997 18.9605 172.4 19.2237 171.782 19.4305C171.169 19.6344 170.541 19.7851 169.903 19.8827C169.283 19.9783 168.658 20.0273 168.031 20.0282C166.787 20.047 165.552 19.8246 164.393 19.3739C163.341 18.9551 162.401 18.2983 161.646 17.4549C160.858 16.5483 160.269 15.4854 159.918 14.3358C159.497 12.9587 159.295 11.5239 159.319 10.0838C159.294 8.61323 159.514 7.14878 159.972 5.75083C160.352 4.5938 160.959 3.52474 161.758 2.60532C162.496 1.77317 163.412 1.11744 164.437 0.686375C165.493 0.245937 166.626 0.0231797 167.77 0.0320785C169.369 -0.128288 170.971 0.316509 172.259 1.27915C173.546 2.24179 174.427 3.65255 174.726 5.23227L173.207 5.57993C173.039 5.00183 172.811 4.44306 172.526 3.91294C172.259 3.41658 171.903 2.97417 171.475 2.60727C171.018 2.22739 170.493 1.93739 169.928 1.75376C169.229 1.53584 168.499 1.43253 167.768 1.44712C166.758 1.42712 165.757 1.64608 164.849 2.08677C164.012 2.50695 163.286 3.11865 162.729 3.87192C162.132 4.69031 161.692 5.61191 161.43 6.59067C161.127 7.71193 160.979 8.86977 160.991 10.0311C160.979 11.1972 161.125 12.3597 161.423 13.4872C161.677 14.4654 162.121 15.3845 162.729 16.1922C163.309 16.9512 164.064 17.5586 164.929 17.9637C165.902 18.4007 166.962 18.6146 168.029 18.5897C169.034 18.5909 170.034 18.4528 171.001 18.1776C171.931 17.9215 172.804 17.4914 173.575 16.911V11.6112H168.136L168.142 10.1385Z" fill="#1B2021"/>
<path d="M178.857 0.515625H190.828V1.98145H180.484V8.96387H190.295V10.4854H180.484V18.0576H191.285L190.912 19.5488H178.863L178.857 0.515625Z" fill="#1B2021"/>
<path d="M194.892 0.515625H196.678L207.34 16.9912V0.515625H208.913V19.5488H207.155L196.463 3.02148V19.5488H194.892V0.515625Z" fill="#1B2021"/>
<path d="M227.762 13.4444C227.648 14.3465 227.401 15.227 227.029 16.0567C226.676 16.84 226.173 17.5467 225.548 18.1368C224.891 18.7438 224.121 19.2146 223.282 19.5225C221.17 20.2415 218.871 20.1943 216.791 19.3887C215.775 18.967 214.871 18.3142 214.15 17.4825C213.374 16.5685 212.79 15.5077 212.432 14.3633C212.001 12.9793 211.795 11.5351 211.82 10.086C211.794 8.61457 212.02 7.14951 212.487 5.75396C212.875 4.59759 213.487 3.5292 214.287 2.60846C215.015 1.78338 215.916 1.12835 216.926 0.689512C217.94 0.251599 219.034 0.0286078 220.139 0.0352151C221.153 0.0135339 222.163 0.167225 223.125 0.489317C223.91 0.76144 224.632 1.19164 225.245 1.75397C225.828 2.30531 226.303 2.96192 226.645 3.68854C227.011 4.4673 227.296 5.28125 227.496 6.11822L225.95 6.46588C225.773 5.74074 225.526 5.03505 225.212 4.35748C224.941 3.76735 224.561 3.23367 224.092 2.78522C223.621 2.3477 223.064 2.01199 222.458 1.79986C221.71 1.55172 220.925 1.43465 220.138 1.45318C219.167 1.43348 218.205 1.65124 217.337 2.08795C216.518 2.51688 215.807 3.12756 215.259 3.87311C214.663 4.69302 214.22 5.61401 213.953 6.59186C213.641 7.71155 213.488 8.87 213.499 10.0323C213.486 11.1989 213.634 12.3619 213.938 13.4883C214.198 14.4614 214.632 15.3796 215.218 16.1993C215.762 16.9505 216.48 17.5592 217.311 17.9727C218.208 18.4036 219.194 18.618 220.189 18.5987C221.072 18.6211 221.952 18.4895 222.79 18.211C223.439 17.9854 224.029 17.6161 224.517 17.1309C224.976 16.6592 225.339 16.1024 225.585 15.4913C225.85 14.8345 226.043 14.1507 226.16 13.4522L227.762 13.4444Z" fill="#1B2021"/>
<path d="M230.521 0.515625H242.491V1.98145H232.147V8.96387H241.958V10.4854H232.147V18.0576H242.948L242.575 19.5488H230.524L230.521 0.515625Z" fill="#1B2021"/>
</svg>
