<svg width="203" height="37" viewBox="0 0 203 37" fill="none" xmlns="http://www.w3.org/2000/svg">
<path d="M3.29883 11H1.51758L1.5293 10.0801H3.29883C3.9082 10.0801 4.41602 9.95312 4.82227 9.69922C5.22852 9.44141 5.5332 9.08203 5.73633 8.62109C5.94336 8.15625 6.04688 7.61328 6.04688 6.99219V6.4707C6.04688 5.98242 5.98828 5.54883 5.87109 5.16992C5.75391 4.78711 5.58203 4.46484 5.35547 4.20312C5.12891 3.9375 4.85156 3.73633 4.52344 3.59961C4.19922 3.46289 3.82617 3.39453 3.4043 3.39453H1.48242V2.46875H3.4043C3.96289 2.46875 4.47266 2.5625 4.93359 2.75C5.39453 2.93359 5.79102 3.20117 6.12305 3.55273C6.45898 3.90039 6.7168 4.32227 6.89648 4.81836C7.07617 5.31055 7.16602 5.86523 7.16602 6.48242V6.99219C7.16602 7.60938 7.07617 8.16602 6.89648 8.66211C6.7168 9.1543 6.45703 9.57422 6.11719 9.92188C5.78125 10.2695 5.375 10.5371 4.89844 10.7246C4.42578 10.9082 3.89258 11 3.29883 11ZM2.12109 2.46875V11H0.990234V2.46875H2.12109ZM11.332 11.1172C10.8906 11.1172 10.4902 11.043 10.1309 10.8945C9.77539 10.7422 9.46875 10.5293 9.21094 10.2559C8.95703 9.98242 8.76172 9.6582 8.625 9.2832C8.48828 8.9082 8.41992 8.49805 8.41992 8.05273V7.80664C8.41992 7.29102 8.49609 6.83203 8.64844 6.42969C8.80078 6.02344 9.00781 5.67969 9.26953 5.39844C9.53125 5.11719 9.82812 4.9043 10.1602 4.75977C10.4922 4.61523 10.8359 4.54297 11.1914 4.54297C11.6445 4.54297 12.0352 4.62109 12.3633 4.77734C12.6953 4.93359 12.9668 5.15234 13.1777 5.43359C13.3887 5.71094 13.5449 6.03906 13.6465 6.41797C13.748 6.79297 13.7988 7.20312 13.7988 7.64844V8.13477H9.06445V7.25H12.7148V7.16797C12.6992 6.88672 12.6406 6.61328 12.5391 6.34766C12.4414 6.08203 12.2852 5.86328 12.0703 5.69141C11.8555 5.51953 11.5625 5.43359 11.1914 5.43359C10.9453 5.43359 10.7188 5.48633 10.5117 5.5918C10.3047 5.69336 10.127 5.8457 9.97852 6.04883C9.83008 6.25195 9.71484 6.5 9.63281 6.79297C9.55078 7.08594 9.50977 7.42383 9.50977 7.80664V8.05273C9.50977 8.35352 9.55078 8.63672 9.63281 8.90234C9.71875 9.16406 9.8418 9.39453 10.002 9.59375C10.166 9.79297 10.3633 9.94922 10.5938 10.0625C10.8281 10.1758 11.0938 10.2324 11.3906 10.2324C11.7734 10.2324 12.0977 10.1543 12.3633 9.99805C12.6289 9.8418 12.8613 9.63281 13.0605 9.37109L13.7168 9.89258C13.5801 10.0996 13.4062 10.2969 13.1953 10.4844C12.9844 10.6719 12.7246 10.8242 12.416 10.9414C12.1113 11.0586 11.75 11.1172 11.332 11.1172ZM18.7559 9.31836C18.7559 9.16211 18.7207 9.01758 18.6504 8.88477C18.584 8.74805 18.4453 8.625 18.2344 8.51562C18.0273 8.40234 17.7148 8.30469 17.2969 8.22266C16.9453 8.14844 16.627 8.06055 16.3418 7.95898C16.0605 7.85742 15.8203 7.73438 15.6211 7.58984C15.4258 7.44531 15.2754 7.27539 15.1699 7.08008C15.0645 6.88477 15.0117 6.65625 15.0117 6.39453C15.0117 6.14453 15.0664 5.9082 15.1758 5.68555C15.2891 5.46289 15.4473 5.26562 15.6504 5.09375C15.8574 4.92188 16.1055 4.78711 16.3945 4.68945C16.6836 4.5918 17.0059 4.54297 17.3613 4.54297C17.8691 4.54297 18.3027 4.63281 18.6621 4.8125C19.0215 4.99219 19.2969 5.23242 19.4883 5.5332C19.6797 5.83008 19.7754 6.16016 19.7754 6.52344H18.6914C18.6914 6.34766 18.6387 6.17773 18.5332 6.01367C18.4316 5.8457 18.2812 5.70703 18.082 5.59766C17.8867 5.48828 17.6465 5.43359 17.3613 5.43359C17.0605 5.43359 16.8164 5.48047 16.6289 5.57422C16.4453 5.66406 16.3105 5.7793 16.2246 5.91992C16.1426 6.06055 16.1016 6.20898 16.1016 6.36523C16.1016 6.48242 16.1211 6.58789 16.1602 6.68164C16.2031 6.77148 16.2773 6.85547 16.3828 6.93359C16.4883 7.00781 16.6367 7.07812 16.8281 7.14453C17.0195 7.21094 17.2637 7.27734 17.5605 7.34375C18.0801 7.46094 18.5078 7.60156 18.8438 7.76562C19.1797 7.92969 19.4297 8.13086 19.5938 8.36914C19.7578 8.60742 19.8398 8.89648 19.8398 9.23633C19.8398 9.51367 19.7812 9.76758 19.6641 9.99805C19.5508 10.2285 19.3848 10.4277 19.166 10.5957C18.9512 10.7598 18.6934 10.8887 18.3926 10.9824C18.0957 11.0723 17.7617 11.1172 17.3906 11.1172C16.832 11.1172 16.3594 11.0176 15.9727 10.8184C15.5859 10.6191 15.293 10.3613 15.0938 10.0449C14.8945 9.72852 14.7949 9.39453 14.7949 9.04297H15.8848C15.9004 9.33984 15.9863 9.57617 16.1426 9.75195C16.2988 9.92383 16.4902 10.0469 16.7168 10.1211C16.9434 10.1914 17.168 10.2266 17.3906 10.2266C17.6875 10.2266 17.9355 10.1875 18.1348 10.1094C18.3379 10.0312 18.4922 9.92383 18.5977 9.78711C18.7031 9.65039 18.7559 9.49414 18.7559 9.31836ZM22.4414 4.66016V11H21.3516V4.66016H22.4414ZM21.2695 2.97852C21.2695 2.80273 21.3223 2.6543 21.4277 2.5332C21.5371 2.41211 21.6973 2.35156 21.9082 2.35156C22.1152 2.35156 22.2734 2.41211 22.3828 2.5332C22.4961 2.6543 22.5527 2.80273 22.5527 2.97852C22.5527 3.14648 22.4961 3.29102 22.3828 3.41211C22.2734 3.5293 22.1152 3.58789 21.9082 3.58789C21.6973 3.58789 21.5371 3.5293 21.4277 3.41211C21.3223 3.29102 21.2695 3.14648 21.2695 2.97852ZM28.2891 4.66016H29.2734V10.8652C29.2734 11.4238 29.1602 11.9004 28.9336 12.2949C28.707 12.6895 28.3906 12.9883 27.9844 13.1914C27.582 13.3984 27.1172 13.502 26.5898 13.502C26.3711 13.502 26.1133 13.4668 25.8164 13.3965C25.5234 13.3301 25.2344 13.2148 24.9492 13.0508C24.668 12.8906 24.4316 12.6738 24.2402 12.4004L24.8086 11.7559C25.0742 12.0762 25.3516 12.2988 25.6406 12.4238C25.9336 12.5488 26.2227 12.6113 26.5078 12.6113C26.8516 12.6113 27.1484 12.5469 27.3984 12.418C27.6484 12.2891 27.8418 12.0977 27.9785 11.8438C28.1191 11.5938 28.1895 11.2852 28.1895 10.918V6.05469L28.2891 4.66016ZM23.9238 7.90039V7.77734C23.9238 7.29297 23.9805 6.85352 24.0938 6.45898C24.2109 6.06055 24.377 5.71875 24.5918 5.43359C24.8105 5.14844 25.0742 4.92969 25.3828 4.77734C25.6914 4.62109 26.0391 4.54297 26.4258 4.54297C26.8242 4.54297 27.1719 4.61328 27.4688 4.75391C27.7695 4.89062 28.0234 5.0918 28.2305 5.35742C28.4414 5.61914 28.6074 5.93555 28.7285 6.30664C28.8496 6.67773 28.9336 7.09766 28.9805 7.56641V8.10547C28.9375 8.57031 28.8535 8.98828 28.7285 9.35938C28.6074 9.73047 28.4414 10.0469 28.2305 10.3086C28.0234 10.5703 27.7695 10.7715 27.4688 10.9121C27.168 11.0488 26.8164 11.1172 26.4141 11.1172C26.0352 11.1172 25.6914 11.0371 25.3828 10.877C25.0781 10.7168 24.8164 10.4922 24.5977 10.2031C24.3789 9.91406 24.2109 9.57422 24.0938 9.18359C23.9805 8.78906 23.9238 8.36133 23.9238 7.90039ZM25.0078 7.77734V7.90039C25.0078 8.2168 25.0391 8.51367 25.1016 8.79102C25.168 9.06836 25.2676 9.3125 25.4004 9.52344C25.5371 9.73438 25.7109 9.90039 25.9219 10.0215C26.1328 10.1387 26.3848 10.1973 26.6777 10.1973C27.0371 10.1973 27.334 10.1211 27.5684 9.96875C27.8027 9.81641 27.9883 9.61523 28.125 9.36523C28.2656 9.11523 28.375 8.84375 28.4531 8.55078V7.13867C28.4102 6.92383 28.3438 6.7168 28.2539 6.51758C28.168 6.31445 28.0547 6.13477 27.9141 5.97852C27.7773 5.81836 27.6074 5.69141 27.4043 5.59766C27.2012 5.50391 26.9629 5.45703 26.6895 5.45703C26.3926 5.45703 26.1367 5.51953 25.9219 5.64453C25.7109 5.76562 25.5371 5.93359 25.4004 6.14844C25.2676 6.35938 25.168 6.60547 25.1016 6.88672C25.0391 7.16406 25.0078 7.46094 25.0078 7.77734ZM32.0039 6.01367V11H30.9199V4.66016H31.9453L32.0039 6.01367ZM31.7461 7.58984L31.2949 7.57227C31.2988 7.13867 31.3633 6.73828 31.4883 6.37109C31.6133 6 31.7891 5.67773 32.0156 5.4043C32.2422 5.13086 32.5117 4.91992 32.8242 4.77148C33.1406 4.61914 33.4902 4.54297 33.873 4.54297C34.1855 4.54297 34.4668 4.58594 34.7168 4.67188C34.9668 4.75391 35.1797 4.88672 35.3555 5.07031C35.5352 5.25391 35.6719 5.49219 35.7656 5.78516C35.8594 6.07422 35.9062 6.42773 35.9062 6.8457V11H34.8164V6.83398C34.8164 6.50195 34.7676 6.23633 34.6699 6.03711C34.5723 5.83398 34.4297 5.6875 34.2422 5.59766C34.0547 5.50391 33.8242 5.45703 33.5508 5.45703C33.2812 5.45703 33.0352 5.51367 32.8125 5.62695C32.5938 5.74023 32.4043 5.89648 32.2441 6.0957C32.0879 6.29492 31.9648 6.52344 31.875 6.78125C31.7891 7.03516 31.7461 7.30469 31.7461 7.58984ZM40.1836 11.1172C39.7422 11.1172 39.3418 11.043 38.9824 10.8945C38.627 10.7422 38.3203 10.5293 38.0625 10.2559C37.8086 9.98242 37.6133 9.6582 37.4766 9.2832C37.3398 8.9082 37.2715 8.49805 37.2715 8.05273V7.80664C37.2715 7.29102 37.3477 6.83203 37.5 6.42969C37.6523 6.02344 37.8594 5.67969 38.1211 5.39844C38.3828 5.11719 38.6797 4.9043 39.0117 4.75977C39.3438 4.61523 39.6875 4.54297 40.043 4.54297C40.4961 4.54297 40.8867 4.62109 41.2148 4.77734C41.5469 4.93359 41.8184 5.15234 42.0293 5.43359C42.2402 5.71094 42.3965 6.03906 42.498 6.41797C42.5996 6.79297 42.6504 7.20312 42.6504 7.64844V8.13477H37.916V7.25H41.5664V7.16797C41.5508 6.88672 41.4922 6.61328 41.3906 6.34766C41.293 6.08203 41.1367 5.86328 40.9219 5.69141C40.707 5.51953 40.4141 5.43359 40.043 5.43359C39.7969 5.43359 39.5703 5.48633 39.3633 5.5918C39.1562 5.69336 38.9785 5.8457 38.8301 6.04883C38.6816 6.25195 38.5664 6.5 38.4844 6.79297C38.4023 7.08594 38.3613 7.42383 38.3613 7.80664V8.05273C38.3613 8.35352 38.4023 8.63672 38.4844 8.90234C38.5703 9.16406 38.6934 9.39453 38.8535 9.59375C39.0176 9.79297 39.2148 9.94922 39.4453 10.0625C39.6797 10.1758 39.9453 10.2324 40.2422 10.2324C40.625 10.2324 40.9492 10.1543 41.2148 9.99805C41.4805 9.8418 41.7129 9.63281 41.9121 9.37109L42.5684 9.89258C42.4316 10.0996 42.2578 10.2969 42.0469 10.4844C41.8359 10.6719 41.5762 10.8242 41.2676 10.9414C40.9629 11.0586 40.6016 11.1172 40.1836 11.1172ZM47.9121 9.76953V2H49.002V11H48.0059L47.9121 9.76953ZM43.6465 7.90039V7.77734C43.6465 7.29297 43.7051 6.85352 43.8223 6.45898C43.9434 6.06055 44.1133 5.71875 44.332 5.43359C44.5547 5.14844 44.8184 4.92969 45.123 4.77734C45.4316 4.62109 45.7754 4.54297 46.1543 4.54297C46.5527 4.54297 46.9004 4.61328 47.1973 4.75391C47.498 4.89062 47.752 5.0918 47.959 5.35742C48.1699 5.61914 48.3359 5.93555 48.457 6.30664C48.5781 6.67773 48.6621 7.09766 48.709 7.56641V8.10547C48.666 8.57031 48.582 8.98828 48.457 9.35938C48.3359 9.73047 48.1699 10.0469 47.959 10.3086C47.752 10.5703 47.498 10.7715 47.1973 10.9121C46.8965 11.0488 46.5449 11.1172 46.1426 11.1172C45.7715 11.1172 45.4316 11.0371 45.123 10.877C44.8184 10.7168 44.5547 10.4922 44.332 10.2031C44.1133 9.91406 43.9434 9.57422 43.8223 9.18359C43.7051 8.78906 43.6465 8.36133 43.6465 7.90039ZM44.7363 7.77734V7.90039C44.7363 8.2168 44.7676 8.51367 44.8301 8.79102C44.8965 9.06836 44.998 9.3125 45.1348 9.52344C45.2715 9.73438 45.4453 9.90039 45.6562 10.0215C45.8672 10.1387 46.1191 10.1973 46.4121 10.1973C46.7715 10.1973 47.0664 10.1211 47.2969 9.96875C47.5312 9.81641 47.7188 9.61523 47.8594 9.36523C48 9.11523 48.1094 8.84375 48.1875 8.55078V7.13867C48.1406 6.92383 48.0723 6.7168 47.9824 6.51758C47.8965 6.31445 47.7832 6.13477 47.6426 5.97852C47.5059 5.81836 47.3359 5.69141 47.1328 5.59766C46.9336 5.50391 46.6973 5.45703 46.4238 5.45703C46.127 5.45703 45.8711 5.51953 45.6562 5.64453C45.4453 5.76562 45.2715 5.93359 45.1348 6.14844C44.998 6.35938 44.8965 6.60547 44.8301 6.88672C44.7676 7.16406 44.7363 7.46094 44.7363 7.77734ZM57.4043 9.91602V6.65234C57.4043 6.40234 57.3535 6.18555 57.252 6.00195C57.1543 5.81445 57.0059 5.66992 56.8066 5.56836C56.6074 5.4668 56.3613 5.41602 56.0684 5.41602C55.7949 5.41602 55.5547 5.46289 55.3477 5.55664C55.1445 5.65039 54.9844 5.77344 54.8672 5.92578C54.7539 6.07812 54.6973 6.24219 54.6973 6.41797H53.6133C53.6133 6.19141 53.6719 5.9668 53.7891 5.74414C53.9062 5.52148 54.0742 5.32031 54.293 5.14062C54.5156 4.95703 54.7812 4.8125 55.0898 4.70703C55.4023 4.59766 55.75 4.54297 56.1328 4.54297C56.5938 4.54297 57 4.62109 57.3516 4.77734C57.707 4.93359 57.9844 5.16992 58.1836 5.48633C58.3867 5.79883 58.4883 6.19141 58.4883 6.66406V9.61719C58.4883 9.82812 58.5059 10.0527 58.541 10.291C58.5801 10.5293 58.6367 10.7344 58.7109 10.9062V11H57.5801C57.5254 10.875 57.4824 10.709 57.4512 10.502C57.4199 10.291 57.4043 10.0957 57.4043 9.91602ZM57.5918 7.15625L57.6035 7.91797H56.5078C56.1992 7.91797 55.9238 7.94336 55.6816 7.99414C55.4395 8.04102 55.2363 8.11328 55.0723 8.21094C54.9082 8.30859 54.7832 8.43164 54.6973 8.58008C54.6113 8.72461 54.5684 8.89453 54.5684 9.08984C54.5684 9.28906 54.6133 9.4707 54.7031 9.63477C54.793 9.79883 54.9277 9.92969 55.1074 10.0273C55.291 10.1211 55.5156 10.168 55.7812 10.168C56.1133 10.168 56.4062 10.0977 56.6602 9.95703C56.9141 9.81641 57.1152 9.64453 57.2637 9.44141C57.416 9.23828 57.498 9.04102 57.5098 8.84961L57.9727 9.37109C57.9453 9.53516 57.8711 9.7168 57.75 9.91602C57.6289 10.1152 57.4668 10.3066 57.2637 10.4902C57.0645 10.6699 56.8262 10.8203 56.5488 10.9414C56.2754 11.0586 55.9668 11.1172 55.623 11.1172C55.1934 11.1172 54.8164 11.0332 54.4922 10.8652C54.1719 10.6973 53.9219 10.4727 53.7422 10.1914C53.5664 9.90625 53.4785 9.58789 53.4785 9.23633C53.4785 8.89648 53.5449 8.59766 53.6777 8.33984C53.8105 8.07812 54.002 7.86133 54.252 7.68945C54.502 7.51367 54.8027 7.38086 55.1543 7.29102C55.5059 7.20117 55.8984 7.15625 56.332 7.15625H57.5918ZM61.2773 6.01367V11H60.1934V4.66016H61.2188L61.2773 6.01367ZM61.0195 7.58984L60.5684 7.57227C60.5723 7.13867 60.6367 6.73828 60.7617 6.37109C60.8867 6 61.0625 5.67773 61.2891 5.4043C61.5156 5.13086 61.7852 4.91992 62.0977 4.77148C62.4141 4.61914 62.7637 4.54297 63.1465 4.54297C63.459 4.54297 63.7402 4.58594 63.9902 4.67188C64.2402 4.75391 64.4531 4.88672 64.6289 5.07031C64.8086 5.25391 64.9453 5.49219 65.0391 5.78516C65.1328 6.07422 65.1797 6.42773 65.1797 6.8457V11H64.0898V6.83398C64.0898 6.50195 64.041 6.23633 63.9434 6.03711C63.8457 5.83398 63.7031 5.6875 63.5156 5.59766C63.3281 5.50391 63.0977 5.45703 62.8242 5.45703C62.5547 5.45703 62.3086 5.51367 62.0859 5.62695C61.8672 5.74023 61.6777 5.89648 61.5176 6.0957C61.3613 6.29492 61.2383 6.52344 61.1484 6.78125C61.0625 7.03516 61.0195 7.30469 61.0195 7.58984ZM70.8223 9.76953V2H71.9121V11H70.916L70.8223 9.76953ZM66.5566 7.90039V7.77734C66.5566 7.29297 66.6152 6.85352 66.7324 6.45898C66.8535 6.06055 67.0234 5.71875 67.2422 5.43359C67.4648 5.14844 67.7285 4.92969 68.0332 4.77734C68.3418 4.62109 68.6855 4.54297 69.0645 4.54297C69.4629 4.54297 69.8105 4.61328 70.1074 4.75391C70.4082 4.89062 70.6621 5.0918 70.8691 5.35742C71.0801 5.61914 71.2461 5.93555 71.3672 6.30664C71.4883 6.67773 71.5723 7.09766 71.6191 7.56641V8.10547C71.5762 8.57031 71.4922 8.98828 71.3672 9.35938C71.2461 9.73047 71.0801 10.0469 70.8691 10.3086C70.6621 10.5703 70.4082 10.7715 70.1074 10.9121C69.8066 11.0488 69.4551 11.1172 69.0527 11.1172C68.6816 11.1172 68.3418 11.0371 68.0332 10.877C67.7285 10.7168 67.4648 10.4922 67.2422 10.2031C67.0234 9.91406 66.8535 9.57422 66.7324 9.18359C66.6152 8.78906 66.5566 8.36133 66.5566 7.90039ZM67.6465 7.77734V7.90039C67.6465 8.2168 67.6777 8.51367 67.7402 8.79102C67.8066 9.06836 67.9082 9.3125 68.0449 9.52344C68.1816 9.73438 68.3555 9.90039 68.5664 10.0215C68.7773 10.1387 69.0293 10.1973 69.3223 10.1973C69.6816 10.1973 69.9766 10.1211 70.207 9.96875C70.4414 9.81641 70.6289 9.61523 70.7695 9.36523C70.9102 9.11523 71.0195 8.84375 71.0977 8.55078V7.13867C71.0508 6.92383 70.9824 6.7168 70.8926 6.51758C70.8066 6.31445 70.6934 6.13477 70.5527 5.97852C70.416 5.81836 70.2461 5.69141 70.043 5.59766C69.8438 5.50391 69.6074 5.45703 69.334 5.45703C69.0371 5.45703 68.7812 5.51953 68.5664 5.64453C68.3555 5.76562 68.1816 5.93359 68.0449 6.14844C67.9082 6.35938 67.8066 6.60547 67.7402 6.88672C67.6777 7.16406 67.6465 7.46094 67.6465 7.77734ZM80.5723 9.76953V2H81.6621V11H80.666L80.5723 9.76953ZM76.3066 7.90039V7.77734C76.3066 7.29297 76.3652 6.85352 76.4824 6.45898C76.6035 6.06055 76.7734 5.71875 76.9922 5.43359C77.2148 5.14844 77.4785 4.92969 77.7832 4.77734C78.0918 4.62109 78.4355 4.54297 78.8145 4.54297C79.2129 4.54297 79.5605 4.61328 79.8574 4.75391C80.1582 4.89062 80.4121 5.0918 80.6191 5.35742C80.8301 5.61914 80.9961 5.93555 81.1172 6.30664C81.2383 6.67773 81.3223 7.09766 81.3691 7.56641V8.10547C81.3262 8.57031 81.2422 8.98828 81.1172 9.35938C80.9961 9.73047 80.8301 10.0469 80.6191 10.3086C80.4121 10.5703 80.1582 10.7715 79.8574 10.9121C79.5566 11.0488 79.2051 11.1172 78.8027 11.1172C78.4316 11.1172 78.0918 11.0371 77.7832 10.877C77.4785 10.7168 77.2148 10.4922 76.9922 10.2031C76.7734 9.91406 76.6035 9.57422 76.4824 9.18359C76.3652 8.78906 76.3066 8.36133 76.3066 7.90039ZM77.3965 7.77734V7.90039C77.3965 8.2168 77.4277 8.51367 77.4902 8.79102C77.5566 9.06836 77.6582 9.3125 77.7949 9.52344C77.9316 9.73438 78.1055 9.90039 78.3164 10.0215C78.5273 10.1387 78.7793 10.1973 79.0723 10.1973C79.4316 10.1973 79.7266 10.1211 79.957 9.96875C80.1914 9.81641 80.3789 9.61523 80.5195 9.36523C80.6602 9.11523 80.7695 8.84375 80.8477 8.55078V7.13867C80.8008 6.92383 80.7324 6.7168 80.6426 6.51758C80.5566 6.31445 80.4434 6.13477 80.3027 5.97852C80.166 5.81836 79.9961 5.69141 79.793 5.59766C79.5938 5.50391 79.3574 5.45703 79.084 5.45703C78.7871 5.45703 78.5312 5.51953 78.3164 5.64453C78.1055 5.76562 77.9316 5.93359 77.7949 6.14844C77.6582 6.35938 77.5566 6.60547 77.4902 6.88672C77.4277 7.16406 77.3965 7.46094 77.3965 7.77734ZM85.9805 11.1172C85.5391 11.1172 85.1387 11.043 84.7793 10.8945C84.4238 10.7422 84.1172 10.5293 83.8594 10.2559C83.6055 9.98242 83.4102 9.6582 83.2734 9.2832C83.1367 8.9082 83.0684 8.49805 83.0684 8.05273V7.80664C83.0684 7.29102 83.1445 6.83203 83.2969 6.42969C83.4492 6.02344 83.6562 5.67969 83.918 5.39844C84.1797 5.11719 84.4766 4.9043 84.8086 4.75977C85.1406 4.61523 85.4844 4.54297 85.8398 4.54297C86.293 4.54297 86.6836 4.62109 87.0117 4.77734C87.3438 4.93359 87.6152 5.15234 87.8262 5.43359C88.0371 5.71094 88.1934 6.03906 88.2949 6.41797C88.3965 6.79297 88.4473 7.20312 88.4473 7.64844V8.13477H83.7129V7.25H87.3633V7.16797C87.3477 6.88672 87.2891 6.61328 87.1875 6.34766C87.0898 6.08203 86.9336 5.86328 86.7188 5.69141C86.5039 5.51953 86.2109 5.43359 85.8398 5.43359C85.5938 5.43359 85.3672 5.48633 85.1602 5.5918C84.9531 5.69336 84.7754 5.8457 84.627 6.04883C84.4785 6.25195 84.3633 6.5 84.2812 6.79297C84.1992 7.08594 84.1582 7.42383 84.1582 7.80664V8.05273C84.1582 8.35352 84.1992 8.63672 84.2812 8.90234C84.3672 9.16406 84.4902 9.39453 84.6504 9.59375C84.8145 9.79297 85.0117 9.94922 85.2422 10.0625C85.4766 10.1758 85.7422 10.2324 86.0391 10.2324C86.4219 10.2324 86.7461 10.1543 87.0117 9.99805C87.2773 9.8418 87.5098 9.63281 87.709 9.37109L88.3652 9.89258C88.2285 10.0996 88.0547 10.2969 87.8438 10.4844C87.6328 10.6719 87.373 10.8242 87.0645 10.9414C86.7598 11.0586 86.3984 11.1172 85.9805 11.1172ZM91.5586 10.0215L93.293 4.66016H94.4004L92.1211 11H91.3945L91.5586 10.0215ZM90.1113 4.66016L91.8984 10.0508L92.0215 11H91.2949L88.998 4.66016H90.1113ZM97.9922 11.1172C97.5508 11.1172 97.1504 11.043 96.791 10.8945C96.4355 10.7422 96.1289 10.5293 95.8711 10.2559C95.6172 9.98242 95.4219 9.6582 95.2852 9.2832C95.1484 8.9082 95.0801 8.49805 95.0801 8.05273V7.80664C95.0801 7.29102 95.1562 6.83203 95.3086 6.42969C95.4609 6.02344 95.668 5.67969 95.9297 5.39844C96.1914 5.11719 96.4883 4.9043 96.8203 4.75977C97.1523 4.61523 97.4961 4.54297 97.8516 4.54297C98.3047 4.54297 98.6953 4.62109 99.0234 4.77734C99.3555 4.93359 99.627 5.15234 99.8379 5.43359C100.049 5.71094 100.205 6.03906 100.307 6.41797C100.408 6.79297 100.459 7.20312 100.459 7.64844V8.13477H95.7246V7.25H99.375V7.16797C99.3594 6.88672 99.3008 6.61328 99.1992 6.34766C99.1016 6.08203 98.9453 5.86328 98.7305 5.69141C98.5156 5.51953 98.2227 5.43359 97.8516 5.43359C97.6055 5.43359 97.3789 5.48633 97.1719 5.5918C96.9648 5.69336 96.7871 5.8457 96.6387 6.04883C96.4902 6.25195 96.375 6.5 96.293 6.79297C96.2109 7.08594 96.1699 7.42383 96.1699 7.80664V8.05273C96.1699 8.35352 96.2109 8.63672 96.293 8.90234C96.3789 9.16406 96.502 9.39453 96.6621 9.59375C96.8262 9.79297 97.0234 9.94922 97.2539 10.0625C97.4883 10.1758 97.7539 10.2324 98.0508 10.2324C98.4336 10.2324 98.7578 10.1543 99.0234 9.99805C99.2891 9.8418 99.5215 9.63281 99.7207 9.37109L100.377 9.89258C100.24 10.0996 100.066 10.2969 99.8555 10.4844C99.6445 10.6719 99.3848 10.8242 99.0762 10.9414C98.7715 11.0586 98.4102 11.1172 97.9922 11.1172ZM102.902 2V11H101.812V2H102.902ZM104.355 7.90039V7.76562C104.355 7.30859 104.422 6.88477 104.555 6.49414C104.688 6.09961 104.879 5.75781 105.129 5.46875C105.379 5.17578 105.682 4.94922 106.037 4.78906C106.393 4.625 106.791 4.54297 107.232 4.54297C107.678 4.54297 108.078 4.625 108.434 4.78906C108.793 4.94922 109.098 5.17578 109.348 5.46875C109.602 5.75781 109.795 6.09961 109.928 6.49414C110.061 6.88477 110.127 7.30859 110.127 7.76562V7.90039C110.127 8.35742 110.061 8.78125 109.928 9.17188C109.795 9.5625 109.602 9.9043 109.348 10.1973C109.098 10.4863 108.795 10.7129 108.439 10.877C108.088 11.0371 107.689 11.1172 107.244 11.1172C106.799 11.1172 106.398 11.0371 106.043 10.877C105.688 10.7129 105.383 10.4863 105.129 10.1973C104.879 9.9043 104.688 9.5625 104.555 9.17188C104.422 8.78125 104.355 8.35742 104.355 7.90039ZM105.439 7.76562V7.90039C105.439 8.2168 105.477 8.51562 105.551 8.79688C105.625 9.07422 105.736 9.32031 105.885 9.53516C106.037 9.75 106.227 9.91992 106.453 10.0449C106.68 10.166 106.943 10.2266 107.244 10.2266C107.541 10.2266 107.801 10.166 108.023 10.0449C108.25 9.91992 108.438 9.75 108.586 9.53516C108.734 9.32031 108.846 9.07422 108.92 8.79688C108.998 8.51562 109.037 8.2168 109.037 7.90039V7.76562C109.037 7.45312 108.998 7.1582 108.92 6.88086C108.846 6.59961 108.732 6.35156 108.58 6.13672C108.432 5.91797 108.244 5.74609 108.018 5.62109C107.795 5.49609 107.533 5.43359 107.232 5.43359C106.936 5.43359 106.674 5.49609 106.447 5.62109C106.225 5.74609 106.037 5.91797 105.885 6.13672C105.736 6.35156 105.625 6.59961 105.551 6.88086C105.477 7.1582 105.439 7.45312 105.439 7.76562ZM112.57 5.87891V13.4375H111.48V4.66016H112.477L112.57 5.87891ZM116.842 7.77734V7.90039C116.842 8.36133 116.787 8.78906 116.678 9.18359C116.568 9.57422 116.408 9.91406 116.197 10.2031C115.99 10.4922 115.734 10.7168 115.43 10.877C115.125 11.0371 114.775 11.1172 114.381 11.1172C113.979 11.1172 113.623 11.0508 113.314 10.918C113.006 10.7852 112.744 10.5918 112.529 10.3379C112.314 10.084 112.143 9.7793 112.014 9.42383C111.889 9.06836 111.803 8.66797 111.756 8.22266V7.56641C111.803 7.09766 111.891 6.67773 112.02 6.30664C112.148 5.93555 112.318 5.61914 112.529 5.35742C112.744 5.0918 113.004 4.89062 113.309 4.75391C113.613 4.61328 113.965 4.54297 114.363 4.54297C114.762 4.54297 115.115 4.62109 115.424 4.77734C115.732 4.92969 115.992 5.14844 116.203 5.43359C116.414 5.71875 116.572 6.06055 116.678 6.45898C116.787 6.85352 116.842 7.29297 116.842 7.77734ZM115.752 7.90039V7.77734C115.752 7.46094 115.719 7.16406 115.652 6.88672C115.586 6.60547 115.482 6.35938 115.342 6.14844C115.205 5.93359 115.029 5.76562 114.814 5.64453C114.6 5.51953 114.344 5.45703 114.047 5.45703C113.773 5.45703 113.535 5.50391 113.332 5.59766C113.133 5.69141 112.963 5.81836 112.822 5.97852C112.682 6.13477 112.566 6.31445 112.477 6.51758C112.391 6.7168 112.326 6.92383 112.283 7.13867V8.65625C112.361 8.92969 112.471 9.1875 112.611 9.42969C112.752 9.66797 112.939 9.86133 113.174 10.0098C113.408 10.1543 113.703 10.2266 114.059 10.2266C114.352 10.2266 114.604 10.166 114.814 10.0449C115.029 9.91992 115.205 9.75 115.342 9.53516C115.482 9.32031 115.586 9.07422 115.652 8.79688C115.719 8.51562 115.752 8.2168 115.752 7.90039ZM120.855 11.1172C120.414 11.1172 120.014 11.043 119.654 10.8945C119.299 10.7422 118.992 10.5293 118.734 10.2559C118.48 9.98242 118.285 9.6582 118.148 9.2832C118.012 8.9082 117.943 8.49805 117.943 8.05273V7.80664C117.943 7.29102 118.02 6.83203 118.172 6.42969C118.324 6.02344 118.531 5.67969 118.793 5.39844C119.055 5.11719 119.352 4.9043 119.684 4.75977C120.016 4.61523 120.359 4.54297 120.715 4.54297C121.168 4.54297 121.559 4.62109 121.887 4.77734C122.219 4.93359 122.49 5.15234 122.701 5.43359C122.912 5.71094 123.068 6.03906 123.17 6.41797C123.271 6.79297 123.322 7.20312 123.322 7.64844V8.13477H118.588V7.25H122.238V7.16797C122.223 6.88672 122.164 6.61328 122.062 6.34766C121.965 6.08203 121.809 5.86328 121.594 5.69141C121.379 5.51953 121.086 5.43359 120.715 5.43359C120.469 5.43359 120.242 5.48633 120.035 5.5918C119.828 5.69336 119.65 5.8457 119.502 6.04883C119.354 6.25195 119.238 6.5 119.156 6.79297C119.074 7.08594 119.033 7.42383 119.033 7.80664V8.05273C119.033 8.35352 119.074 8.63672 119.156 8.90234C119.242 9.16406 119.365 9.39453 119.525 9.59375C119.689 9.79297 119.887 9.94922 120.117 10.0625C120.352 10.1758 120.617 10.2324 120.914 10.2324C121.297 10.2324 121.621 10.1543 121.887 9.99805C122.152 9.8418 122.385 9.63281 122.584 9.37109L123.24 9.89258C123.104 10.0996 122.93 10.2969 122.719 10.4844C122.508 10.6719 122.248 10.8242 121.939 10.9414C121.635 11.0586 121.273 11.1172 120.855 11.1172ZM128.584 9.76953V2H129.674V11H128.678L128.584 9.76953ZM124.318 7.90039V7.77734C124.318 7.29297 124.377 6.85352 124.494 6.45898C124.615 6.06055 124.785 5.71875 125.004 5.43359C125.227 5.14844 125.49 4.92969 125.795 4.77734C126.104 4.62109 126.447 4.54297 126.826 4.54297C127.225 4.54297 127.572 4.61328 127.869 4.75391C128.17 4.89062 128.424 5.0918 128.631 5.35742C128.842 5.61914 129.008 5.93555 129.129 6.30664C129.25 6.67773 129.334 7.09766 129.381 7.56641V8.10547C129.338 8.57031 129.254 8.98828 129.129 9.35938C129.008 9.73047 128.842 10.0469 128.631 10.3086C128.424 10.5703 128.17 10.7715 127.869 10.9121C127.568 11.0488 127.217 11.1172 126.814 11.1172C126.443 11.1172 126.104 11.0371 125.795 10.877C125.49 10.7168 125.227 10.4922 125.004 10.2031C124.785 9.91406 124.615 9.57422 124.494 9.18359C124.377 8.78906 124.318 8.36133 124.318 7.90039ZM125.408 7.77734V7.90039C125.408 8.2168 125.439 8.51367 125.502 8.79102C125.568 9.06836 125.67 9.3125 125.807 9.52344C125.943 9.73438 126.117 9.90039 126.328 10.0215C126.539 10.1387 126.791 10.1973 127.084 10.1973C127.443 10.1973 127.738 10.1211 127.969 9.96875C128.203 9.81641 128.391 9.61523 128.531 9.36523C128.672 9.11523 128.781 8.84375 128.859 8.55078V7.13867C128.812 6.92383 128.744 6.7168 128.654 6.51758C128.568 6.31445 128.455 6.13477 128.314 5.97852C128.178 5.81836 128.008 5.69141 127.805 5.59766C127.605 5.50391 127.369 5.45703 127.096 5.45703C126.799 5.45703 126.543 5.51953 126.328 5.64453C126.117 5.76562 125.943 5.93359 125.807 6.14844C125.67 6.35938 125.568 6.60547 125.502 6.88672C125.439 7.16406 125.408 7.46094 125.408 7.77734ZM134.332 2H135.422V9.76953L135.328 11H134.332V2ZM139.705 7.77734V7.90039C139.705 8.36133 139.65 8.78906 139.541 9.18359C139.432 9.57422 139.271 9.91406 139.061 10.2031C138.85 10.4922 138.592 10.7168 138.287 10.877C137.982 11.0371 137.633 11.1172 137.238 11.1172C136.836 11.1172 136.482 11.0488 136.178 10.9121C135.877 10.7715 135.623 10.5703 135.416 10.3086C135.209 10.0469 135.043 9.73047 134.918 9.35938C134.797 8.98828 134.713 8.57031 134.666 8.10547V7.56641C134.713 7.09766 134.797 6.67773 134.918 6.30664C135.043 5.93555 135.209 5.61914 135.416 5.35742C135.623 5.0918 135.877 4.89062 136.178 4.75391C136.479 4.61328 136.828 4.54297 137.227 4.54297C137.625 4.54297 137.979 4.62109 138.287 4.77734C138.596 4.92969 138.854 5.14844 139.061 5.43359C139.271 5.71875 139.432 6.06055 139.541 6.45898C139.65 6.85352 139.705 7.29297 139.705 7.77734ZM138.615 7.90039V7.77734C138.615 7.46094 138.586 7.16406 138.527 6.88672C138.469 6.60547 138.375 6.35938 138.246 6.14844C138.117 5.93359 137.947 5.76562 137.736 5.64453C137.525 5.51953 137.266 5.45703 136.957 5.45703C136.684 5.45703 136.445 5.50391 136.242 5.59766C136.043 5.69141 135.873 5.81836 135.732 5.97852C135.592 6.13477 135.477 6.31445 135.387 6.51758C135.301 6.7168 135.236 6.92383 135.193 7.13867V8.55078C135.256 8.82422 135.357 9.08789 135.498 9.3418C135.643 9.5918 135.834 9.79688 136.072 9.95703C136.314 10.1172 136.613 10.1973 136.969 10.1973C137.262 10.1973 137.512 10.1387 137.719 10.0215C137.93 9.90039 138.1 9.73438 138.229 9.52344C138.361 9.3125 138.459 9.06836 138.521 8.79102C138.584 8.51367 138.615 8.2168 138.615 7.90039ZM142.787 10.3438L144.551 4.66016H145.711L143.168 11.9785C143.109 12.1348 143.031 12.3027 142.934 12.4824C142.84 12.666 142.719 12.8398 142.57 13.0039C142.422 13.168 142.242 13.3008 142.031 13.4023C141.824 13.5078 141.576 13.5605 141.287 13.5605C141.201 13.5605 141.092 13.5488 140.959 13.5254C140.826 13.502 140.732 13.4824 140.678 13.4668L140.672 12.5879C140.703 12.5918 140.752 12.5957 140.818 12.5996C140.889 12.6074 140.938 12.6113 140.965 12.6113C141.211 12.6113 141.42 12.5781 141.592 12.5117C141.764 12.4492 141.908 12.3418 142.025 12.1895C142.146 12.041 142.25 11.8359 142.336 11.5742L142.787 10.3438ZM141.492 4.66016L143.139 9.58203L143.42 10.7246L142.641 11.123L140.309 4.66016H141.492Z" fill="#1B2021"/>
<path d="M14.1067 30.833C14.0413 31.6438 13.8416 32.4385 13.5159 33.1838C13.2071 33.8887 12.7603 34.525 12.2022 35.0549C11.612 35.6023 10.916 36.0225 10.1569 36.2903C9.2509 36.6032 8.2968 36.7541 7.33847 36.7358C6.24977 36.7581 5.16814 36.5535 4.16306 36.1345C3.27786 35.7548 2.49288 35.1751 1.86891 34.4413C1.22566 33.6675 0.749639 32.7686 0.471535 31.8016C0.148303 30.691 -0.0101847 29.5392 0.00111876 28.3826C-0.0157497 27.204 0.15824 26.0304 0.516006 24.9073C0.824903 23.9415 1.32484 23.0482 1.98641 22.2798C2.62201 21.5542 3.41431 20.9828 4.30341 20.6087C5.27831 20.2096 6.32435 20.0125 7.37764 20.0301C8.27211 20.0127 9.16365 20.1404 10.0174 20.4079C10.7199 20.633 11.3662 21.0056 11.9125 21.5014C12.4331 21.9872 12.8534 22.5708 13.1499 23.2182C13.4756 23.9342 13.7065 24.689 13.8374 25.4646L10.5412 25.8881C10.4371 25.079 10.1089 24.3154 9.59427 23.6825C9.30482 23.3963 8.95701 23.1764 8.57429 23.0379C8.19156 22.8994 7.78317 22.8457 7.37764 22.8804C6.81054 22.85 6.24503 22.9658 5.73587 23.2174C5.22672 23.469 4.79108 23.8476 4.47069 24.3165C3.74042 25.5419 3.39514 26.9586 3.47967 28.3826C3.38902 29.8192 3.75974 31.2472 4.5376 32.4584C4.85639 32.9124 5.28254 33.2801 5.77831 33.529C6.27408 33.7779 6.82393 33.9003 7.37846 33.8848C7.78976 33.9198 8.20379 33.8676 8.59346 33.7314C8.98313 33.5951 9.33967 33.3777 9.63956 33.0941C10.1699 32.4536 10.4857 31.6626 10.542 30.833H14.1067Z" fill="#1B2021"/>
<path d="M16.2125 20.4308H19.5319V36.3344H16.2125V20.4308Z" fill="#1B2021"/>
<path d="M26.427 23.3064H21.6384V20.4316H34.5579V23.3064H29.7693V36.3352H26.427V23.3064Z" fill="#1B2021"/>
<path d="M41.1592 29.8522L35.657 20.4316H39.3542L42.7801 26.8698L46.3211 20.4316H49.8405L44.4745 29.8522V36.3352H41.1547L41.1592 29.8522Z" fill="#1B2021"/>
<path d="M56.4316 20.4308H57.7903V36.3344H56.4316V20.4308Z" fill="#1B2021"/>
<path d="M61.3839 20.4308H62.8763L71.7861 34.1974V20.4308H73.0994V36.3344H71.6314L62.6992 22.5247V36.3344H61.3839V20.4308Z" fill="#1B2021"/>
<path d="M80.9549 21.6777H75.4307V20.4316H87.8165V21.6777H82.3143V36.3352H80.9557L80.9549 21.6777Z" fill="#1B2021"/>
<path d="M90.4117 20.4308H100.415V21.6556H91.772V27.49H99.969V28.7613H91.772V35.0884H100.796L100.485 36.3344H90.4126L90.4117 20.4308Z" fill="#1B2021"/>
<path d="M103.702 20.4308H105.061V35.0664H113.7L113.41 36.3353H103.699L103.702 20.4308Z" fill="#1B2021"/>
<path d="M115.964 20.4308H117.322V35.0664H125.964L125.675 36.3353H115.964V20.4308Z" fill="#1B2021"/>
<path d="M128.896 20.4308H130.254V36.3344H128.896V20.4308Z" fill="#1B2021"/>
<path d="M140.494 28.4715H146.33V34.6158C145.94 34.992 145.502 35.3159 145.028 35.5787C144.551 35.8428 144.052 36.0628 143.536 36.2356C143.024 36.406 142.499 36.5319 141.966 36.6134C141.448 36.6933 140.925 36.7342 140.402 36.735C139.362 36.7507 138.33 36.5649 137.362 36.1882C136.483 35.8383 135.698 35.2895 135.067 34.5848C134.408 33.8273 133.916 32.9391 133.623 31.9786C133.271 30.8279 133.102 29.629 133.122 28.4258C133.101 27.197 133.286 25.9733 133.668 24.8052C133.985 23.8384 134.493 22.9452 135.16 22.1769C135.777 21.4816 136.542 20.9337 137.399 20.5735C138.281 20.2055 139.228 20.0194 140.183 20.0268C141.52 19.8928 142.858 20.2645 143.934 21.0688C145.01 21.8732 145.746 23.052 145.996 24.3719L144.726 24.6624C144.587 24.1794 144.396 23.7125 144.158 23.2695C143.935 22.8548 143.637 22.4851 143.279 22.1786C142.897 21.8611 142.459 21.6188 141.987 21.4654C141.403 21.2833 140.793 21.197 140.182 21.2092C139.338 21.1925 138.502 21.3754 137.743 21.7436C137.043 22.0947 136.437 22.6059 135.972 23.2353C135.473 23.9191 135.105 24.6892 134.886 25.507C134.633 26.4439 134.51 27.4113 134.519 28.3817C134.51 29.3561 134.631 30.3274 134.88 31.2695C135.093 32.0869 135.463 32.8548 135.971 33.5298C136.456 34.1639 137.087 34.6714 137.81 35.01C138.623 35.3751 139.508 35.5538 140.4 35.533C141.24 35.534 142.076 35.4186 142.884 35.1887C143.661 34.9747 144.39 34.6153 145.034 34.1303V29.702H140.489L140.494 28.4715Z" fill="#1B2021"/>
<path d="M149.448 20.4308H159.45V21.6556H150.807V27.49H159.005V28.7613H150.807V35.0884H159.832L159.52 36.3344H149.452L149.448 20.4308Z" fill="#1B2021"/>
<path d="M162.846 20.4308H164.338L173.247 34.1974V20.4308H174.561V36.3344H173.092L164.159 22.5247V36.3344H162.846V20.4308Z" fill="#1B2021"/>
<path d="M190.311 31.2338C190.216 31.9875 190.009 32.7232 189.699 33.4165C189.403 34.0711 188.983 34.6615 188.461 35.1546C187.913 35.6618 187.269 36.0552 186.568 36.3125C184.803 36.9133 182.882 36.8738 181.144 36.2007C180.295 35.8483 179.539 35.3028 178.938 34.6079C178.289 33.8442 177.801 32.9578 177.502 32.0016C177.142 30.8452 176.97 29.6385 176.99 28.4276C176.969 27.1981 177.157 25.9739 177.548 24.8079C177.872 23.8416 178.383 22.9489 179.052 22.1796C179.66 21.4902 180.413 20.9428 181.257 20.5762C182.104 20.2103 183.018 20.0239 183.941 20.0295C184.789 20.0113 185.633 20.1398 186.436 20.4089C187.093 20.6363 187.696 20.9957 188.208 21.4656C188.695 21.9263 189.092 22.4749 189.378 23.0821C189.683 23.7328 189.922 24.4129 190.089 25.1122L188.797 25.4027C188.649 24.7968 188.443 24.2072 188.181 23.641C187.954 23.1479 187.637 22.702 187.245 22.3273C186.851 21.9617 186.386 21.6812 185.879 21.5039C185.254 21.2966 184.599 21.1988 183.941 21.2143C183.129 21.1978 182.326 21.3798 181.601 21.7447C180.916 22.1031 180.322 22.6133 179.864 23.2363C179.366 23.9214 178.996 24.6909 178.773 25.508C178.512 26.4436 178.384 27.4115 178.393 28.3827C178.383 29.3575 178.506 30.3292 178.76 31.2705C178.978 32.0835 179.34 32.8507 179.83 33.5357C180.285 34.1634 180.884 34.672 181.578 35.0175C182.328 35.3775 183.152 35.5567 183.984 35.5406C184.721 35.5593 185.456 35.4493 186.156 35.2166C186.699 35.0281 187.192 34.7196 187.599 34.3141C187.984 33.92 188.287 33.4547 188.492 32.9441C188.713 32.3953 188.875 31.824 188.972 31.2403L190.311 31.2338Z" fill="#1B2021"/>
<path d="M192.617 20.4308H202.618V21.6556H193.976V27.49H202.173V28.7613H193.976V35.0884H203L202.688 36.3344H192.619L192.617 20.4308Z" fill="#1B2021"/>
</svg>
