<svg xmlns="http://www.w3.org/2000/svg" width="242.945" height="20" viewBox="0 0 242.945 20"><g transform="translate(-6588.527 -15162)"><path d="M6605.408,15174.934a8.789,8.789,0,0,1-.707,2.813,6.912,6.912,0,0,1-1.572,2.239,7.048,7.048,0,0,1-2.448,1.479,9.762,9.762,0,0,1-3.373.533,9.376,9.376,0,0,1-3.8-.72,7.47,7.47,0,0,1-2.746-2.026,8.705,8.705,0,0,1-1.672-3.159,14.148,14.148,0,0,1-.563-4.092,13.085,13.085,0,0,1,.616-4.159,9.042,9.042,0,0,1,1.76-3.145,7.61,7.61,0,0,1,2.773-2,9.3,9.3,0,0,1,3.679-.692,9.919,9.919,0,0,1,3.159.452,6.18,6.18,0,0,1,2.268,1.309,6.527,6.527,0,0,1,1.481,2.054,10.858,10.858,0,0,1,.823,2.689l-3.945.507a5.246,5.246,0,0,0-1.133-2.64,3.366,3.366,0,0,0-2.653-.96,3.957,3.957,0,0,0-3.479,1.719,8.519,8.519,0,0,0-1.186,4.866,8.085,8.085,0,0,0,1.266,4.878,4.017,4.017,0,0,0,3.4,1.707,3.505,3.505,0,0,0,2.706-.946,4.747,4.747,0,0,0,1.08-2.706Z" fill="#fff"/><path d="M6607.928,15162.484h3.973v19.034h-3.973Z" fill="#fff"/><path d="M6620.153,15165.926h-5.731v-3.441h15.462v3.441h-5.731v15.593h-4Z" fill="#fff"/><path d="M6637.784,15173.76l-6.585-11.275h4.425l4.1,7.705,4.238-7.705h4.212l-6.422,11.275v7.759h-3.973Z" fill="#fff"/><path d="M6656.062,15162.484h1.626v19.034h-1.626Z" fill="#fff"/><path d="M6661.989,15162.484h1.786l10.663,16.476v-16.476h1.572v19.034h-1.757l-10.69-16.528v16.528h-1.574Z" fill="#fff"/><path d="M6685.411,15163.977H6678.8v-1.492h14.823v1.492h-6.585v17.542h-1.626Z" fill="#fff"/><path d="M6696.729,15162.484H6708.7v1.466h-10.343v6.983h9.81v1.521h-9.81v7.572h10.8l-.373,1.492h-12.054Z" fill="#fff"/><path d="M6712.635,15162.484h1.626V15180H6724.6l-.347,1.519h-11.622Z" fill="#fff"/><path d="M6727.31,15162.484h1.625V15180h10.343l-.347,1.519H6727.31Z" fill="#fff"/><path d="M6742.786,15162.484h1.626v19.034h-1.626Z" fill="#fff"/><path d="M6756.667,15172.107h6.985v7.354a7.456,7.456,0,0,1-1.559,1.152,10.651,10.651,0,0,1-1.786.786,11.4,11.4,0,0,1-1.879.453,12.382,12.382,0,0,1-1.872.145,9.635,9.635,0,0,1-3.638-.654,7.319,7.319,0,0,1-2.746-1.919,8.548,8.548,0,0,1-1.728-3.119,13.734,13.734,0,0,1-.6-4.252,13.219,13.219,0,0,1,.653-4.333,9.154,9.154,0,0,1,1.786-3.146,7.434,7.434,0,0,1,2.68-1.919,8.479,8.479,0,0,1,3.332-.654,6.427,6.427,0,0,1,6.956,5.2l-1.519.348a8.528,8.528,0,0,0-.68-1.667,4.581,4.581,0,0,0-1.052-1.306,4.684,4.684,0,0,0-1.547-.853,6.8,6.8,0,0,0-2.16-.307,6.4,6.4,0,0,0-2.919.64,5.957,5.957,0,0,0-2.119,1.785,8.213,8.213,0,0,0-1.3,2.719,12.723,12.723,0,0,0-.439,3.44,13.023,13.023,0,0,0,.432,3.456,7.741,7.741,0,0,0,1.306,2.705,5.94,5.94,0,0,0,2.2,1.772,7.164,7.164,0,0,0,3.1.626,10.815,10.815,0,0,0,2.973-.413,7.65,7.65,0,0,0,2.573-1.266v-5.3h-5.439Z" fill="#fff"/><path d="M6767.383,15162.484h11.97v1.466H6769.01v6.983h9.811v1.521h-9.811v7.572h10.8l-.373,1.492h-12.049Z" fill="#fff"/><path d="M6783.417,15162.484h1.786l10.662,16.476v-16.476h1.573v19.034h-1.758l-10.691-16.528v16.528h-1.572Z" fill="#fff"/><path d="M6816.287,15175.413a9.213,9.213,0,0,1-.733,2.612,6.586,6.586,0,0,1-1.481,2.08,6.772,6.772,0,0,1-2.266,1.386,9.5,9.5,0,0,1-6.491-.134,7.084,7.084,0,0,1-2.64-1.906,8.947,8.947,0,0,1-1.719-3.119,13.624,13.624,0,0,1-.612-4.277,12.935,12.935,0,0,1,.667-4.332,9.318,9.318,0,0,1,1.8-3.146,7.521,7.521,0,0,1,2.639-1.919,7.985,7.985,0,0,1,3.213-.654,8.81,8.81,0,0,1,2.986.454,6.075,6.075,0,0,1,2.12,1.265,6.413,6.413,0,0,1,1.4,1.934,12.582,12.582,0,0,1,.851,2.43l-1.546.348a11.565,11.565,0,0,0-.737-2.109,5.138,5.138,0,0,0-1.121-1.572,4.66,4.66,0,0,0-1.634-.985,6.853,6.853,0,0,0-2.32-.347,5.959,5.959,0,0,0-2.8.635,6.076,6.076,0,0,0-2.079,1.785,8.383,8.383,0,0,0-1.306,2.719,12.39,12.39,0,0,0-.454,3.44,12.75,12.75,0,0,0,.439,3.456,8.411,8.411,0,0,0,1.28,2.711,5.749,5.749,0,0,0,2.093,1.773,6.367,6.367,0,0,0,2.879.626,7.629,7.629,0,0,0,2.6-.387,4.574,4.574,0,0,0,1.727-1.08,5.045,5.045,0,0,0,1.068-1.64,9.758,9.758,0,0,0,.575-2.039Z" fill="#fff"/><path d="M6819.047,15162.484h11.969v1.466h-10.343v6.983h9.81v1.521h-9.81v7.572h10.8l-.373,1.492H6819.05Z" fill="#fff"/></g></svg>